{"glyphs":{"0":{"ha":656,"x_min":-6,"x_max":631,"o":"m 631 654 q 615 530 631 600 q 572 387 600 460 q 506 243 544 314 q 424 117 468 172 q 330 28 379 63 q 232 -6 281 -6 q 152 7 192 -6 q 81 44 113 19 q 29 102 49 68 q 10 179 10 136 q 8 212 10 201 q 8 246 6 222 q 4 271 6 257 q 1 300 3 285 q 5 451 -6 374 q 40 602 15 529 q 103 740 65 675 q 189 853 142 804 q 290 932 236 903 q 403 963 344 961 q 492 937 450 963 q 564 869 533 911 q 613 770 594 826 q 631 654 631 714 m 224 521 q 197 475 213 513 q 167 386 182 438 q 142 278 153 335 q 132 174 132 221 q 133 160 132 169 q 136 139 133 150 q 146 120 139 128 q 164 113 153 113 q 236 147 200 114 q 306 234 272 181 q 369 354 339 288 q 422 489 399 421 q 459 619 444 557 q 478 725 474 681 q 464 822 483 794 q 414 849 444 849 q 360 826 390 849 q 300 763 331 803 q 240 672 269 724 q 188 561 210 619 q 217 537 206 549 q 224 521 228 525 z "},"1":{"ha":403,"x_min":-6,"x_max":486,"o":"m 88 836 q 125 851 96 836 q 190 887 154 867 q 259 927 225 907 q 311 958 293 947 q 363 971 332 974 q 423 957 394 968 q 469 933 451 946 q 481 915 486 919 q 435 842 465 901 q 367 697 404 782 q 290 510 331 611 q 216 310 250 408 q 156 129 182 213 q 122 -3 131 46 q 99 -17 119 -19 q 56 1 79 -14 q 13 38 32 15 q -6 85 -6 61 q 6 147 -6 101 q 35 254 17 192 q 77 392 53 317 q 128 543 101 467 q 184 692 156 619 q 239 824 213 765 q 178 787 207 804 q 140 769 149 769 q 110 780 122 769 q 91 803 97 790 q 84 826 85 815 q 88 836 83 836 z "},"2":{"ha":715,"x_min":-29,"x_max":743,"o":"m 743 767 q 716 666 743 719 q 645 558 689 613 q 545 447 601 503 q 432 339 489 392 q 321 239 375 286 q 226 153 267 192 q 322 156 275 156 q 405 156 368 157 q 465 151 442 154 q 490 147 488 149 q 514 126 507 147 q 519 81 521 106 q 506 36 517 57 q 478 15 496 15 q 268 9 357 15 q 121 -6 179 3 q 32 -22 63 -14 q -3 -35 1 -31 q -17 -19 -11 -35 q -26 18 -24 -3 q -29 60 -29 39 q -25 89 -29 81 q 8 138 -24 101 q 89 224 39 174 q 201 335 139 274 q 328 458 264 396 q 451 581 392 521 q 556 690 511 642 q 623 773 600 739 q 636 818 646 807 q 584 835 619 838 q 505 813 549 832 q 415 762 461 793 q 328 692 368 731 q 262 610 289 653 q 229 526 235 567 q 235 484 226 499 q 236 463 244 469 q 212 472 232 458 q 171 513 192 486 q 135 576 150 539 q 124 653 119 613 q 146 715 126 681 q 196 785 165 750 q 267 853 226 819 q 351 912 307 886 q 441 953 394 938 q 531 969 488 969 q 656 941 613 969 q 719 876 700 913 q 741 808 739 840 q 743 767 743 775 z "},"3":{"ha":565,"x_min":-33,"x_max":594,"o":"m 594 804 q 566 715 594 761 q 497 626 538 669 q 411 542 456 582 q 333 474 367 503 q 369 440 351 460 q 400 393 386 419 q 420 335 414 367 q 422 267 426 304 q 385 169 417 218 q 310 81 353 121 q 219 17 267 42 q 133 -8 171 -8 q 10 37 54 -8 q -25 147 -33 82 q -3 176 -22 171 q 29 181 15 181 q 31 169 36 181 q 22 144 26 158 q 20 119 18 131 q 43 108 22 108 q 140 140 93 108 q 224 215 188 171 q 285 304 261 258 q 311 378 308 350 q 310 402 314 396 q 299 408 306 408 q 281 403 292 408 q 233 413 251 403 q 203 438 214 424 q 188 465 192 451 q 185 485 185 478 q 213 528 186 501 q 278 588 240 556 q 358 653 315 619 q 434 717 400 688 q 486 771 468 747 q 494 806 504 794 q 458 820 483 818 q 398 815 432 822 q 328 790 364 807 q 260 749 292 774 q 206 693 229 725 q 179 624 183 661 q 179 599 176 610 q 184 581 182 589 q 188 569 186 574 q 185 560 189 564 q 161 568 181 556 q 121 606 142 581 q 85 665 100 631 q 76 740 71 700 q 113 810 81 771 q 194 883 144 849 q 308 941 244 918 q 438 964 371 964 q 513 947 483 964 q 561 906 543 931 q 587 853 579 881 q 594 804 594 825 z "},"4":{"ha":624,"x_min":-49,"x_max":676,"o":"m 482 882 q 447 801 478 851 q 372 692 415 750 q 278 574 328 633 q 185 465 228 514 q 278 473 231 471 q 371 475 326 475 q 413 581 392 529 q 453 673 433 632 q 490 742 474 714 q 517 782 506 771 q 560 793 532 797 q 615 778 589 789 q 659 753 642 767 q 671 733 676 739 q 645 701 660 725 q 613 642 631 676 q 576 563 596 607 q 536 471 557 519 q 548 469 543 469 q 554 468 553 468 q 562 448 558 464 q 565 412 565 432 q 559 371 565 392 q 538 336 553 350 l 482 336 q 442 230 461 282 q 409 133 424 178 q 384 53 394 89 q 371 -4 374 17 q 351 -17 368 -21 q 313 2 333 -12 q 277 38 293 17 q 261 76 261 58 q 275 172 261 101 q 317 329 289 242 q 122 310 201 322 q 7 290 43 299 q -19 299 -6 286 q -40 333 -32 313 q -49 374 -49 353 q -35 407 -49 394 q 9 454 -25 415 q 88 548 43 493 q 185 666 133 603 q 279 786 236 729 q 351 888 322 843 q 383 947 381 932 q 403 970 388 974 q 438 950 419 967 q 469 912 456 933 q 482 882 483 890 z "},"5":{"ha":544,"x_min":-32,"x_max":581,"o":"m 578 882 q 571 857 576 871 q 555 832 565 843 q 529 813 544 821 q 493 806 514 806 q 441 809 481 806 q 356 817 401 813 q 334 794 346 811 q 310 754 322 776 q 288 708 299 732 q 269 665 276 685 q 257 635 261 646 q 256 625 253 624 q 268 632 258 626 q 292 643 278 638 q 322 653 306 649 q 354 657 338 657 q 433 640 404 657 q 476 596 461 622 q 494 540 490 569 q 499 486 499 511 q 482 389 499 442 q 439 283 465 336 q 378 178 413 229 q 306 88 343 128 q 234 25 269 49 q 169 1 199 1 q 82 24 119 1 q 19 75 44 46 q -19 133 -7 104 q -31 172 -32 161 q -21 190 -29 183 q -2 200 -12 197 q 17 203 8 203 q 28 200 25 203 q 26 187 29 199 q 25 162 24 175 q 35 138 26 149 q 67 126 43 126 q 125 147 92 126 q 193 202 158 168 q 262 279 228 236 q 323 367 296 322 q 368 452 350 411 q 389 524 386 493 q 387 537 390 532 q 378 544 383 542 q 369 547 374 546 q 363 547 364 547 q 310 531 339 547 q 254 494 281 514 q 208 457 228 475 q 188 438 189 439 q 144 446 168 438 q 99 468 119 454 q 63 500 78 482 q 49 536 49 518 q 60 579 49 546 q 89 656 71 613 q 128 746 107 699 q 171 833 150 793 q 209 898 192 872 q 236 924 226 924 q 277 921 242 924 q 358 915 313 918 q 451 908 404 911 q 526 906 497 906 q 567 903 554 906 q 578 882 581 901 z "},"6":{"ha":572,"x_min":-14,"x_max":538,"o":"m 172 -11 q 117 -5 149 -12 q 56 25 85 3 q 6 87 26 47 q -14 189 -14 126 q 5 369 -14 278 q 56 547 24 461 q 131 709 88 633 q 224 841 174 785 q 327 930 274 897 q 432 963 381 963 q 478 956 458 963 q 512 940 499 949 q 531 923 525 932 q 538 910 538 914 q 532 899 536 899 q 524 899 526 899 q 520 902 522 900 q 513 906 518 904 q 499 907 508 907 q 442 881 472 907 q 378 810 411 854 q 314 706 346 765 q 253 583 282 647 q 315 635 278 615 q 385 656 353 656 q 460 639 431 656 q 506 596 489 622 q 528 537 522 569 q 535 474 535 504 q 522 378 535 431 q 485 274 508 326 q 429 171 463 221 q 356 81 396 121 q 269 17 315 42 q 172 -11 222 -8 m 126 156 q 131 101 124 119 q 147 82 138 82 q 199 107 172 82 q 253 172 226 132 q 303 260 279 211 q 345 356 326 308 q 374 445 364 404 q 386 511 385 486 q 375 557 385 547 q 360 567 365 567 q 294 524 332 565 q 220 422 256 483 q 158 289 185 360 q 126 156 131 218 z "},"7":{"ha":525,"x_min":15,"x_max":610,"o":"m 586 904 q 599 894 593 904 q 607 869 604 883 q 608 842 610 856 q 601 821 607 828 q 549 753 586 806 q 463 625 511 700 q 362 460 415 550 q 263 285 308 371 q 186 122 218 199 q 149 -3 154 46 q 125 -15 146 -19 q 80 6 104 -10 q 35 44 56 22 q 15 85 15 67 q 36 156 15 104 q 91 275 57 207 q 167 422 125 343 q 253 574 210 500 q 335 711 296 649 q 401 811 374 774 q 327 813 363 813 q 260 813 292 813 q 140 800 183 813 q 94 768 97 788 q 86 749 93 756 q 72 743 79 743 q 56 752 61 743 q 51 769 51 761 q 74 863 58 829 q 115 914 90 897 q 174 934 140 931 q 250 938 208 938 q 362 934 304 938 q 468 926 419 931 q 549 915 517 921 q 586 904 582 908 z "},"8":{"ha":575,"x_min":-40,"x_max":618,"o":"m 618 794 q 590 696 618 746 q 520 600 561 646 q 434 515 479 554 q 357 453 389 476 q 414 314 392 386 q 426 171 436 242 q 394 92 419 126 q 332 34 368 57 q 255 -1 296 11 q 178 -12 214 -12 q 101 -1 142 -12 q 28 40 61 11 q -22 114 -4 68 q -31 229 -40 160 q -11 290 -26 258 q 27 352 4 321 q 79 413 50 383 q 139 469 108 443 q 103 566 119 525 q 88 654 88 607 q 122 772 88 718 q 211 867 157 826 q 331 930 265 907 q 456 953 396 953 q 538 938 506 953 q 588 899 569 922 q 612 848 606 876 q 618 794 618 819 m 507 804 q 485 840 510 840 q 404 825 447 840 q 326 786 361 810 q 267 735 290 763 q 243 681 243 707 q 288 576 243 646 q 355 631 318 601 q 424 692 392 661 q 480 751 457 722 q 507 804 503 781 m 119 182 q 117 155 117 171 q 121 125 117 139 q 135 101 125 111 q 161 92 144 92 q 192 99 176 92 q 219 119 207 107 q 238 148 231 132 q 246 179 246 164 q 233 247 246 208 q 200 333 221 286 q 147 265 168 301 q 119 182 126 228 z "},"9":{"ha":532,"x_min":-12,"x_max":539,"o":"m 353 958 q 408 952 376 960 q 469 922 440 944 q 519 860 499 900 q 539 758 539 821 q 520 578 539 669 q 469 400 501 486 q 394 238 438 314 q 301 106 351 163 q 198 17 251 50 q 93 -15 144 -15 q 46 -8 65 -15 q 13 7 26 -1 q -6 24 0 15 q -12 38 -12 33 q -7 49 -11 49 q 1 48 -1 49 q 5 45 3 47 q 11 42 7 43 q 26 40 15 40 q 83 67 53 40 q 146 138 114 93 q 210 240 178 182 q 272 364 243 299 q 210 312 247 332 q 140 292 172 292 q 65 308 94 292 q 19 351 36 325 q -3 410 3 378 q -10 474 -10 442 q 3 569 -10 517 q 40 674 17 621 q 96 776 63 726 q 169 866 129 826 q 256 931 210 906 q 353 958 303 956 m 399 792 q 394 847 401 828 q 378 865 388 865 q 326 841 353 865 q 272 778 299 817 q 221 692 244 740 q 178 597 197 644 q 149 506 160 549 q 139 436 139 464 q 148 393 139 406 q 165 381 157 381 q 231 422 192 381 q 305 524 269 463 q 367 658 340 586 q 399 792 394 729 z "},"\u0000":{"ha":0,"x_min":0,"x_max":0,"o":""},"\r":{"ha":471,"x_min":0,"x_max":0,"o":""}," ":{"ha":414,"x_min":0,"x_max":0,"o":""},"a":{"ha":636,"x_min":-35,"x_max":700,"o":"m 461 617 q 514 610 490 617 q 555 594 538 603 q 582 574 572 585 q 592 556 592 564 q 588 549 592 549 q 581 544 585 550 q 544 488 568 532 q 497 385 521 444 q 456 261 474 326 q 439 140 439 196 q 445 108 439 113 q 456 104 451 104 q 490 131 469 104 q 535 200 511 158 q 583 289 558 242 q 630 378 608 336 q 667 447 651 419 q 690 474 683 474 q 694 438 700 474 q 669 351 688 403 q 624 237 651 299 q 563 123 596 175 q 495 35 531 71 q 425 0 460 0 q 328 44 367 0 q 290 181 290 88 q 290 200 290 190 q 292 221 290 210 q 247 138 271 178 q 198 67 222 97 q 149 18 174 36 q 100 0 124 0 q 3 44 42 0 q -35 181 -35 88 q -26 271 -35 219 q -1 377 -18 322 q 40 485 15 432 q 99 579 65 538 q 174 647 132 621 q 268 672 217 672 q 366 651 331 672 q 424 589 401 629 q 461 617 444 617 m 131 104 q 159 126 142 104 q 198 181 176 147 q 244 260 219 215 q 292 350 268 304 q 339 440 317 396 q 381 518 361 483 q 363 570 378 546 q 331 594 347 594 q 284 572 308 594 q 235 511 260 549 q 190 426 211 474 q 151 328 168 378 q 124 233 133 279 q 114 153 114 186 q 117 120 114 136 q 131 104 119 104 z "},"b":{"ha":546,"x_min":-54,"x_max":492,"o":"m 274 1047 q 328 1038 301 1047 q 375 1017 354 1029 q 408 992 396 1004 q 421 975 421 981 q 416 968 421 968 q 407 964 411 968 q 337 860 378 933 q 255 694 296 786 q 178 503 214 601 q 122 328 143 406 q 134 361 124 333 q 161 427 144 389 q 200 508 178 465 q 248 588 222 551 q 301 649 274 625 q 357 672 329 672 q 453 628 415 672 q 492 492 492 585 q 483 401 492 453 q 458 295 475 350 q 417 188 442 240 q 358 93 392 135 q 283 26 325 51 q 189 0 240 0 q 116 12 144 0 q 65 46 88 24 q 55 19 58 31 q 47 4 51 8 q 22 0 39 -4 q -12 19 4 4 q -42 56 -29 33 q -54 108 -54 79 q -36 269 -54 174 q 11 468 -18 364 q 76 676 40 572 q 149 862 113 779 q 219 996 186 944 q 274 1047 251 1047 m 326 568 q 292 543 311 568 q 250 478 272 518 q 206 390 228 439 q 163 293 183 342 q 124 202 142 244 q 97 133 107 160 q 106 94 100 110 q 126 78 113 78 q 173 100 149 76 q 222 161 197 124 q 267 247 246 199 q 306 344 289 294 q 333 439 324 393 q 343 519 343 485 q 340 552 343 536 q 326 568 338 568 z "},"c":{"ha":426,"x_min":-42,"x_max":486,"o":"m 292 417 q 288 428 285 417 q 299 455 292 439 q 314 490 306 471 q 327 526 322 510 q 329 553 332 542 q 313 564 326 564 q 260 537 290 564 q 201 463 231 510 q 149 355 172 417 q 117 224 125 293 q 127 127 110 165 q 176 89 144 89 q 250 117 215 89 q 315 189 285 146 q 370 281 344 232 q 417 374 396 331 q 453 445 438 417 q 481 474 469 474 q 480 438 486 474 q 457 349 474 403 q 414 233 440 296 q 351 117 388 171 q 268 28 314 64 q 168 -7 222 -7 q 13 54 68 -7 q -42 213 -42 115 q -17 366 -42 285 q 49 515 8 447 q 143 628 90 583 q 253 672 196 672 q 310 658 283 672 q 356 622 336 644 q 385 569 375 599 q 396 510 396 540 q 383 476 396 493 q 352 447 369 460 q 317 425 335 433 q 292 417 300 417 z "},"d":{"ha":638,"x_min":-35,"x_max":754,"o":"m 607 1047 q 661 1038 635 1047 q 708 1017 688 1029 q 742 992 729 1004 q 754 975 754 981 q 749 968 754 968 q 740 964 744 968 q 680 878 713 936 q 614 746 647 821 q 549 585 581 671 q 494 417 518 500 q 455 262 469 335 q 440 140 440 189 q 447 109 440 114 q 456 104 453 104 q 490 131 469 104 q 535 200 511 158 q 585 289 560 242 q 631 378 610 336 q 669 447 653 419 q 692 474 685 474 q 694 438 700 474 q 669 351 688 403 q 624 237 651 299 q 563 123 596 175 q 495 35 531 71 q 425 0 460 0 q 328 44 367 0 q 290 182 290 89 q 292 215 290 197 q 296 251 293 232 q 251 158 275 203 q 201 78 226 113 q 151 22 176 43 q 100 0 125 0 q 3 44 42 0 q -35 181 -35 88 q -26 271 -35 219 q -1 377 -18 322 q 40 485 15 432 q 99 579 65 538 q 174 647 132 621 q 268 672 217 672 q 341 661 311 672 q 393 629 371 650 q 449 785 419 710 q 508 919 479 861 q 562 1013 536 978 q 607 1047 588 1047 m 131 104 q 173 149 146 104 q 233 261 200 193 q 302 408 267 329 q 369 557 338 488 q 331 594 361 594 q 284 572 308 594 q 235 511 260 549 q 190 426 211 474 q 151 328 168 378 q 124 233 133 279 q 114 153 114 186 q 117 120 114 136 q 131 104 119 104 z "},"e":{"ha":426,"x_min":-42,"x_max":486,"o":"m 117 224 q 127 127 110 165 q 176 89 144 89 q 250 117 215 89 q 315 189 285 146 q 370 281 344 232 q 417 374 396 331 q 453 445 438 417 q 481 474 469 474 q 480 438 486 474 q 457 349 474 403 q 414 233 440 296 q 351 117 388 171 q 268 28 314 64 q 168 -7 222 -7 q 13 54 68 -7 q -42 213 -42 115 q -31 304 -42 254 q -2 406 -21 354 q 43 505 17 457 q 102 590 69 553 q 173 650 135 628 q 253 672 211 672 q 320 653 292 672 q 367 606 349 635 q 392 542 385 576 q 396 474 400 507 q 372 391 390 429 q 325 326 354 353 q 257 283 296 299 q 172 268 218 268 q 125 279 150 268 q 120 252 122 265 q 117 224 118 239 m 326 524 q 326 552 329 540 q 313 564 322 564 q 276 549 297 564 q 232 506 254 533 q 188 442 210 479 q 149 363 165 406 l 135 321 q 183 340 153 321 q 244 389 214 360 q 299 454 275 418 q 326 524 322 490 z "},"f":{"ha":281,"x_min":-108,"x_max":428,"o":"m 108 64 q 135 12 128 47 q 141 -67 143 -24 q 128 -155 139 -110 q 98 -237 117 -200 q 53 -299 79 -275 q -6 -322 26 -322 q -38 -316 -21 -322 q -72 -294 -56 -310 q -98 -253 -87 -278 q -108 -190 -108 -228 q -97 -45 -108 -131 q -64 139 -85 40 q -15 343 -43 238 q 44 549 13 449 q 108 740 75 650 q 173 899 142 831 q 232 1007 204 967 q 281 1047 260 1047 q 328 1039 303 1047 q 376 1019 354 1031 q 413 996 399 1008 q 428 975 428 983 q 422 968 428 968 q 414 964 417 968 q 355 888 388 944 q 288 753 322 831 q 219 584 253 675 q 156 406 185 493 q 106 244 126 319 q 76 122 85 169 q 134 154 106 126 q 189 221 163 182 q 239 304 215 260 q 282 386 263 349 q 316 449 301 424 q 339 474 331 474 q 343 443 347 474 q 324 367 339 413 q 285 269 308 322 q 233 170 261 215 q 172 94 204 125 q 108 64 140 64 m 64 40 q 54 20 61 40 q 40 -29 47 0 q 25 -94 32 -58 q 14 -158 18 -129 q 11 -208 10 -187 q 21 -228 13 -228 q 43 -208 32 -228 q 63 -158 54 -187 q 76 -94 71 -129 q 81 -29 81 -58 q 78 20 82 0 q 64 40 74 40 z "},"g":{"ha":635,"x_min":-35,"x_max":697,"o":"m 582 544 q 508 393 550 513 q 413 50 467 274 q 467 104 440 74 q 519 176 493 135 q 572 268 544 217 q 622 365 599 319 q 664 442 646 411 q 689 474 682 474 q 694 449 697 474 q 678 384 690 424 q 647 295 667 344 q 603 196 628 246 q 499 38 554 99 q 388 -58 443 -22 q 356 -160 374 -112 q 314 -244 339 -208 q 256 -301 289 -281 q 176 -322 222 -322 q 117 -306 144 -322 q 72 -264 89 -289 q 50 -208 54 -239 q 61 -149 46 -178 q 95 -106 75 -122 q 140 -77 115 -89 q 192 -56 164 -65 q 253 -36 221 -47 q 285 119 272 43 q 317 272 299 196 q 268 174 294 222 q 213 86 242 125 q 156 24 185 47 q 100 0 126 0 q 3 44 42 0 q -35 181 -35 88 q -26 271 -35 219 q -1 377 -18 322 q 40 485 15 432 q 99 579 65 538 q 174 647 132 621 q 268 672 217 672 q 365 651 329 672 q 422 590 400 629 q 463 617 442 617 q 515 610 490 617 q 556 593 539 603 q 583 573 574 583 q 593 556 593 563 q 590 549 593 549 q 582 544 586 549 m 131 104 q 161 128 142 104 q 203 190 181 151 q 251 274 226 228 q 301 366 276 321 q 346 450 325 411 q 381 511 367 489 q 365 568 381 542 q 331 594 349 594 q 284 572 308 594 q 235 511 260 549 q 190 426 211 474 q 151 328 168 378 q 124 233 133 279 q 114 153 114 186 q 117 120 114 136 q 131 104 119 104 m 171 -161 q 145 -187 156 -172 q 131 -217 135 -203 q 131 -240 128 -231 q 146 -250 135 -250 q 190 -217 169 -250 q 225 -137 210 -185 q 192 -149 206 -144 q 171 -161 179 -154 z "},"h":{"ha":599,"x_min":-61,"x_max":663,"o":"m 274 1047 q 328 1038 301 1047 q 375 1017 354 1029 q 408 992 396 1004 q 421 975 421 981 q 416 968 421 968 q 407 964 411 968 q 358 897 385 943 q 301 788 331 851 q 242 651 272 725 q 184 500 211 576 q 135 351 157 424 q 100 219 114 279 l 101 221 q 150 313 122 264 q 208 412 178 363 q 268 506 238 461 q 328 587 299 551 q 381 643 357 622 q 424 664 406 664 q 476 657 453 664 q 517 641 500 650 q 544 622 535 632 q 554 603 554 611 q 551 597 554 596 q 543 592 549 597 q 507 528 531 579 q 460 408 483 476 q 419 268 436 340 q 401 140 401 196 q 408 109 401 114 q 418 104 414 104 q 453 131 432 104 q 497 200 474 158 q 546 289 521 242 q 592 378 571 336 q 630 447 614 419 q 653 474 646 474 q 656 438 663 474 q 631 351 649 403 q 586 237 614 299 q 526 123 558 175 q 458 35 493 71 q 388 0 422 0 q 291 44 329 0 q 253 182 253 89 q 269 312 253 236 q 310 461 285 388 q 245 365 275 417 q 188 263 215 314 q 138 164 161 211 q 96 80 115 117 q 61 21 76 43 q 33 -1 46 -1 q -2 8 15 -1 q -33 32 -19 17 q -53 67 -46 47 q -61 110 -61 88 q -51 206 -61 146 q -23 338 -40 265 q 18 492 -6 411 q 68 651 42 572 q 123 802 94 731 q 178 928 151 874 q 230 1015 206 982 q 274 1047 254 1047 z "},"i":{"ha":306,"x_min":-40,"x_max":433,"o":"m 201 847 q 215 903 204 872 q 238 962 225 933 q 262 1011 250 990 q 281 1039 274 1032 q 318 1047 290 1049 q 373 1036 346 1044 q 417 1015 400 1028 q 419 989 433 1003 q 403 967 414 983 q 381 928 393 950 q 357 883 369 907 q 333 838 344 858 q 315 804 322 818 q 306 789 307 790 q 281 785 299 783 q 244 794 263 786 q 213 815 226 801 q 201 847 199 828 m 132 664 q 184 657 160 664 q 226 640 208 650 q 253 620 243 631 q 263 603 263 610 q 259 596 263 596 q 251 592 256 596 q 215 528 239 579 q 167 408 192 476 q 126 268 143 340 q 108 140 108 196 q 115 108 108 113 q 125 104 121 104 q 160 131 139 104 q 204 200 181 158 q 253 289 228 242 q 299 378 278 336 q 338 447 321 419 q 360 474 354 474 q 363 438 369 474 q 339 351 357 403 q 293 237 321 299 q 233 123 265 175 q 165 35 200 71 q 94 0 129 0 q -2 44 36 0 q -40 181 -40 88 q -32 270 -40 219 q -9 374 -24 321 q 24 480 6 428 q 61 573 42 532 q 99 639 81 614 q 132 664 117 664 z "},"j":{"ha":299,"x_min":-290,"x_max":407,"o":"m 183 176 q 235 268 208 217 q 286 365 263 319 q 328 442 310 411 q 353 474 346 474 q 358 449 361 474 q 342 384 354 424 q 311 295 331 344 q 267 196 292 246 q 163 38 218 99 q 51 -58 107 -22 q 20 -160 38 -112 q -22 -244 3 -208 q -81 -301 -47 -281 q -160 -322 -114 -322 q -219 -306 -192 -322 q -265 -264 -247 -289 q -286 -208 -282 -239 q -275 -149 -290 -178 q -241 -106 -261 -122 q -196 -77 -221 -89 q -142 -56 -171 -65 q -82 -36 -114 -47 q -59 69 -72 3 q -30 214 -46 136 q 4 372 -14 292 q 43 517 22 453 q 86 623 64 582 q 133 664 108 664 q 185 657 161 664 q 227 640 210 650 q 254 620 244 631 q 264 603 264 610 q 260 596 264 596 q 253 592 257 596 q 217 531 236 575 q 176 417 199 486 q 129 255 154 347 q 76 50 104 163 q 131 104 104 74 q 183 176 157 135 m 175 847 q 188 903 178 872 q 211 962 199 933 q 235 1011 224 990 q 254 1039 247 1032 q 292 1047 264 1049 q 347 1036 319 1044 q 390 1015 374 1028 q 393 989 407 1003 q 377 967 388 983 q 355 928 367 950 q 331 883 343 907 q 307 838 318 858 q 288 804 296 818 q 279 789 281 790 q 254 785 272 783 q 218 794 236 786 q 186 815 200 801 q 175 847 172 828 m -190 -250 q -147 -217 -167 -250 q -110 -137 -126 -185 q -143 -149 -129 -144 q -165 -161 -157 -154 q -191 -187 -181 -172 q -205 -217 -201 -203 q -205 -240 -208 -231 q -190 -250 -201 -250 z "},"k":{"ha":554,"x_min":-61,"x_max":618,"o":"m 274 1047 q 328 1038 301 1047 q 375 1017 354 1029 q 408 992 396 1004 q 421 975 421 981 q 416 968 421 968 q 407 964 411 968 q 343 872 379 936 q 269 725 307 808 q 198 548 232 642 q 140 369 164 454 q 160 417 147 388 q 190 479 172 446 q 231 547 208 513 q 282 609 254 582 q 342 653 310 636 q 413 671 375 671 q 492 633 465 671 q 517 542 518 594 q 499 458 515 503 q 455 374 483 413 q 387 311 426 336 q 301 286 347 286 q 309 255 301 283 q 328 194 317 226 q 353 134 340 161 q 375 107 365 107 q 392 113 385 107 q 410 133 399 119 q 447 190 426 156 q 488 262 467 224 q 528 338 508 300 q 564 406 547 375 q 592 455 581 436 q 608 474 604 474 q 610 435 618 474 q 583 341 603 397 q 535 220 564 285 q 471 104 506 156 q 408 29 440 58 q 343 0 375 0 q 268 20 299 0 q 217 69 238 40 q 185 134 197 99 q 165 199 172 169 q 155 248 158 228 q 147 268 151 268 q 121 199 135 244 q 92 110 107 154 q 63 32 78 65 q 33 -1 47 -1 q -2 8 15 -1 q -33 32 -19 17 q -53 67 -46 47 q -61 110 -61 88 q -43 251 -61 161 q 4 444 -25 340 q 70 656 33 549 q 144 850 107 763 q 215 992 181 938 q 274 1047 250 1047 m 197 339 q 256 362 224 339 q 317 418 289 385 q 363 489 344 451 q 382 556 382 526 q 368 583 382 583 q 317 551 347 583 q 258 478 288 519 q 206 397 229 436 q 178 342 183 357 q 197 339 192 339 z "},"l":{"ha":304,"x_min":-43,"x_max":421,"o":"m 274 1047 q 328 1038 301 1047 q 375 1017 354 1029 q 408 992 396 1004 q 421 975 421 981 q 416 968 421 968 q 407 964 411 968 q 347 878 379 936 q 281 746 314 821 q 216 585 247 671 q 160 417 185 500 q 122 262 136 335 q 107 140 107 189 q 113 109 107 114 q 122 104 119 104 q 157 131 136 104 q 202 200 178 158 q 251 289 226 242 q 298 378 276 336 q 335 447 319 419 q 358 474 351 474 q 360 438 367 474 q 336 351 354 403 q 290 237 318 299 q 230 123 263 175 q 162 35 197 71 q 92 0 126 0 q -5 44 33 0 q -43 182 -43 89 q -26 318 -43 233 q 19 499 -8 403 q 81 692 46 594 q 151 869 115 790 q 218 997 186 947 q 274 1047 250 1047 z "},"m":{"ha":894,"x_min":-64,"x_max":958,"o":"m 719 664 q 772 657 749 664 q 813 640 796 650 q 840 620 831 631 q 850 603 850 610 q 847 596 850 596 q 839 592 844 596 q 803 528 826 579 q 756 408 779 476 q 715 268 732 340 q 697 140 697 196 q 703 109 697 114 q 714 104 710 104 q 749 131 728 104 q 793 200 769 158 q 842 289 817 242 q 888 378 867 336 q 926 447 910 419 q 949 474 942 474 q 951 438 958 474 q 927 351 944 403 q 882 237 910 299 q 822 123 854 175 q 753 35 789 71 q 683 0 718 0 q 587 44 625 0 q 549 181 549 88 q 561 295 549 229 q 594 428 574 361 q 518 295 554 365 q 453 163 482 225 q 403 58 424 101 q 375 6 383 14 q 346 1 367 -3 q 303 22 325 6 q 266 63 282 38 q 250 122 250 89 q 267 293 250 210 q 307 454 285 376 q 218 317 258 392 q 146 175 178 242 q 93 61 114 108 q 64 6 72 14 q 34 1 56 -3 q -9 18 13 4 q -47 55 -31 32 q -64 107 -64 78 q -55 181 -64 136 q -33 277 -46 225 q -3 383 -19 329 q 26 485 13 438 q 48 569 39 532 q 57 622 57 606 q 60 655 57 646 q 86 664 63 664 q 120 660 97 664 q 166 647 143 656 q 206 625 189 639 q 224 593 224 611 q 209 541 224 582 q 174 444 194 500 q 130 322 153 388 q 92 196 107 257 q 138 290 111 239 q 194 392 164 340 q 255 493 224 444 q 315 580 286 542 q 370 641 344 618 q 415 664 396 664 q 468 657 444 664 q 509 640 492 650 q 536 620 526 631 q 546 603 546 610 q 542 596 546 596 q 535 592 539 596 q 503 538 524 581 q 461 435 482 494 q 422 310 440 376 q 396 188 403 244 q 445 273 418 224 q 501 375 472 322 q 560 479 531 428 q 619 572 590 531 q 673 638 647 613 q 719 664 699 664 z "},"n":{"ha":614,"x_min":-64,"x_max":678,"o":"m 224 593 q 209 540 224 582 q 175 439 194 497 q 134 313 156 381 q 99 183 113 246 q 146 277 118 225 q 205 382 174 329 q 269 486 236 435 q 334 576 303 538 q 392 640 365 615 q 439 664 419 664 q 492 657 468 664 q 533 641 515 650 q 560 622 550 632 q 569 603 569 611 q 567 597 569 596 q 558 592 564 597 q 522 528 546 579 q 475 408 499 476 q 434 268 451 340 q 417 140 417 196 q 423 109 417 114 q 433 104 429 104 q 468 131 447 104 q 513 200 489 158 q 561 289 536 242 q 608 378 586 336 q 645 447 629 419 q 668 474 661 474 q 671 438 678 474 q 647 351 664 403 q 601 237 629 299 q 541 123 574 175 q 473 35 508 71 q 403 0 438 0 q 306 44 344 0 q 268 182 268 89 q 285 317 268 238 q 328 471 303 396 q 235 333 278 408 q 160 188 193 257 q 103 69 126 119 q 68 7 79 18 q 38 2 60 -1 q -7 20 15 6 q -47 58 -29 35 q -64 110 -64 81 q -55 183 -64 139 q -33 279 -46 228 q -3 384 -19 331 q 26 485 13 438 q 48 569 39 533 q 57 622 57 606 q 64 655 57 646 q 94 664 71 664 q 127 660 106 664 q 170 647 149 656 q 208 626 192 639 q 224 593 224 613 z "},"o":{"ha":494,"x_min":-37,"x_max":518,"o":"m 386 224 q 340 135 365 176 q 284 63 314 93 q 217 14 254 32 q 138 -4 181 -4 q 13 49 63 -4 q -37 203 -37 101 q -16 365 -37 282 q 44 517 6 449 q 139 628 83 585 q 263 672 194 672 q 344 657 310 672 q 400 617 378 642 q 432 558 422 592 q 442 489 442 525 q 433 394 442 440 q 415 311 424 347 q 454 339 438 324 q 483 368 471 354 q 501 391 494 382 q 508 400 507 400 q 518 379 518 400 q 504 331 518 358 q 461 272 490 303 q 386 224 432 242 m 138 89 q 188 120 161 89 q 238 200 214 151 q 209 214 217 200 q 204 244 201 228 q 219 274 207 260 q 249 288 231 288 l 274 288 q 303 386 290 333 q 322 483 317 439 q 324 557 328 528 q 304 586 321 586 q 251 549 281 586 q 196 457 222 513 q 147 338 169 401 q 115 218 125 274 q 108 126 104 163 q 138 89 113 89 z "},"p":{"ha":567,"x_min":-132,"x_max":514,"o":"m 232 593 q 221 556 232 586 q 192 479 210 525 q 152 374 175 433 q 106 251 129 315 q 158 376 131 313 q 214 489 186 439 q 242 540 225 510 q 281 598 260 569 q 328 646 303 626 q 379 665 353 665 q 476 622 438 665 q 514 485 514 578 q 506 394 514 446 q 481 288 497 343 q 439 181 464 233 q 381 86 414 128 q 305 19 347 44 q 211 -7 263 -7 q 124 3 158 -7 q 67 44 89 14 q 28 -69 46 -14 q -2 -171 11 -124 q -24 -255 -15 -218 q -37 -312 -33 -292 q -56 -322 -40 -325 q -87 -305 -71 -319 q -118 -267 -104 -290 q -132 -214 -132 -243 q -117 -78 -132 -157 q -81 89 -103 1 q -33 265 -58 176 q 14 426 -8 353 q 51 553 36 500 q 65 622 65 606 q 72 655 65 646 q 103 664 79 664 q 135 660 114 664 q 178 647 157 656 q 216 626 200 639 q 232 593 232 613 m 349 561 q 318 539 338 561 q 276 481 299 517 q 228 399 253 444 q 178 306 203 353 q 134 213 154 258 q 100 132 114 167 q 115 86 100 101 q 149 71 131 71 q 195 93 171 69 q 244 154 219 117 q 290 240 268 192 q 328 337 311 288 q 356 433 346 386 q 365 513 365 479 q 363 545 365 529 q 349 561 360 561 z "},"q":{"ha":583,"x_min":-35,"x_max":592,"o":"m 461 617 q 514 610 490 617 q 555 594 538 603 q 582 574 572 585 q 592 556 592 564 q 588 549 592 549 q 581 544 585 550 q 530 458 557 514 q 476 329 503 401 q 422 176 449 257 q 374 17 396 96 q 423 91 400 61 q 461 121 446 121 q 453 87 471 121 q 408 -1 436 53 q 352 -122 381 -56 q 313 -253 324 -189 q 310 -277 311 -265 q 308 -308 308 -289 q 291 -317 308 -321 q 252 -299 274 -314 q 213 -258 231 -283 q 196 -204 196 -233 q 203 -117 196 -164 q 223 -18 211 -69 q 250 88 235 33 q 281 196 265 142 q 237 120 260 156 q 191 58 214 85 q 145 16 168 32 q 100 0 122 0 q 3 44 42 0 q -35 181 -35 88 q -26 271 -35 219 q -1 377 -18 322 q 40 485 15 432 q 99 579 65 538 q 174 647 132 621 q 268 672 217 672 q 366 651 331 672 q 424 589 401 629 q 461 617 447 617 m 131 104 q 161 127 142 104 q 203 188 181 150 q 250 271 225 225 q 299 363 275 317 q 344 449 322 408 q 381 517 365 490 q 363 570 378 546 q 331 594 347 594 q 284 572 308 594 q 235 511 260 549 q 190 426 211 474 q 151 328 168 378 q 124 233 133 279 q 114 153 114 186 q 117 120 114 136 q 131 104 119 104 z "},"r":{"ha":447,"x_min":-90,"x_max":511,"o":"m 101 182 q 114 292 101 231 q 143 411 126 354 q 176 511 160 468 q 199 565 192 554 q 194 574 200 571 q 178 581 188 578 q 156 588 168 585 q 132 593 144 590 q 83 463 103 514 q 47 372 64 411 q 15 299 31 333 q -22 218 -1 264 l -90 218 q -45 308 -68 257 q -1 412 -22 358 q 38 518 19 465 q 71 615 56 571 q 51 667 47 631 q 59 701 53 683 q 76 733 65 718 q 103 756 88 747 q 142 765 119 765 q 165 742 161 765 q 157 661 168 718 q 235 655 192 658 q 315 646 278 651 q 378 631 353 640 q 404 604 404 621 q 400 595 404 596 q 393 592 396 594 q 365 549 381 579 q 334 479 350 519 q 303 392 318 439 q 276 300 288 346 q 257 212 264 254 q 250 140 250 169 q 256 109 250 114 q 267 104 263 104 q 301 131 281 104 q 346 200 322 158 q 394 289 369 242 q 441 378 419 336 q 478 447 463 419 q 501 474 494 474 q 504 438 511 474 q 480 351 497 403 q 435 237 463 299 q 374 123 407 175 q 306 35 342 71 q 236 0 271 0 q 140 44 178 0 q 101 182 101 89 z "},"s":{"ha":369,"x_min":-97,"x_max":336,"o":"m 335 610 q 315 538 325 581 q 299 446 307 501 q 288 313 290 390 q 274 192 285 250 q 242 91 264 135 q 184 22 219 47 q 96 -4 149 -4 q 2 12 40 -4 q -58 53 -36 28 q -89 110 -81 78 q -93 174 -97 142 q -84 215 -90 197 q -71 236 -78 232 q -44 297 -60 260 q -9 379 -29 335 q 35 470 11 424 q 88 557 58 517 q 151 628 117 597 q 224 674 185 660 q 260 668 240 674 q 297 653 281 663 q 325 633 314 644 q 335 610 336 621 m 157 503 q 101 417 128 463 q 52 327 75 372 q 10 242 29 282 q -25 172 -8 201 q -15 144 -21 160 q -1 117 -10 129 q 22 95 8 104 q 54 86 35 86 q 99 110 82 86 q 124 173 115 135 q 137 259 133 211 q 142 353 140 307 q 147 439 144 399 q 157 503 149 479 z "},"t":{"ha":321,"x_min":-43,"x_max":421,"o":"m 274 1047 q 328 1038 301 1047 q 375 1017 354 1029 q 408 992 396 1004 q 421 975 421 981 q 416 968 421 968 q 407 964 411 968 q 336 861 375 932 q 260 699 297 790 q 264 697 260 697 q 294 696 268 697 q 330 697 319 696 q 343 699 340 699 q 346 701 346 700 q 350 703 346 703 q 354 689 356 703 q 344 658 353 675 q 320 628 335 642 q 285 614 306 614 q 272 615 281 614 q 255 616 264 615 q 238 617 246 617 q 226 618 229 618 q 180 486 201 553 q 142 358 158 419 q 116 242 125 296 q 107 149 107 188 q 110 124 107 133 q 119 111 114 115 q 128 106 124 107 q 133 104 132 104 q 172 131 149 104 q 219 200 194 158 q 269 289 244 242 q 317 378 294 336 q 355 447 339 419 q 378 474 371 474 q 380 438 386 474 q 355 351 374 403 q 308 237 336 299 q 245 123 279 175 q 173 35 211 71 q 96 0 135 0 q -3 44 38 0 q -43 182 -43 89 q -35 267 -43 217 q -12 378 -26 318 q 21 506 1 439 q 63 639 40 572 q 29 646 46 642 q 6 650 13 650 q -2 658 -1 650 q 3 674 -3 665 q 19 690 8 682 q 44 697 29 697 l 82 697 q 134 831 107 768 q 186 942 161 894 q 234 1019 211 990 q 274 1047 257 1047 z "},"u":{"ha":621,"x_min":-39,"x_max":685,"o":"m 132 664 q 185 657 161 664 q 226 640 208 650 q 253 620 243 631 q 263 603 263 610 q 260 596 263 596 q 251 592 257 596 q 215 528 239 579 q 168 408 192 476 q 127 268 144 340 q 110 140 110 196 q 116 109 110 114 q 126 104 122 104 q 164 136 140 104 q 214 214 188 168 q 267 312 240 260 q 315 404 293 364 q 347 501 329 454 q 382 584 364 547 q 417 642 400 621 q 447 664 433 664 q 500 657 476 664 q 541 640 524 650 q 568 620 558 631 q 578 603 578 610 q 574 596 578 596 q 567 592 571 596 q 531 528 554 579 q 483 408 507 476 q 441 268 458 340 q 424 140 424 196 q 431 109 424 114 q 440 104 438 104 q 475 131 454 104 q 519 200 496 158 q 568 289 543 242 q 615 378 593 336 q 652 447 636 419 q 675 474 668 474 q 678 438 685 474 q 654 351 672 403 q 608 237 636 299 q 548 123 581 175 q 480 35 515 71 q 410 0 444 0 q 313 44 351 0 q 275 181 275 88 l 275 197 q 233 122 256 158 q 188 59 211 86 q 142 16 165 32 q 96 0 118 0 q -1 44 38 0 q -39 181 -39 88 q -31 270 -39 219 q -8 374 -22 321 q 25 480 7 428 q 62 573 43 532 q 99 639 81 614 q 132 664 118 664 z "},"v":{"ha":486,"x_min":-25,"x_max":513,"o":"m 101 0 q 40 17 64 0 q 1 63 15 35 q -19 124 -14 90 q -25 190 -25 158 q -11 328 -25 254 q 23 471 3 403 q 66 590 43 539 q 107 657 89 640 q 140 663 115 664 q 192 655 165 661 q 238 640 218 649 q 258 624 258 631 q 238 578 258 621 q 193 469 218 535 q 145 326 168 403 q 114 179 122 249 q 115 124 110 144 q 131 104 119 104 q 152 122 138 104 q 185 172 167 140 q 227 244 204 203 q 274 335 250 286 q 335 469 308 407 q 378 578 361 532 q 405 653 396 625 q 414 686 414 682 q 431 690 415 693 q 465 678 447 688 q 498 656 483 669 q 511 625 513 642 q 485 534 507 593 q 431 406 464 475 q 356 265 399 336 q 270 134 314 193 q 183 38 226 75 q 101 0 139 0 z "},"w":{"ha":768,"x_min":-33,"x_max":794,"o":"m 383 0 q 320 18 346 0 q 278 62 294 36 q 256 117 263 88 q 249 171 249 147 q 181 44 214 88 q 107 0 147 0 q 46 15 72 0 q 2 56 19 29 q -24 116 -15 82 q -33 190 -33 150 q -17 332 -33 257 q 21 474 -1 407 q 67 590 43 540 q 108 657 92 640 q 142 663 117 664 q 193 655 167 661 q 240 640 219 649 q 258 624 260 631 q 239 578 258 621 q 195 469 219 535 q 148 326 171 403 q 117 179 125 249 q 117 126 113 146 q 132 106 121 106 q 169 144 146 106 q 219 238 193 182 q 272 357 246 294 q 317 469 297 419 q 338 530 326 500 q 361 586 350 560 q 383 631 372 613 q 403 657 394 650 q 435 663 411 664 q 486 655 460 661 q 533 640 513 649 q 553 624 554 631 q 533 578 553 621 q 490 469 514 535 q 442 326 465 403 q 410 179 418 249 q 408 126 406 146 q 426 106 411 106 q 480 165 442 106 q 565 322 518 224 q 625 458 600 394 q 666 572 650 522 q 690 651 682 621 q 697 686 697 682 q 713 690 697 693 q 748 678 729 688 q 781 656 767 669 q 793 625 794 642 q 769 534 789 593 q 719 406 750 475 q 648 265 688 336 q 564 134 608 193 q 473 38 519 75 q 383 0 426 0 z "},"x":{"ha":497,"x_min":-119,"x_max":560,"o":"m 296 0 q 245 10 267 0 q 207 42 224 19 q 176 101 190 65 q 146 192 161 138 q 74 117 108 153 q 13 53 40 82 q -35 5 -15 25 q -62 -22 -54 -15 q -83 -26 -72 -31 q -103 -12 -94 -22 q -115 8 -111 -3 q -115 22 -119 19 q -93 44 -114 24 q -39 98 -72 64 q 38 176 -6 132 q 129 268 82 219 q 113 361 121 311 q 97 459 106 411 q 76 546 88 507 q 50 606 65 585 q 39 613 46 611 q 26 615 32 614 q 15 620 19 617 q 13 633 11 624 q 27 647 13 642 q 60 657 42 653 q 99 663 79 661 q 128 664 118 664 q 189 644 163 664 q 233 592 215 625 q 263 515 251 558 q 282 425 275 472 q 365 510 324 468 q 438 585 406 551 q 489 641 469 619 q 510 665 508 663 q 525 661 515 668 q 542 643 535 654 q 552 619 550 632 q 542 600 554 607 q 513 572 536 596 q 454 513 489 549 q 377 433 419 478 q 292 344 335 389 q 313 178 306 235 q 338 118 319 121 q 374 167 354 135 q 416 240 394 200 q 459 321 438 279 q 499 397 481 363 q 531 452 517 431 q 550 474 544 474 q 553 438 560 474 q 529 351 547 403 q 484 237 511 299 q 426 123 457 175 q 360 35 394 71 q 296 0 326 0 z "},"y":{"ha":615,"x_min":-39,"x_max":678,"o":"m 569 592 q 534 531 553 575 q 493 417 515 486 q 446 255 471 347 q 393 50 421 163 q 447 104 421 74 q 500 176 474 135 q 552 268 525 217 q 603 365 579 319 q 644 442 626 411 q 669 474 663 474 q 674 449 678 474 q 659 384 671 424 q 628 295 647 344 q 583 196 608 246 q 479 38 535 99 q 368 -58 424 -22 q 337 -160 354 -112 q 294 -244 319 -208 q 236 -301 269 -281 q 157 -322 203 -322 q 97 -306 125 -322 q 52 -264 69 -289 q 31 -208 35 -239 q 42 -149 26 -178 q 76 -106 56 -122 q 120 -77 96 -89 q 173 -56 144 -65 q 233 -36 201 -47 q 258 94 249 31 q 286 218 267 157 q 242 137 265 176 q 195 67 219 97 q 146 18 171 36 q 96 0 121 0 q -1 44 38 0 q -39 181 -39 88 q -31 270 -39 219 q -8 374 -22 321 q 25 480 7 428 q 62 573 43 532 q 99 639 81 614 q 132 664 118 664 q 185 657 161 664 q 226 640 208 650 q 253 620 243 631 q 263 603 263 610 q 260 596 263 596 q 251 592 257 596 q 215 528 239 579 q 168 408 192 476 q 127 268 144 340 q 110 140 110 196 q 116 109 110 114 q 126 104 122 104 q 155 124 138 104 q 192 176 172 144 q 233 248 211 208 q 274 326 254 288 q 312 399 294 365 q 342 451 329 432 q 367 536 354 497 q 394 603 381 575 q 421 648 407 632 q 450 664 435 664 q 502 657 478 664 q 544 640 526 650 q 571 620 561 631 q 581 603 581 610 q 577 596 581 596 q 569 592 574 596 m 151 -161 q 126 -187 136 -172 q 112 -217 115 -203 q 112 -240 108 -231 q 126 -250 115 -250 q 170 -217 150 -250 q 206 -137 190 -185 q 173 -149 186 -144 q 151 -161 160 -154 z "},"z":{"ha":493,"x_min":-90,"x_max":557,"o":"m 282 0 q 196 1 239 1 q 117 1 153 1 q 57 1 81 1 q 29 1 33 0 q 9 12 21 3 q -14 35 -3 21 q -33 65 -25 49 q -37 100 -40 82 q 6 192 -33 133 q 102 317 46 250 q 222 449 158 383 q 338 565 285 515 q 263 561 301 561 q 181 563 217 561 q 129 572 146 564 q 88 467 110 522 q 43 363 65 413 q 3 275 21 314 q -22 218 -14 236 l -90 218 q -44 311 -68 257 q 2 423 -21 365 q 44 538 25 481 q 79 639 64 594 q 98 670 86 664 q 122 671 110 676 q 178 658 139 665 q 265 650 217 650 q 388 657 338 650 q 443 664 439 664 q 466 656 451 664 q 495 635 481 647 q 519 610 510 624 q 528 585 529 596 q 498 529 525 565 q 429 447 471 493 q 337 348 388 400 q 236 246 286 296 q 206 214 229 239 q 163 162 183 189 q 135 113 143 135 q 151 92 126 92 q 193 92 165 92 q 251 94 221 92 q 320 126 286 97 q 385 197 354 156 q 442 288 415 239 q 489 378 468 336 q 525 447 510 419 q 547 474 540 474 q 550 438 557 474 q 525 351 543 403 q 480 237 507 299 q 420 123 453 175 q 351 35 388 71 q 282 0 315 0 z "},"A":{"ha":881,"x_min":-115,"x_max":958,"o":"m 378 418 q 502 598 440 507 q 619 767 564 689 q 722 906 675 846 q 801 996 768 967 q 838 997 811 1006 q 892 974 865 989 q 939 943 919 960 q 951 921 958 926 q 926 869 947 918 q 874 744 904 821 q 810 569 844 667 q 750 371 776 472 q 754 369 751 369 q 769 346 765 364 q 770 309 772 328 q 763 277 768 290 q 753 271 758 264 q 744 276 750 274 q 731 282 739 279 q 716 210 722 246 q 706 140 710 174 q 702 37 697 72 q 716 -15 707 1 q 733 -35 725 -31 q 740 -49 742 -40 q 722 -61 739 -56 q 681 -64 706 -67 q 628 -48 656 -61 q 581 -3 601 -35 q 549 84 560 29 q 549 222 539 139 q 555 267 551 244 q 563 314 558 290 q 506 319 535 317 q 446 324 476 322 q 326 156 385 236 q 211 15 267 75 q 105 -82 156 -46 q 13 -118 54 -118 q -54 -101 -26 -118 q -97 -64 -82 -85 q -114 -26 -112 -43 q -103 -10 -115 -10 q -96 -14 -99 -10 q -89 -22 -93 -18 q -78 -31 -85 -26 q -58 -35 -71 -35 q 17 -6 -25 -35 q 106 71 58 22 q 206 185 154 119 q 313 325 258 250 q 206 313 250 322 q 133 292 163 304 q 85 267 103 279 q 58 244 68 254 q 43 226 47 233 q 37 213 39 218 q 33 204 35 207 q 25 201 32 201 q 4 213 13 201 q -1 251 -4 225 q 98 376 8 336 q 378 418 188 415 m 507 414 q 583 406 549 411 q 653 635 613 522 q 580 526 617 582 q 507 414 543 471 z "},"B":{"ha":711,"x_min":-56,"x_max":768,"o":"m 482 999 q 619 969 563 999 q 709 896 675 940 q 756 797 743 851 q 763 693 768 743 q 732 594 756 640 q 674 510 708 549 q 597 442 639 472 q 511 390 554 413 q 574 287 554 346 q 572 167 593 228 q 517 73 553 114 q 435 1 481 32 q 340 -49 390 -29 q 244 -80 290 -69 q 160 -92 199 -90 q 99 -89 121 -94 q 43 -51 65 -82 q 13 16 21 -19 q 15 81 6 51 q 54 117 24 111 q 46 103 53 114 q 35 81 39 93 q 33 57 31 68 q 53 42 36 46 q 142 40 90 32 q 247 67 193 49 q 351 114 300 86 q 438 173 401 142 q 492 236 475 204 q 496 294 508 268 q 461 327 485 314 q 406 347 438 340 q 324 336 353 332 q 289 347 307 338 q 284 347 286 347 q 279 346 282 346 q 228 209 249 274 q 204 101 208 144 q 187 90 201 86 q 154 106 172 93 q 121 137 136 119 q 103 165 106 154 q 104 237 96 186 q 129 351 113 288 q 169 485 146 415 q 217 615 193 554 q 264 722 242 676 q 301 779 286 767 q 338 782 310 786 q 395 768 365 778 q 447 748 425 758 q 463 732 468 738 q 430 689 447 717 q 394 625 413 661 q 356 546 375 589 q 319 457 338 503 q 407 492 361 467 q 497 550 453 517 q 578 622 540 583 q 641 697 617 660 q 674 768 665 735 q 667 825 682 801 q 593 867 644 857 q 476 869 542 878 q 340 834 411 860 q 206 770 268 808 q 97 682 143 732 q 38 575 51 632 q 18 567 35 561 q -15 591 1 572 q -44 637 -32 610 q -49 692 -56 664 q 20 812 -33 756 q 148 910 74 868 q 310 975 222 951 q 482 999 397 999 z "},"C":{"ha":551,"x_min":-19,"x_max":617,"o":"m 331 419 q 336 439 325 419 q 367 490 347 458 q 413 561 388 521 q 463 644 439 601 q 503 727 486 686 q 525 800 521 768 q 507 824 529 824 q 431 794 472 824 q 350 715 390 765 q 272 599 310 665 q 204 460 233 533 q 158 312 175 388 q 140 168 140 236 q 163 83 140 114 q 229 53 185 53 q 305 73 267 53 q 379 125 343 93 q 447 196 415 157 q 503 272 479 235 q 542 341 528 310 q 558 389 557 372 q 571 382 565 389 q 579 368 576 375 q 586 349 583 360 q 572 287 586 326 q 533 201 558 247 q 471 109 507 156 q 390 24 435 63 q 295 -38 346 -14 q 189 -62 244 -62 q 101 -41 140 -62 q 35 19 63 -19 q -6 111 8 57 q -19 231 -19 165 q -1 392 -19 308 q 49 556 17 475 q 125 708 81 636 q 221 835 169 781 q 330 922 272 890 q 446 954 388 954 q 529 935 496 954 q 582 888 563 915 q 609 830 601 861 q 617 776 617 799 q 596 690 617 733 q 544 608 575 647 q 477 534 514 568 q 409 474 440 500 q 356 434 378 449 q 331 419 333 419 z "},"D":{"ha":804,"x_min":-24,"x_max":833,"o":"m 469 990 q 646 955 575 990 q 759 866 717 919 q 817 752 801 813 q 828 642 833 692 q 788 494 819 572 q 708 338 756 415 q 599 190 660 261 q 472 64 538 118 q 339 -23 406 10 q 211 -56 272 -56 q 181 -47 200 -56 q 142 -24 161 -37 q 108 3 122 -11 q 93 29 93 18 q 98 109 86 50 q 132 245 110 168 q 184 408 154 322 q 243 569 214 494 q 299 697 272 643 q 339 764 325 750 q 375 767 347 771 q 433 753 403 763 q 484 733 463 744 q 500 717 506 722 q 462 661 483 700 q 416 569 440 622 q 367 453 392 517 q 318 326 342 390 q 275 199 294 261 q 242 85 256 136 q 363 140 301 93 q 481 256 425 188 q 585 404 538 324 q 663 561 632 485 q 702 701 693 638 q 693 797 711 764 q 624 846 674 832 q 509 855 574 860 q 373 828 444 850 q 238 769 301 806 q 129 685 175 733 q 69 579 83 636 q 49 571 65 565 q 17 595 33 576 q -12 641 0 614 q -17 696 -24 668 q 42 814 -1 760 q 151 907 86 868 q 297 968 215 946 q 469 990 379 990 z "},"E":{"ha":588,"x_min":-35,"x_max":631,"o":"m 507 993 q 561 976 538 994 q 600 934 585 958 q 623 885 615 910 q 629 846 631 860 q 602 798 626 822 q 549 754 578 774 q 499 724 521 735 q 476 718 476 713 q 494 744 476 721 q 531 797 511 768 q 565 851 550 825 q 574 882 579 876 q 535 880 567 890 q 467 842 503 869 q 399 773 431 815 q 363 675 368 731 q 368 635 360 653 q 423 618 394 631 q 474 592 451 606 q 512 565 497 578 q 526 546 526 551 q 520 521 524 526 q 510 517 517 515 q 492 523 503 518 q 468 528 482 528 q 396 508 435 528 q 319 456 357 489 q 245 383 281 424 q 182 299 210 342 q 138 214 154 256 q 122 140 122 172 q 142 82 122 103 q 200 61 161 61 q 283 81 239 61 q 372 133 328 101 q 455 204 415 165 q 526 281 494 243 q 576 349 557 318 q 597 397 594 381 q 610 390 604 397 q 618 376 615 383 q 624 357 622 368 q 603 299 624 336 q 549 216 583 261 q 468 124 514 171 q 372 38 422 76 q 268 -24 321 0 q 167 -49 215 -49 q 97 -38 133 -49 q 32 -3 61 -28 q -16 65 3 22 q -35 172 -35 107 q -4 308 -35 236 q 73 443 26 379 q 177 556 119 507 q 289 625 235 606 q 240 689 258 654 q 226 763 222 724 q 254 828 229 789 q 318 905 279 868 q 406 967 357 942 q 507 993 454 993 z "},"F":{"ha":733,"x_min":1,"x_max":738,"o":"m 449 431 q 507 584 476 506 q 560 729 538 663 q 595 842 583 796 q 599 899 607 889 q 551 905 588 911 q 464 878 514 899 q 358 824 414 857 q 253 747 301 790 q 171 654 206 704 q 131 550 136 604 q 133 497 126 514 q 146 471 139 479 q 157 458 153 463 q 153 447 161 454 q 119 451 144 440 q 67 489 93 463 q 21 553 40 515 q 7 638 1 592 q 43 731 13 686 q 121 816 74 776 q 226 889 168 856 q 343 945 283 922 q 459 981 403 968 q 560 994 515 994 q 646 980 611 994 q 701 942 681 965 q 729 891 721 919 q 738 836 738 863 q 726 751 738 800 q 698 647 715 703 q 658 531 681 592 q 615 413 636 471 q 628 408 626 410 q 640 384 638 400 q 640 352 642 368 q 633 325 638 336 q 626 318 629 314 q 613 326 624 322 q 589 332 603 329 q 530 158 557 244 q 488 4 503 72 q 486 -20 483 -15 q 488 -32 489 -25 q 481 -41 488 -39 q 468 -43 475 -43 q 433 -35 456 -43 q 390 -12 411 -26 q 353 20 368 1 q 340 61 338 39 q 367 192 347 119 q 415 342 388 264 q 319 319 354 336 q 265 285 285 303 q 238 255 246 268 q 219 242 229 242 q 203 253 211 242 q 199 290 196 265 q 219 358 203 332 q 265 401 235 385 q 340 423 294 417 q 449 431 385 429 z "},"G":{"ha":682,"x_min":-18,"x_max":692,"o":"m 396 408 q 451 410 431 408 q 489 413 471 411 q 531 417 507 415 q 601 418 556 418 q 624 399 618 418 q 626 359 631 381 q 610 319 622 338 q 581 300 599 300 l 575 300 q 518 159 547 244 q 478 -28 489 74 q 482 -115 471 -83 q 504 -162 493 -147 q 519 -182 515 -178 q 500 -186 522 -186 q 385 -128 414 -186 q 367 29 356 -71 q 372 70 369 46 q 378 110 375 94 q 333 54 358 82 q 280 3 308 26 q 223 -34 251 -19 q 168 -49 194 -49 q 87 -26 122 -49 q 28 33 51 -4 q -6 119 6 71 q -18 221 -18 168 q 6 399 -18 308 q 69 576 29 490 q 162 737 108 661 q 275 869 215 813 q 397 959 335 926 q 518 992 460 992 q 609 971 574 992 q 663 921 644 950 q 687 859 682 892 q 689 804 692 826 q 668 720 689 763 q 617 640 647 678 q 549 568 586 601 q 481 510 513 535 q 428 471 450 485 q 403 457 406 457 q 408 476 397 457 q 440 528 419 496 q 487 601 461 560 q 536 683 513 642 q 577 765 560 725 q 597 838 594 806 q 579 861 601 861 q 499 827 544 861 q 404 736 453 793 q 309 606 356 679 q 226 453 263 532 q 166 297 189 375 q 143 154 143 219 q 160 92 143 115 q 204 68 176 68 q 256 89 228 68 q 314 143 285 110 q 372 218 343 176 q 425 303 400 260 q 399 305 410 304 q 376 306 388 306 q 299 332 318 306 q 286 408 279 358 q 296 438 289 429 q 311 447 303 447 q 325 441 322 447 q 333 428 328 435 q 351 415 339 421 q 396 408 364 408 z "},"H":{"ha":875,"x_min":-8,"x_max":964,"o":"m 817 993 q 871 984 844 993 q 918 963 897 975 q 951 938 939 950 q 964 921 964 926 q 959 914 964 914 q 950 910 954 914 q 899 836 926 886 q 842 721 871 786 q 785 579 814 656 q 732 426 757 503 l 742 426 q 750 412 749 426 q 749 380 751 397 q 738 348 746 363 q 718 333 731 333 l 704 333 q 663 174 678 246 q 647 65 647 103 q 653 34 647 39 q 663 29 660 29 q 699 62 676 29 q 747 144 721 94 q 801 251 774 193 q 853 358 829 308 q 894 440 876 407 q 918 472 911 472 q 919 432 926 472 q 893 331 913 392 q 844 199 874 269 q 779 67 815 128 q 702 -35 743 6 q 621 -75 661 -75 q 531 -32 564 -75 q 497 86 497 11 q 510 191 497 125 q 542 339 522 257 q 445 342 490 340 q 382 344 400 343 q 325 166 351 253 q 283 11 299 79 q 281 -13 279 -8 q 283 -25 283 -18 q 276 -34 282 -32 q 263 -36 269 -36 q 230 -31 250 -36 q 190 -13 210 -25 q 156 18 171 -1 q 142 65 142 38 q 160 184 142 114 q 200 319 179 254 q 192 326 193 315 q 193 343 192 336 q 204 389 196 371 q 235 421 213 407 q 293 582 263 500 q 347 732 324 664 q 384 847 371 800 q 389 901 397 893 q 365 899 385 906 q 318 873 346 892 q 258 826 290 854 q 198 759 226 797 q 148 674 169 721 q 121 574 126 628 q 123 519 117 538 q 136 493 129 501 q 147 481 143 485 q 143 469 151 476 q 109 474 135 463 q 57 511 83 485 q 11 576 31 538 q -3 660 -8 614 q 52 794 6 732 q 160 899 99 856 q 286 968 221 943 q 400 993 351 993 q 459 981 433 993 q 501 947 485 968 q 527 900 518 926 q 536 844 536 874 q 524 765 536 811 q 495 666 513 719 q 456 553 478 613 q 414 435 435 494 q 475 432 432 433 q 567 429 518 431 q 628 628 594 528 q 697 810 663 729 q 763 942 732 892 q 817 993 794 993 z "},"I":{"ha":490,"x_min":-4,"x_max":539,"o":"m 1 653 q 31 745 7 701 q 88 827 54 789 q 164 895 122 865 q 249 947 206 925 q 332 980 292 968 q 404 992 372 992 q 464 979 439 992 q 506 946 489 967 q 531 898 522 925 q 539 843 539 871 q 524 756 539 813 q 487 626 510 699 q 435 469 464 553 q 379 303 407 386 q 328 144 351 221 q 292 7 304 67 q 290 -17 288 -12 q 292 -29 292 -22 q 284 -38 290 -36 q 271 -40 278 -40 q 237 -32 258 -40 q 194 -9 215 -24 q 158 24 174 6 q 143 64 143 43 q 164 174 143 100 q 215 337 185 247 q 281 522 246 426 q 343 699 315 618 q 386 836 371 781 q 393 901 401 892 q 347 888 386 908 q 262 822 308 867 q 175 713 215 778 q 125 567 135 647 q 127 513 121 531 q 140 486 133 494 q 151 474 147 478 q 147 463 156 469 q 113 467 139 456 q 61 504 88 478 q 15 569 35 531 q 1 653 -4 607 z "},"J":{"ha":719,"x_min":-87,"x_max":707,"o":"m 704 714 q 686 533 707 632 q 632 342 665 435 q 666 341 653 349 q 685 321 679 333 q 689 297 690 308 q 681 286 688 286 q 608 282 646 286 q 492 55 561 164 q 344 -137 424 -54 q 183 -271 265 -221 q 28 -321 101 -321 q -8 -315 13 -321 q -46 -293 -28 -308 q -76 -253 -64 -278 q -87 -190 -87 -228 q -53 -67 -87 -140 q 47 82 -19 7 q 212 222 114 157 q 438 319 310 288 q 493 473 467 390 q 539 632 519 556 q 553 695 543 651 q 567 783 563 739 q 564 861 571 828 q 529 894 557 894 q 482 877 511 894 q 419 829 453 860 q 349 759 385 799 q 284 675 314 719 q 233 584 254 631 q 207 494 211 538 q 208 447 203 465 q 221 417 214 428 q 232 400 228 406 q 231 389 236 394 q 194 393 221 381 q 141 433 168 406 q 95 499 114 460 q 82 582 76 538 q 107 670 86 624 q 160 762 128 717 q 231 848 192 807 q 315 920 271 889 q 403 970 358 951 q 488 989 447 989 q 590 964 549 989 q 656 899 631 939 q 692 810 681 860 q 704 714 703 761 m 392 218 q 290 172 339 201 q 198 103 240 142 q 121 24 156 65 q 61 -57 86 -18 q 23 -129 36 -96 q 10 -183 10 -162 q 14 -203 10 -192 q 40 -215 18 -215 q 115 -183 72 -215 q 203 -92 157 -150 q 299 44 250 -35 q 392 218 347 124 z "},"K":{"ha":796,"x_min":-6,"x_max":993,"o":"m 789 -249 q 722 -221 756 -249 q 656 -146 689 -193 q 594 -39 624 -99 q 538 86 564 21 q 493 215 513 151 q 463 333 474 279 q 396 233 426 282 q 342 138 365 183 q 305 54 319 93 q 286 -14 290 15 l 286 -29 l 286 -31 q 277 -38 283 -36 q 265 -40 271 -40 q 232 -32 253 -40 q 190 -10 211 -24 q 154 23 169 4 q 139 64 139 42 q 151 143 139 93 q 183 256 163 193 q 227 389 203 318 q 276 529 251 460 q 324 664 301 599 q 364 781 347 729 q 388 866 381 832 q 389 907 394 900 q 344 893 382 914 q 260 827 306 872 q 174 717 214 782 q 124 571 133 651 q 125 517 119 535 q 138 490 131 499 q 150 478 146 482 q 146 467 154 474 q 112 471 138 460 q 59 508 86 482 q 13 573 32 535 q 0 657 -6 611 q 54 792 8 729 q 162 900 100 854 q 289 972 224 946 q 401 997 354 997 q 498 958 460 997 q 536 849 536 918 q 526 780 536 821 q 500 690 517 739 q 463 586 483 642 q 419 472 442 531 q 549 656 481 565 q 683 817 618 746 q 801 933 747 889 q 888 982 856 978 q 927 972 908 985 q 960 942 946 960 q 984 907 975 925 q 993 881 993 889 q 987 869 993 869 q 969 867 981 868 q 901 831 944 864 q 802 743 857 797 q 686 619 747 689 q 565 474 625 550 q 601 366 579 428 q 648 238 622 304 q 703 105 674 171 q 765 -13 733 39 q 830 -99 797 -65 q 896 -135 863 -132 q 924 -128 913 -136 q 942 -110 935 -119 q 953 -92 949 -100 q 957 -83 957 -83 q 974 -94 968 -85 q 974 -129 979 -104 q 949 -172 969 -150 q 899 -210 928 -193 q 841 -238 871 -228 q 789 -249 811 -249 z "},"L":{"ha":567,"x_min":4,"x_max":685,"o":"m 121 -8 l 136 -8 q 161 72 143 19 q 203 191 179 125 q 253 333 226 257 q 307 485 281 410 q 356 633 333 561 q 394 761 379 704 q 415 856 410 818 q 411 903 421 893 q 365 889 404 910 q 280 824 326 868 q 193 715 233 779 q 143 569 153 650 q 145 515 139 533 q 158 489 151 497 q 169 476 165 481 q 165 465 174 472 q 131 469 157 458 q 79 507 106 481 q 33 572 53 533 q 19 656 14 610 q 48 748 25 704 q 106 829 71 792 q 182 897 140 867 q 267 949 224 928 q 350 981 310 969 q 422 993 390 993 q 521 951 485 993 q 557 844 557 910 q 543 733 557 800 q 507 586 529 665 q 457 422 485 507 q 401 258 429 338 q 349 110 374 178 q 307 -4 324 42 q 397 -6 344 -4 q 522 -14 449 -8 q 651 -73 617 -22 q 671 -242 685 -124 q 662 -258 669 -254 q 647 -261 654 -262 q 633 -254 639 -260 q 628 -240 626 -249 q 596 -187 631 -210 q 506 -151 561 -165 q 385 -128 451 -136 q 259 -115 318 -119 q 156 -110 200 -111 q 103 -110 113 -110 q 24 -84 44 -110 q 11 -8 4 -58 q 21 22 14 13 q 36 31 28 31 q 51 26 47 31 q 59 14 54 21 q 77 1 64 7 q 121 -8 90 -6 z "},"M":{"ha":1049,"x_min":-233,"x_max":1122,"o":"m -175 -83 q -76 -31 -131 -83 q 38 108 -22 22 q 158 303 97 194 q 278 522 219 411 q 388 736 336 633 q 482 914 440 839 q 497 952 494 938 q 500 976 500 967 q 501 992 500 985 q 508 1006 501 999 q 553 1010 521 1018 q 617 987 585 1003 q 672 953 650 971 q 689 931 694 936 q 667 872 685 926 q 624 730 649 817 q 574 534 600 643 q 531 315 549 425 q 595 418 560 361 q 668 535 631 475 q 743 657 706 596 q 815 773 781 718 q 881 871 850 828 q 935 940 911 914 q 951 960 942 951 q 975 971 961 968 q 1031 960 1004 969 q 1078 939 1057 951 q 1110 915 1099 926 q 1122 899 1122 904 q 1117 892 1122 892 q 1108 888 1113 892 q 1049 799 1081 861 q 986 658 1018 738 q 924 491 954 579 q 872 320 894 403 q 835 169 849 238 q 821 65 821 101 q 827 34 821 39 q 836 29 833 29 q 872 62 850 29 q 921 144 894 94 q 975 251 947 193 q 1026 358 1003 308 q 1067 440 1050 407 q 1092 472 1085 472 q 1094 432 1101 472 q 1068 331 1088 392 q 1019 199 1049 269 q 954 67 990 128 q 877 -35 918 6 q 794 -75 836 -75 q 704 -32 738 -75 q 671 86 671 11 q 678 171 671 121 q 697 279 685 221 q 726 401 710 338 q 763 531 743 465 q 667 368 711 444 q 587 228 622 292 q 527 117 551 165 q 493 40 503 69 q 464 31 489 29 q 411 47 439 33 q 360 84 383 61 q 338 139 338 107 q 345 247 338 190 q 365 361 353 303 q 391 478 376 419 q 419 596 406 538 q 332 420 376 510 q 242 246 288 331 q 152 86 197 161 q 63 -46 107 11 q -23 -135 19 -103 q -106 -168 -65 -168 q -171 -151 -143 -168 q -214 -113 -199 -133 q -231 -76 -229 -93 q -219 -58 -233 -58 q -212 -62 -215 -58 q -206 -71 -210 -67 q -194 -79 -201 -75 q -175 -83 -187 -83 z "},"N":{"ha":917,"x_min":-4,"x_max":1003,"o":"m 856 993 q 910 984 883 993 q 957 963 936 975 q 990 938 978 950 q 1003 921 1003 926 q 998 914 1003 914 q 989 910 993 914 q 928 819 961 882 q 863 676 896 757 q 798 502 829 594 q 742 325 767 410 q 702 171 717 240 q 688 65 688 101 q 694 34 688 39 q 703 29 700 29 q 739 62 717 29 q 788 144 761 94 q 842 251 814 193 q 893 358 869 308 q 934 440 917 407 q 958 472 951 472 q 960 432 967 472 q 935 331 954 392 q 886 199 915 269 q 821 67 857 128 q 744 -35 785 6 q 661 -75 703 -75 q 571 -32 604 -75 q 538 86 538 11 q 551 213 538 135 q 589 381 565 290 q 643 565 613 471 q 706 742 674 660 q 611 593 660 676 q 516 423 563 510 q 428 253 469 336 q 354 106 386 171 q 303 2 322 42 q 282 -37 283 -37 q 249 -33 269 -37 q 210 -15 229 -28 q 176 17 190 -3 q 161 69 161 38 q 181 216 161 132 q 228 389 200 300 q 290 565 257 478 q 348 723 322 651 q 388 842 374 794 q 393 899 401 889 q 369 895 389 903 q 322 869 350 888 q 263 821 294 850 q 202 753 231 792 q 152 669 174 715 q 125 568 131 622 q 126 515 121 532 q 140 489 132 497 q 151 476 147 481 q 147 465 156 472 q 113 469 139 458 q 60 507 88 481 q 15 572 33 533 q 1 656 -4 610 q 30 748 7 704 q 88 829 53 792 q 164 897 122 867 q 249 948 206 926 q 333 981 292 969 q 406 992 374 992 q 455 983 431 992 q 499 955 479 974 q 530 909 518 936 q 542 844 542 882 q 528 765 542 815 q 496 656 515 715 q 453 535 476 597 q 410 418 429 472 q 377 324 390 364 q 364 269 364 283 q 435 412 393 333 q 523 570 476 490 q 618 726 569 650 q 711 862 667 803 q 793 957 756 921 q 856 993 831 993 z "},"O":{"ha":785,"x_min":-10,"x_max":779,"o":"m 306 -71 q 249 -62 282 -71 q 187 -33 217 -54 q 135 22 157 -12 q 114 110 114 57 l 114 114 q 72 135 93 121 q 32 169 50 149 q 3 217 14 190 q -8 278 -8 244 q 13 441 -10 357 q 75 604 36 525 q 166 753 114 683 q 276 876 218 824 q 397 958 335 928 q 515 989 458 989 q 708 909 636 989 q 779 671 779 829 q 760 528 779 608 q 706 367 740 449 q 625 206 671 285 q 526 65 579 126 q 417 -33 474 4 q 306 -71 361 -71 m 371 488 q 339 441 360 479 q 297 350 318 403 q 259 238 276 297 q 238 126 242 178 q 237 112 238 122 q 238 90 236 101 q 246 69 240 78 q 263 60 251 60 q 340 95 299 60 q 423 188 382 131 q 502 319 464 246 q 570 466 540 392 q 617 610 600 540 q 633 729 633 679 q 628 780 633 756 q 611 823 622 804 q 583 853 600 842 q 542 865 565 865 q 449 837 497 865 q 355 761 401 808 q 266 651 308 714 q 192 519 224 589 q 143 379 161 450 q 126 244 125 308 q 126 232 124 238 q 160 353 139 293 q 205 460 182 413 q 248 538 228 508 q 276 568 268 568 q 322 557 301 568 q 355 532 342 546 q 372 505 368 518 q 371 488 376 492 z "},"P":{"ha":728,"x_min":-22,"x_max":808,"o":"m 94 25 q 108 103 94 46 q 142 238 121 161 q 189 398 163 314 q 242 556 215 482 q 291 682 268 629 q 329 749 314 735 q 365 751 338 756 q 423 737 393 746 q 474 717 453 728 q 490 700 496 706 q 460 658 476 688 q 425 588 443 628 q 389 503 407 549 q 354 415 371 458 q 442 454 396 426 q 531 518 488 482 q 613 596 575 554 q 674 678 650 638 q 706 753 699 718 q 699 813 714 789 q 624 858 675 847 q 507 861 572 869 q 370 826 442 853 q 237 760 299 800 q 129 670 175 721 q 69 563 83 619 q 50 555 67 549 q 17 579 33 561 q -11 624 0 597 q -15 679 -22 651 q 59 802 0 743 q 201 905 118 861 q 381 972 283 949 q 571 986 478 994 q 679 951 632 981 q 757 879 726 922 q 798 784 788 836 q 796 681 808 732 q 744 553 778 610 q 669 453 711 497 q 580 376 626 408 q 489 325 533 344 q 407 297 444 306 q 346 292 369 289 q 315 300 328 294 q 283 198 299 249 q 257 102 268 147 q 238 19 246 57 q 226 -46 229 -19 q 204 -60 225 -61 q 159 -46 183 -58 q 115 -14 135 -33 q 94 25 94 6 z "},"Q":{"ha":789,"x_min":-3,"x_max":782,"o":"m 532 67 q 594 -33 561 8 q 664 -74 628 -74 q 691 -69 683 -74 q 706 -74 699 -64 q 705 -91 710 -78 q 687 -117 700 -104 q 653 -142 674 -131 q 604 -153 632 -153 q 492 -122 540 -153 q 410 -44 444 -90 q 360 -63 389 -57 q 313 -69 332 -69 q 256 -63 289 -69 q 193 -37 224 -57 q 142 17 163 -18 q 121 111 121 53 q 121 115 121 115 q 77 136 99 122 q 38 171 56 150 q 10 219 21 192 q -1 279 -1 246 q 19 442 -3 358 q 77 606 40 526 q 165 756 114 686 q 274 879 215 826 q 395 963 332 932 q 521 993 458 993 q 622 973 575 993 q 705 915 669 953 q 761 819 740 876 q 782 689 782 763 q 761 526 782 611 q 706 358 740 440 q 626 200 671 275 q 532 67 581 125 m 465 244 q 526 342 494 283 q 582 469 557 401 q 623 606 607 538 q 639 733 639 675 q 615 831 639 793 q 547 869 592 869 q 455 841 503 869 q 360 765 407 813 q 272 654 314 717 q 199 522 231 592 q 150 381 168 453 q 133 246 132 310 l 132 239 q 162 350 143 296 q 200 447 181 404 q 238 516 219 490 q 267 542 256 542 q 306 531 288 542 q 338 506 325 519 q 356 478 351 492 q 356 461 361 465 q 326 419 344 453 q 290 337 308 385 q 258 234 272 289 q 239 128 243 179 q 239 113 239 124 q 242 91 239 103 q 252 70 246 79 q 269 61 258 61 q 339 90 301 61 q 317 176 324 136 q 313 238 310 217 q 337 274 314 254 q 386 306 360 293 q 433 323 413 319 q 451 311 453 326 q 455 287 451 304 q 465 244 458 269 z "},"R":{"ha":758,"x_min":-17,"x_max":804,"o":"m 536 1006 q 732 937 660 1006 q 804 735 804 868 q 781 613 804 669 q 721 508 758 556 q 637 422 683 460 q 544 357 590 385 q 454 313 497 329 q 382 293 411 297 q 449 172 411 235 q 528 56 488 108 q 606 -31 568 4 q 674 -67 644 -65 q 701 -60 690 -68 q 720 -42 713 -51 q 731 -24 728 -32 q 735 -15 735 -15 q 751 -26 746 -17 q 751 -61 757 -36 q 726 -103 747 -82 q 677 -142 706 -125 q 619 -170 649 -160 q 567 -181 589 -181 q 483 -147 524 -181 q 405 -58 442 -112 q 337 63 368 -4 q 282 194 306 129 q 246 58 261 121 q 226 -46 231 -6 q 203 -56 224 -61 q 158 -37 182 -51 q 113 -3 133 -22 q 93 32 93 17 q 107 113 93 54 q 143 248 121 172 q 192 407 165 324 q 247 563 219 490 q 297 688 274 636 q 336 754 321 740 q 372 756 344 761 q 430 742 400 751 q 481 722 460 733 q 497 706 503 711 q 467 663 485 693 q 429 592 449 632 q 391 506 410 551 q 356 417 372 460 q 444 459 397 429 q 534 528 490 489 q 616 610 578 567 q 680 693 654 653 q 713 767 706 733 q 706 818 721 800 q 624 860 678 850 q 506 861 571 869 q 370 827 440 853 q 240 763 300 801 q 135 675 179 725 q 76 568 90 625 q 57 560 74 554 q 24 585 40 567 q -5 630 7 603 q -10 685 -17 657 q 56 807 7 749 q 178 909 106 865 q 343 979 251 953 q 536 1006 435 1006 z "},"S":{"ha":613,"x_min":-3,"x_max":686,"o":"m 454 458 q 408 474 433 458 q 367 508 383 489 q 349 542 350 526 q 372 557 347 557 q 409 577 385 557 q 461 628 433 597 q 517 697 489 660 q 567 769 546 735 q 599 831 588 804 q 601 867 610 857 q 555 870 589 882 q 477 828 521 858 q 385 754 433 799 q 294 660 336 710 q 224 560 253 611 q 189 465 194 508 q 212 424 186 440 q 278 393 238 407 q 365 365 318 379 q 451 334 411 351 q 515 293 490 317 q 536 236 540 269 q 490 153 532 203 q 386 58 449 104 q 248 -20 324 13 q 101 -53 172 -53 q 41 -33 64 -53 q 8 15 18 -14 q -2 77 -3 43 q 6 140 -1 111 q 27 188 14 168 q 57 207 40 207 q 54 194 64 207 q 42 154 44 181 q 56 122 40 136 q 90 108 71 108 q 203 125 149 108 q 299 165 257 142 q 367 212 340 188 q 394 251 393 236 q 367 266 394 258 q 299 285 340 274 q 210 314 258 297 q 123 356 163 331 q 60 419 83 382 q 42 506 36 456 q 73 607 47 553 q 138 715 99 661 q 226 820 176 769 q 328 910 275 871 q 433 972 381 949 q 531 994 485 994 q 644 949 601 994 q 686 833 686 904 q 660 717 686 782 q 599 595 635 653 q 523 498 563 538 q 454 458 483 458 z "},"T":{"ha":567,"x_min":32,"x_max":954,"o":"m 953 993 q 930 897 946 933 q 889 839 914 860 q 830 810 864 818 q 754 803 796 803 q 670 806 711 803 q 589 813 629 808 q 522 676 560 758 q 449 498 485 593 q 385 305 414 403 q 347 121 357 207 q 344 13 339 53 q 360 -49 350 -26 q 378 -80 369 -71 q 386 -96 388 -89 q 368 -103 385 -100 q 327 -101 351 -106 q 276 -79 303 -96 q 228 -28 249 -62 q 197 63 207 7 q 197 203 188 119 q 228 364 206 278 q 281 535 251 450 q 342 699 310 621 q 403 836 374 778 q 306 847 354 843 q 207 851 257 851 q 134 835 163 851 q 100 775 106 819 q 100 749 97 758 q 106 735 103 740 q 110 728 110 731 q 106 719 111 725 q 84 713 97 713 q 59 722 71 713 q 40 750 47 731 q 36 801 32 769 q 60 887 42 853 q 106 940 78 921 q 174 968 135 960 q 261 976 213 976 q 353 972 299 976 q 471 965 408 968 q 492 989 488 989 q 535 979 510 989 q 585 957 561 969 q 669 953 628 954 q 746 951 710 951 q 865 963 822 951 q 910 994 907 975 q 918 1013 913 1007 q 931 1019 924 1019 q 949 1010 943 1019 q 953 993 954 1001 z "},"U":{"ha":860,"x_min":3,"x_max":978,"o":"m 831 992 q 885 983 858 992 q 932 961 911 974 q 965 937 953 949 q 978 919 978 925 q 973 913 978 913 q 964 908 968 913 q 903 818 936 881 q 837 674 871 756 q 771 499 803 592 q 715 322 739 407 q 675 167 690 238 q 660 61 660 97 q 666 30 660 35 q 675 25 672 25 q 699 42 688 25 q 720 81 710 60 q 740 120 731 103 q 754 138 749 138 q 758 122 760 138 q 751 81 757 106 q 732 29 744 57 q 703 -23 719 1 q 665 -63 686 -47 q 619 -79 643 -79 q 540 -36 571 -79 q 510 82 510 7 q 516 154 510 110 q 535 251 522 199 q 492 163 515 207 q 441 83 468 119 q 385 25 414 47 q 329 3 357 3 q 230 49 268 3 q 193 169 192 94 q 212 294 193 222 q 256 444 231 367 q 311 599 282 522 q 364 740 340 676 q 399 847 388 804 q 403 900 411 890 q 377 899 397 906 q 329 873 357 892 q 269 825 301 854 q 209 757 238 796 q 160 672 181 718 q 132 571 139 625 q 133 517 128 535 q 147 490 139 499 q 158 477 154 481 q 156 467 163 474 q 118 468 144 457 q 65 506 92 479 q 21 572 39 532 q 8 657 3 611 q 38 749 14 706 q 96 830 61 793 q 172 897 131 867 q 257 949 214 928 q 341 981 300 969 q 414 992 382 992 q 515 948 479 992 q 550 844 550 904 q 535 758 550 810 q 498 646 521 707 q 449 518 475 585 q 401 387 424 451 q 363 263 378 322 q 349 160 349 204 q 349 145 349 154 q 353 128 350 136 q 359 114 356 119 q 369 108 363 108 q 402 140 381 108 q 451 223 424 172 q 508 334 478 274 q 564 451 538 394 q 610 553 590 507 q 639 618 631 599 q 691 761 664 693 q 743 880 718 829 q 791 961 768 931 q 831 992 814 992 z "},"V":{"ha":819,"x_min":8,"x_max":931,"o":"m 13 660 q 63 794 19 732 q 167 900 107 856 q 294 969 228 944 q 413 994 360 994 q 519 952 486 994 q 553 829 553 910 q 542 709 553 779 q 515 563 531 639 q 482 411 500 486 q 451 276 464 336 q 431 180 438 217 q 429 143 424 143 q 451 171 433 143 q 494 246 468 199 q 552 356 519 293 q 618 486 585 418 q 683 625 651 554 q 740 760 715 696 q 783 876 765 824 q 803 963 800 929 q 801 988 804 978 q 797 1006 799 999 q 794 1017 794 1013 q 797 1026 793 1022 q 827 1024 804 1032 q 873 997 850 1015 q 913 950 896 978 q 928 889 931 922 q 903 803 925 860 q 848 674 882 747 q 772 518 814 601 q 684 352 729 435 q 594 193 639 269 q 513 58 550 117 q 451 -35 476 0 q 417 -69 425 -69 q 365 -59 399 -69 q 300 -32 332 -49 q 244 5 268 -15 q 224 44 221 25 q 234 83 224 47 q 260 177 244 119 q 297 307 276 235 q 336 456 317 379 q 372 608 356 533 q 399 745 389 683 q 412 849 410 807 q 403 904 414 892 q 375 905 396 911 q 326 880 354 899 q 267 831 299 861 q 209 760 236 800 q 162 674 182 721 q 138 572 142 626 q 141 518 135 536 q 155 492 147 500 q 167 479 163 483 q 163 468 171 475 q 128 473 154 461 q 76 510 103 485 q 28 574 49 536 q 13 660 8 613 z "},"W":{"ha":1133,"x_min":0,"x_max":1233,"o":"m 785 138 q 819 185 793 138 q 881 310 846 233 q 953 480 915 386 q 1023 665 990 574 q 1078 833 1056 756 q 1104 956 1100 911 q 1103 983 1106 972 q 1099 1002 1101 994 q 1097 1015 1097 1010 q 1101 1024 1097 1019 q 1129 1020 1107 1029 q 1175 992 1151 1011 q 1216 944 1199 972 q 1231 882 1233 915 q 1211 797 1228 853 q 1167 669 1194 740 q 1103 515 1139 597 q 1028 350 1068 432 q 946 193 988 268 q 865 60 904 118 q 792 -32 826 3 q 732 -67 757 -67 q 692 -58 713 -67 q 654 -31 672 -49 q 625 15 636 -12 q 614 78 614 42 q 620 153 614 101 q 638 274 626 206 q 664 422 649 343 q 699 576 679 501 q 599 372 646 476 q 515 178 553 267 q 452 28 478 89 q 415 -46 426 -33 q 372 -52 403 -60 q 310 -26 342 -44 q 253 16 278 -8 q 229 60 229 40 q 239 113 229 72 q 263 212 249 154 q 297 340 278 269 q 333 483 315 411 q 367 626 351 556 q 393 753 383 696 q 404 851 403 811 q 394 903 406 890 q 366 903 388 910 q 317 877 344 896 q 258 827 289 858 q 200 756 226 796 q 154 669 174 717 q 131 567 135 621 q 135 513 128 531 q 149 486 142 494 q 161 474 157 478 q 157 463 165 469 q 124 467 150 456 q 69 505 97 479 q 21 569 42 531 q 4 654 0 607 q 29 747 7 703 q 85 829 51 792 q 162 897 119 867 q 248 949 204 928 q 333 983 292 971 q 406 994 374 994 q 482 976 453 994 q 526 928 511 957 q 545 867 540 900 q 550 806 550 833 q 539 688 550 756 q 512 546 528 619 q 478 400 496 472 q 445 271 460 328 q 424 178 431 214 q 422 143 417 143 q 450 192 428 143 q 504 316 472 240 q 574 485 536 392 q 651 670 613 579 q 724 839 689 761 q 782 961 758 917 q 802 970 788 971 q 835 961 817 969 q 874 939 854 953 q 908 910 893 925 q 932 878 924 894 q 936 851 940 863 q 900 733 919 804 q 862 582 881 661 q 826 424 843 503 q 799 281 810 344 q 783 177 788 217 q 785 138 779 138 z "},"X":{"ha":844,"x_min":-64,"x_max":968,"o":"m 538 389 q 540 325 540 364 q 540 242 540 286 q 542 154 540 199 q 550 74 544 110 q 566 15 556 38 q 596 -7 576 -7 q 646 28 618 -7 q 703 117 674 64 q 762 233 732 171 q 817 348 792 294 q 863 437 843 401 q 894 472 883 472 q 894 428 903 472 q 862 319 885 385 q 804 178 839 254 q 727 36 769 101 q 636 -73 685 -29 q 536 -117 588 -117 q 453 -88 485 -117 q 404 -13 422 -60 q 379 94 386 33 q 368 221 372 156 q 246 85 307 156 q 135 -47 185 15 q 54 -153 85 -108 q 24 -212 24 -199 q 8 -215 22 -224 q -22 -187 -6 -206 q -51 -143 -37 -168 q -62 -96 -64 -118 q -24 -31 -62 -81 q 76 88 15 19 q 213 234 138 156 q 363 386 289 313 q 366 551 360 461 q 380 721 372 642 q 390 853 388 800 q 383 906 393 906 q 310 871 351 906 q 229 785 268 836 q 162 678 190 735 q 129 576 133 621 q 133 526 126 544 q 146 499 139 508 q 157 485 153 490 q 156 475 161 481 q 119 478 146 467 q 66 515 93 489 q 19 579 39 542 q 3 661 -1 617 q 47 795 8 733 q 140 901 86 857 q 254 969 194 944 q 363 994 314 994 q 446 978 411 994 q 503 937 481 963 q 537 878 526 911 q 547 810 547 844 q 546 748 547 782 q 543 680 544 714 q 541 613 542 646 q 540 554 540 579 q 670 693 608 625 q 779 817 732 761 q 854 913 826 874 q 882 968 882 953 q 895 968 882 976 q 925 943 908 960 q 955 906 942 926 q 968 871 968 886 q 931 813 968 858 q 834 703 894 768 q 697 556 774 638 q 538 389 619 474 z "},"Y":{"ha":871,"x_min":-1,"x_max":975,"o":"m 969 907 q 942 844 967 904 q 881 689 918 785 q 802 473 844 593 q 721 232 760 353 q 653 -1 682 111 q 615 -193 625 -114 q 615 -302 608 -262 q 633 -364 622 -342 q 653 -395 643 -386 q 663 -412 664 -404 q 644 -419 661 -417 q 603 -417 628 -422 q 551 -395 578 -412 q 502 -343 524 -378 q 470 -252 481 -308 q 469 -111 460 -196 q 487 -6 475 -65 q 516 119 499 53 q 555 258 533 186 q 600 401 576 329 q 450 106 513 208 q 328 3 388 3 q 228 49 267 3 q 192 169 190 94 q 210 294 192 222 q 253 444 228 367 q 308 599 279 522 q 360 740 338 676 q 395 847 383 804 q 399 900 407 890 q 373 899 393 906 q 325 873 353 892 q 265 825 297 854 q 205 758 233 796 q 155 673 176 719 q 128 572 133 626 q 129 518 124 536 q 142 491 135 500 q 154 478 150 482 q 151 468 158 475 q 114 469 140 458 q 61 507 88 481 q 17 573 35 533 q 4 658 -1 613 q 33 751 10 707 q 92 831 57 794 q 168 898 126 868 q 253 949 210 928 q 337 981 296 969 q 410 992 378 992 q 510 948 475 992 q 546 844 546 904 q 531 758 546 810 q 494 646 517 707 q 447 518 472 585 q 399 387 421 451 q 362 263 376 322 q 347 160 347 204 q 348 145 347 154 q 351 128 349 136 q 358 114 354 119 q 368 108 361 108 q 403 142 379 108 q 458 233 426 176 q 526 363 489 290 q 599 513 563 436 q 672 665 636 590 q 735 801 707 740 q 781 903 763 863 q 804 953 800 944 q 829 997 824 997 q 885 985 857 997 q 933 957 913 972 q 965 927 954 942 q 969 907 975 913 z "},"Z":{"ha":713,"x_min":-43,"x_max":793,"o":"m 554 992 q 736 936 679 992 q 793 781 793 881 q 759 649 793 724 q 672 498 725 574 q 554 355 618 422 q 431 247 490 288 q 468 204 451 226 q 488 211 474 206 q 517 223 501 217 q 545 234 532 229 q 561 239 558 239 q 588 228 575 239 q 610 203 601 217 q 621 178 619 189 q 611 167 622 167 q 592 162 607 167 q 560 151 578 157 q 527 138 543 144 q 504 129 511 132 q 516 87 514 101 q 518 47 518 72 q 476 -76 518 -15 q 372 -187 435 -137 q 236 -266 310 -236 q 97 -296 163 -296 q 47 -290 72 -296 q 1 -272 21 -285 q -31 -242 -18 -260 q -43 -199 -43 -224 q 3 -88 -43 -143 q 116 16 49 -33 q 260 106 183 65 q 396 175 336 147 q 344 196 376 190 q 283 169 311 178 q 233 161 254 161 q 194 181 208 161 q 173 225 179 201 q 167 269 167 249 q 175 289 168 289 q 240 309 201 289 q 324 363 279 329 q 417 441 369 397 q 510 532 465 485 q 592 626 554 579 q 655 715 629 674 q 690 786 681 756 q 686 831 699 817 q 612 853 664 856 q 495 829 560 851 q 360 771 431 807 q 231 692 290 735 q 133 604 172 649 q 89 524 93 560 q 74 513 88 510 q 46 535 61 517 q 18 584 31 553 q 6 658 6 615 q 30 728 6 690 q 96 803 54 765 q 192 874 138 840 q 308 935 247 908 q 433 976 369 961 q 554 992 496 992 m 406 89 q 278 23 346 61 q 154 -54 211 -15 q 58 -129 97 -93 q 17 -187 19 -165 q 39 -194 15 -199 q 100 -172 63 -189 q 184 -126 138 -154 q 274 -65 231 -99 q 354 9 318 -31 q 406 89 390 49 z "},"@":{"ha":931,"x_min":-18,"x_max":933,"o":"m 933 624 q 896 416 933 519 q 802 231 858 313 q 680 98 746 149 q 556 47 614 47 q 483 83 510 50 q 456 175 456 117 q 458 226 456 196 q 468 289 460 256 q 405 189 439 231 q 339 147 371 147 q 270 178 299 147 q 242 276 242 210 q 255 378 242 318 q 295 494 268 439 q 363 590 322 550 q 460 629 404 629 q 531 613 504 629 q 572 568 557 597 l 575 571 q 576 572 575 571 q 597 589 589 589 q 665 573 639 589 q 692 546 692 557 q 689 541 692 540 q 683 538 686 542 q 666 508 678 532 q 640 449 654 483 q 612 372 626 414 q 585 289 597 331 q 566 210 574 247 q 558 146 558 172 q 563 124 558 133 q 574 114 567 114 q 640 164 599 114 q 719 292 681 214 q 785 466 758 371 q 811 651 813 561 q 767 804 808 742 q 651 874 726 867 q 483 836 569 883 q 324 704 397 789 q 200 506 251 619 q 135 269 149 393 q 140 113 125 182 q 185 -3 154 44 q 260 -77 217 -51 q 350 -103 303 -103 q 423 -90 389 -103 q 483 -60 457 -76 q 526 -31 510 -44 q 549 -18 543 -18 q 548 -40 554 -18 q 521 -88 542 -62 q 465 -136 500 -114 q 381 -158 431 -158 q 231 -136 301 -158 q 107 -68 161 -114 q 20 49 53 -22 q -15 221 -12 121 q 0 375 -18 294 q 53 535 18 456 q 136 687 88 614 q 243 817 185 760 q 368 913 301 875 q 506 958 435 950 q 677 947 599 969 q 813 876 756 924 q 901 764 869 829 q 933 624 933 699 m 361 222 q 383 240 369 222 q 413 283 396 257 q 447 343 429 310 q 483 409 465 376 q 515 469 500 442 q 540 514 529 497 q 528 555 540 536 q 504 574 517 574 q 453 538 481 574 q 403 452 426 503 q 364 347 379 401 q 349 257 349 293 q 351 233 349 244 q 361 222 354 222 z "},"&":{"ha":728,"x_min":17,"x_max":788,"o":"m 404 271 q 392 278 397 271 q 389 292 388 285 q 404 366 393 338 q 431 410 415 394 q 468 432 447 426 q 513 438 489 438 q 560 432 535 438 q 610 420 585 426 q 661 409 636 414 q 707 404 686 404 q 751 408 735 404 q 776 416 768 413 q 785 418 783 419 q 786 406 788 417 q 769 351 783 371 q 738 321 756 331 q 702 309 721 311 q 671 307 683 307 l 651 307 q 585 202 628 264 q 488 83 543 140 q 367 -15 432 25 q 233 -56 301 -56 q 132 -33 174 -56 q 65 26 90 -10 q 28 101 39 61 q 17 178 17 142 q 44 331 17 263 q 113 451 71 399 q 210 539 156 503 q 318 594 264 575 q 267 658 286 624 q 251 733 247 693 q 277 800 253 760 q 340 876 301 840 q 426 939 378 913 q 528 965 475 965 q 613 947 583 965 q 656 902 643 928 q 672 851 669 876 q 672 811 674 825 q 643 764 669 788 q 585 722 617 740 q 529 692 554 703 q 504 688 504 682 q 525 710 504 690 q 567 755 546 729 q 601 808 589 781 q 597 853 614 835 q 559 851 590 861 q 492 813 528 840 q 426 743 456 786 q 390 644 396 700 q 397 604 389 625 q 453 588 424 600 q 506 561 482 575 q 544 534 529 547 q 558 515 558 521 q 553 490 557 494 q 542 486 549 485 q 524 492 535 488 q 500 497 514 497 q 391 463 449 497 q 285 376 333 429 q 204 259 236 324 q 172 133 172 194 q 197 75 172 90 q 251 60 222 60 q 342 85 293 60 q 440 148 392 110 q 529 231 488 186 q 600 315 571 276 q 521 322 561 322 q 449 314 476 322 q 421 290 422 306 q 404 271 418 271 z "},",":{"ha":240,"x_min":24,"x_max":179,"o":"m 179 46 q 164 -3 178 25 q 131 -58 150 -32 q 94 -101 113 -83 q 65 -119 75 -119 q 31 -105 38 -119 q 24 -78 24 -90 q 31 -53 24 -71 q 49 -14 39 -36 q 66 33 58 8 q 75 79 74 57 q 74 110 76 101 q 72 121 72 119 q 76 126 72 122 q 90 131 81 131 q 118 122 103 131 q 147 101 133 114 q 170 74 161 89 q 179 46 179 58 z "},".":{"ha":285,"x_min":25,"x_max":175,"o":"m 175 93 q 158 27 175 53 q 107 1 140 1 q 81 6 94 1 q 54 18 67 10 q 33 39 42 26 q 25 67 25 51 q 44 128 25 99 q 92 157 64 157 q 119 152 104 157 q 146 139 133 147 q 167 119 158 131 q 175 93 175 107 z "},"+":{"ha":606,"x_min":74,"x_max":529,"o":"m 79 340 q 76 361 74 346 q 87 393 79 376 q 103 422 94 410 q 119 435 113 435 q 160 435 122 435 q 257 436 197 435 q 291 531 278 499 q 306 571 304 564 q 307 590 307 583 q 313 596 307 596 q 329 592 314 596 q 363 582 344 589 q 394 565 381 575 q 407 543 408 556 q 398 510 406 533 q 371 436 390 488 q 468 438 431 438 q 517 438 506 438 q 529 421 529 438 q 522 385 529 404 q 502 349 514 365 q 479 332 490 332 l 332 332 q 308 268 319 299 q 289 214 297 238 q 275 176 281 190 q 268 161 269 163 q 249 159 265 158 q 215 163 233 160 q 181 172 196 167 q 168 185 167 178 q 183 233 168 192 q 218 333 197 275 q 118 336 156 335 q 79 340 81 338 z "},"-":{"ha":607,"x_min":110,"x_max":514,"o":"m 115 344 q 111 365 110 350 q 117 397 113 381 q 129 425 122 413 q 143 438 136 438 q 169 438 144 438 q 231 438 194 438 q 311 439 268 439 q 393 440 354 439 q 461 440 432 440 q 499 440 490 440 q 513 424 511 440 q 510 388 514 407 q 496 351 506 368 q 475 335 486 335 q 446 335 472 335 q 380 335 419 335 q 294 337 340 336 q 210 338 249 338 q 144 340 171 339 q 115 344 117 342 z "},"":{"ha":607,"x_min":46,"x_max":544,"o":"m 53 303 q 48 326 46 308 q 56 363 50 344 q 69 395 61 381 q 85 410 78 410 q 118 410 88 410 q 195 410 149 410 q 295 411 242 411 q 397 412 349 411 q 481 413 446 413 q 526 413 517 413 q 542 394 540 413 q 540 353 544 375 q 524 312 535 331 q 500 293 513 293 q 464 293 497 293 q 381 294 431 293 q 276 295 332 294 q 170 297 219 296 q 88 299 121 297 q 53 303 54 300 z "},"":{"ha":743,"x_min":46,"x_max":661,"o":"m 53 303 q 48 326 46 308 q 56 363 50 344 q 69 395 61 381 q 85 410 78 410 q 127 410 88 410 q 226 410 167 410 q 353 411 285 411 q 483 412 422 411 q 589 413 544 413 q 643 413 633 413 q 659 394 657 413 q 656 353 661 375 q 640 312 651 331 q 617 293 629 293 q 572 293 614 293 q 468 294 531 293 q 334 295 406 294 q 201 297 263 296 q 97 299 139 297 q 53 303 56 300 z "},"=":{"ha":574,"x_min":44,"x_max":531,"o":"m 51 258 q 47 280 44 264 q 56 313 50 296 q 71 344 63 331 q 86 357 79 357 q 114 357 88 357 q 179 358 140 357 q 263 358 218 358 q 349 359 308 358 q 421 360 390 360 q 460 360 451 360 q 474 342 472 360 q 469 305 475 325 q 451 267 463 285 q 429 250 440 250 q 398 250 426 250 q 328 251 369 250 q 238 252 286 251 q 149 253 190 253 q 81 256 108 254 q 51 258 53 257 m 106 460 q 103 481 100 465 q 112 514 106 497 q 126 544 118 531 q 142 557 135 557 q 171 557 144 557 q 235 558 197 557 q 319 558 274 558 q 406 559 365 558 q 478 560 447 560 q 517 560 508 560 q 530 542 529 560 q 524 505 531 525 q 507 467 518 485 q 485 450 496 450 q 454 450 482 450 q 385 451 426 450 q 294 452 343 451 q 205 453 246 453 q 135 456 164 454 q 106 460 107 457 z "},"_":{"ha":574,"x_min":65,"x_max":504,"o":"m 79 -64 q 68 -53 71 -65 q 67 -24 65 -40 q 74 8 69 -7 q 85 29 79 24 q 117 35 88 32 q 189 42 146 39 q 282 46 232 44 q 376 47 332 47 q 452 42 419 46 q 492 32 485 39 q 503 2 501 22 q 500 -37 504 -18 q 487 -71 496 -57 q 465 -81 478 -85 q 415 -73 449 -76 q 339 -67 381 -69 q 253 -64 297 -65 q 171 -62 208 -62 q 108 -63 133 -62 q 79 -64 83 -64 z "},"(":{"ha":383,"x_min":32,"x_max":543,"o":"m 233 -12 q 213 -23 232 -19 q 181 -26 194 -26 q 148 -19 174 -26 q 96 8 122 -12 q 51 65 69 28 q 38 164 32 103 q 67 351 44 251 q 119 549 89 451 q 185 737 149 647 q 260 895 222 826 q 336 1005 299 964 q 404 1046 374 1046 q 457 1039 432 1046 q 501 1022 482 1032 q 532 1000 521 1011 q 543 982 543 989 q 528 972 542 972 q 508 972 515 972 q 443 930 478 972 q 374 819 408 888 q 306 668 339 751 q 247 501 272 585 q 203 345 221 418 q 182 226 186 272 q 177 112 175 156 q 185 44 179 68 q 201 12 192 19 q 218 4 210 4 q 229 -1 226 4 q 233 -12 232 -6 z "},")":{"ha":378,"x_min":-93,"x_max":433,"o":"m 232 1031 q 252 1041 233 1038 q 285 1044 271 1044 q 317 1038 292 1044 q 369 1010 343 1031 q 415 953 396 990 q 425 854 433 915 q 390 666 414 765 q 333 469 365 567 q 263 281 301 371 q 187 124 225 192 q 111 15 149 56 q 43 -26 74 -26 q -8 -19 17 -26 q -52 -2 -33 -12 q -82 19 -71 8 q -92 38 -93 31 q -76 47 -89 47 q -56 47 -62 47 q 8 90 -26 47 q 78 199 43 132 q 146 351 113 267 q 206 517 179 435 q 251 673 232 600 q 275 792 269 746 q 284 906 285 863 q 278 974 283 950 q 263 1006 272 999 q 246 1014 254 1014 q 232 1031 232 1014 z "},"*":{"ha":432,"x_min":53,"x_max":389,"o":"m 371 786 q 351 782 368 783 q 311 779 335 781 q 340 737 329 754 q 351 717 351 719 q 342 703 350 713 q 324 686 333 694 q 305 672 314 678 q 292 668 296 667 q 270 693 289 668 q 225 754 251 718 q 173 691 196 718 q 146 664 150 664 q 131 669 142 664 q 110 682 121 675 q 92 697 100 689 q 83 710 83 706 q 99 731 90 719 q 115 753 106 740 q 136 781 125 765 q 85 784 104 782 q 63 789 65 786 q 57 803 60 793 q 53 826 54 814 q 53 847 53 838 q 56 860 53 857 q 85 861 57 861 q 144 861 113 861 q 101 915 119 893 q 81 939 83 938 q 85 947 76 940 q 106 962 93 954 q 134 975 119 969 q 158 978 149 981 q 181 953 163 976 q 225 897 200 929 q 269 957 251 932 q 288 985 288 982 q 297 983 288 989 q 317 966 306 976 q 337 942 328 956 q 346 919 346 929 q 335 901 346 917 q 307 861 324 885 q 360 863 339 861 q 385 867 382 864 q 388 858 388 868 q 388 833 389 847 q 382 806 386 819 q 371 786 378 792 z "},"#":{"ha":607,"x_min":18,"x_max":576,"o":"m 97 424 q 95 443 92 429 q 106 471 99 457 q 124 496 114 485 q 140 507 133 507 l 226 507 q 265 601 249 563 q 285 642 282 639 q 305 642 293 646 q 328 628 317 638 q 346 609 339 619 q 351 593 353 599 q 341 567 350 590 q 319 508 332 544 l 386 508 q 426 601 408 564 q 446 642 443 639 q 466 642 454 646 q 489 628 478 638 q 507 609 500 619 q 511 593 514 599 q 502 568 510 590 q 479 510 494 546 l 564 510 q 576 494 576 510 q 569 462 576 479 q 550 429 563 444 q 525 414 538 414 l 446 414 q 424 358 435 386 q 401 301 413 329 l 489 301 q 503 286 503 301 q 495 253 503 271 q 475 221 488 236 q 450 206 463 206 l 365 206 q 342 146 351 169 q 331 115 333 122 q 311 103 326 103 q 281 114 296 104 q 256 137 267 124 q 251 163 246 150 q 256 176 251 164 q 268 207 261 188 l 206 207 q 182 147 190 171 q 171 115 174 122 q 151 103 165 103 q 121 114 136 104 q 96 137 106 124 q 90 163 86 150 q 108 210 90 167 q 47 212 71 211 q 24 215 24 213 q 22 235 18 221 q 32 263 25 249 q 49 288 39 276 q 65 299 58 299 l 144 299 l 190 418 q 124 420 150 419 q 97 424 99 421 m 285 415 q 263 358 274 388 q 240 300 251 328 l 304 300 l 350 414 q 317 415 333 414 q 285 415 300 415 z "},":":{"ha":325,"x_min":22,"x_max":299,"o":"m 178 93 q 153 27 174 53 q 99 1 132 1 q 73 6 86 1 q 48 18 60 10 q 29 39 36 26 q 25 67 22 51 q 34 98 26 82 q 52 127 42 114 q 76 149 63 140 q 103 157 89 157 q 155 139 129 157 q 178 93 181 121 m 297 432 q 272 366 293 392 q 218 340 251 340 q 192 344 206 340 q 167 357 179 349 q 149 378 156 365 q 144 406 142 390 q 172 467 149 438 q 222 496 194 496 q 249 491 235 496 q 275 478 264 486 q 292 458 286 469 q 297 432 299 446 z "},";":{"ha":325,"x_min":32,"x_max":276,"o":"m 276 432 q 259 366 276 392 q 208 340 242 340 q 182 344 196 340 q 156 357 168 349 q 135 378 143 365 q 126 406 126 390 q 146 467 126 438 q 193 496 165 496 q 220 491 206 496 q 247 478 235 486 q 268 458 260 469 q 276 432 276 446 m 179 36 q 165 -12 178 15 q 135 -64 151 -39 q 101 -106 118 -89 q 74 -124 83 -124 q 39 -110 46 -124 q 32 -83 32 -96 q 40 -61 32 -78 q 56 -23 47 -44 q 72 22 64 -1 q 81 67 79 46 q 80 98 82 90 q 78 107 78 106 q 83 113 78 108 q 96 117 88 117 q 120 108 106 117 q 148 88 135 100 q 170 63 161 76 q 179 36 179 49 z "},"":{"ha":206,"x_min":81,"x_max":228,"o":"m 228 933 q 215 883 228 915 q 187 820 203 851 q 154 766 171 789 q 129 743 138 743 q 93 757 106 743 q 81 782 81 771 q 88 810 81 788 q 105 860 96 832 q 122 917 114 889 q 129 964 129 946 q 127 991 129 983 q 125 1000 125 999 q 129 1005 125 1001 q 140 1008 133 1008 q 165 1001 150 1008 q 193 982 179 993 q 217 958 207 971 q 228 933 228 944 z "},"":{"ha":206,"x_min":81,"x_max":228,"o":"m 81 818 q 93 868 81 836 q 122 931 106 900 q 154 985 138 963 q 179 1008 171 1008 q 215 994 203 1008 q 228 969 228 981 q 220 942 228 964 q 203 891 213 919 q 187 834 194 863 q 179 788 179 806 q 181 760 179 768 q 183 751 183 753 q 179 747 183 750 q 168 743 175 743 q 144 751 158 743 q 115 769 129 758 q 91 794 101 781 q 81 818 81 807 z "},"":{"ha":240,"x_min":33,"x_max":169,"o":"m 169 42 q 159 -3 169 24 q 134 -53 149 -29 q 105 -95 119 -78 q 82 -112 90 -112 q 46 -99 58 -112 q 33 -74 33 -85 q 39 -51 33 -68 q 52 -13 44 -35 q 65 31 60 8 q 71 72 71 54 q 69 99 71 92 q 67 108 67 107 q 71 113 67 110 q 82 117 75 117 q 106 109 92 117 q 135 90 121 101 q 159 66 149 79 q 169 42 169 53 z "},"":{"ha":386,"x_min":33,"x_max":315,"o":"m 169 42 q 159 -3 169 24 q 134 -53 149 -29 q 105 -95 119 -78 q 82 -112 90 -112 q 46 -99 58 -112 q 33 -74 33 -85 q 39 -51 33 -68 q 52 -13 44 -35 q 65 31 60 8 q 71 72 71 54 q 69 99 71 92 q 67 108 67 107 q 71 113 67 110 q 82 117 75 117 q 106 109 92 117 q 135 90 121 101 q 159 66 149 79 q 169 42 169 53 m 315 42 q 305 -3 315 24 q 280 -53 294 -29 q 251 -95 265 -78 q 228 -112 236 -112 q 192 -99 204 -112 q 179 -74 179 -85 q 185 -51 179 -68 q 198 -13 190 -35 q 211 31 206 8 q 217 72 217 54 q 215 99 217 92 q 213 108 213 107 q 217 113 213 110 q 228 117 221 117 q 252 109 238 117 q 281 90 267 101 q 305 66 294 79 q 315 42 315 53 z "},"":{"ha":349,"x_min":81,"x_max":371,"o":"m 81 818 q 93 868 81 836 q 122 931 106 900 q 154 985 138 963 q 179 1008 171 1008 q 215 994 203 1008 q 228 969 228 981 q 220 942 228 964 q 203 891 213 919 q 187 834 194 863 q 179 788 179 806 q 181 760 179 768 q 183 751 183 753 q 179 747 183 750 q 168 743 175 743 q 144 751 158 743 q 115 769 129 758 q 91 794 101 781 q 81 818 81 807 m 224 818 q 236 868 224 836 q 265 931 249 900 q 297 985 281 963 q 322 1008 314 1008 q 358 994 346 1008 q 371 969 371 981 q 363 942 371 964 q 347 891 356 919 q 330 834 338 863 q 322 788 322 806 q 324 760 322 768 q 326 751 326 753 q 322 747 326 750 q 311 743 318 743 q 287 751 301 743 q 258 769 272 758 q 234 794 244 781 q 224 818 224 807 z "},"":{"ha":349,"x_min":81,"x_max":371,"o":"m 371 933 q 358 883 371 915 q 330 820 346 851 q 297 766 314 789 q 272 743 281 743 q 236 757 249 743 q 224 782 224 771 q 231 810 224 788 q 248 860 239 832 q 265 917 257 889 q 272 964 272 946 q 270 991 272 983 q 268 1000 268 999 q 272 1005 268 1001 q 283 1008 276 1008 q 308 1001 293 1008 q 336 982 322 993 q 360 958 350 971 q 371 933 371 944 m 228 933 q 215 883 228 915 q 187 820 203 851 q 154 766 171 789 q 129 743 138 743 q 93 757 106 743 q 81 782 81 771 q 88 810 81 788 q 105 860 96 832 q 122 917 114 889 q 129 964 129 946 q 127 991 129 983 q 125 1000 125 999 q 129 1005 125 1001 q 140 1008 133 1008 q 165 1001 150 1008 q 193 982 179 993 q 217 958 207 971 q 228 933 228 944 z "},"":{"ha":367,"x_min":101,"x_max":306,"o":"m 101 440 q 131 513 101 483 q 203 543 160 543 q 276 513 246 543 q 306 440 306 483 q 276 368 306 397 q 203 339 246 339 q 131 368 160 339 q 101 440 101 397 z "},"":{"ha":339,"x_min":110,"x_max":260,"o":"m 260 442 q 242 376 260 401 q 192 350 225 350 q 165 354 179 350 q 139 367 151 358 q 118 388 126 375 q 110 415 110 400 q 129 476 110 447 q 176 506 149 506 q 203 501 189 506 q 231 488 218 496 q 251 467 243 479 q 260 442 260 456 z "},"'":{"ha":165,"x_min":69,"x_max":235,"o":"m 233 908 q 215 858 231 890 q 181 795 200 826 q 142 741 161 764 q 115 718 124 718 q 81 732 92 718 q 71 757 69 746 q 81 785 71 763 q 102 835 90 807 q 124 892 114 864 q 138 939 135 921 q 138 966 140 958 q 136 975 136 974 q 142 980 138 976 q 153 983 146 983 q 176 976 163 983 q 203 957 190 968 q 226 933 217 946 q 233 908 235 919 z "},"":{"ha":326,"x_min":53,"x_max":314,"o":"m 313 903 q 297 861 310 888 q 266 809 283 835 q 233 764 249 783 q 210 744 217 744 q 181 756 190 744 q 174 776 172 768 q 183 799 174 781 q 203 842 192 818 q 223 889 214 865 q 235 928 232 913 q 235 951 238 944 q 235 958 233 957 q 238 963 235 960 q 249 965 242 965 q 268 959 257 965 q 290 943 279 953 q 307 923 300 933 q 313 903 314 913 m 193 903 q 177 861 190 888 q 147 809 164 835 q 113 764 129 783 q 90 744 97 744 q 62 756 71 744 q 54 776 53 768 q 63 799 54 781 q 83 842 72 818 q 103 889 94 865 q 115 928 113 913 q 117 951 118 944 q 117 958 115 957 q 119 963 117 960 q 129 965 122 965 q 149 959 138 965 q 170 943 160 953 q 188 923 181 933 q 193 903 194 913 z "},"":{"ha":275,"x_min":49,"x_max":231,"o":"m 225 811 q 193 783 217 799 q 144 753 169 767 q 96 731 118 739 q 68 726 74 722 q 51 753 53 738 q 53 776 49 769 q 71 792 56 781 q 106 818 86 803 q 145 849 126 833 q 172 878 164 865 q 183 897 182 892 q 186 904 185 901 q 192 906 188 906 q 201 903 196 907 q 214 887 207 899 q 225 860 221 875 q 230 833 229 846 q 225 811 231 819 z "},"`":{"ha":289,"x_min":63,"x_max":244,"o":"m 68 811 q 63 833 63 819 q 68 860 64 846 q 78 887 72 875 q 92 903 85 899 q 101 906 97 907 q 107 904 106 906 q 110 897 108 901 q 121 878 113 888 q 148 849 129 865 q 187 818 167 833 q 222 792 207 803 q 240 776 238 781 q 242 753 244 769 q 225 726 240 738 q 197 731 219 722 q 149 753 175 739 q 100 783 124 767 q 68 811 76 799 z "},"":{"ha":297,"x_min":56,"x_max":254,"o":"m 254 925 q 252 901 254 924 q 247 849 250 878 q 241 794 243 821 q 240 760 239 768 q 243 746 242 747 q 242 740 244 744 q 231 733 236 735 q 217 734 226 733 q 199 738 208 735 q 181 747 189 742 q 172 761 172 753 q 172 779 171 768 q 173 800 172 790 q 174 817 174 810 q 175 825 175 825 q 165 810 174 822 q 148 783 157 797 q 131 756 139 768 q 121 742 122 743 q 104 736 117 738 q 81 737 92 735 q 63 743 69 739 q 60 754 56 747 q 85 789 64 758 q 131 856 107 819 q 176 923 156 893 q 199 956 197 953 q 208 956 200 957 q 226 953 217 956 q 244 943 236 950 q 254 925 253 936 z "},"^":{"ha":401,"x_min":56,"x_max":394,"o":"m 394 940 q 387 902 394 938 q 370 822 379 867 q 353 735 361 776 q 346 679 346 693 q 350 657 349 660 q 347 647 351 654 q 328 639 342 642 q 307 640 321 638 q 278 647 293 642 q 251 663 263 653 q 240 685 240 672 q 242 715 239 697 q 247 750 244 733 q 254 789 251 769 l 207 725 q 173 680 189 701 q 154 656 157 658 q 133 651 150 651 q 97 653 115 650 q 67 662 79 656 q 63 678 56 668 q 85 706 67 682 q 131 765 104 731 q 188 839 158 800 q 244 911 218 878 q 288 967 271 944 q 307 993 306 990 q 325 994 311 996 q 354 985 339 992 q 382 968 369 979 q 394 940 394 957 z "},"":{"ha":307,"x_min":85,"x_max":278,"o":"m 88 794 q 88 812 88 796 q 90 849 89 828 q 91 890 90 869 q 90 918 92 910 q 88 931 90 929 q 89 936 86 933 q 101 943 92 942 q 115 944 106 944 q 133 940 124 943 q 151 932 143 938 q 160 918 158 926 q 161 899 161 910 q 161 878 161 889 l 161 854 q 196 897 181 878 q 222 928 210 914 q 236 942 233 942 q 263 935 247 942 q 275 918 278 929 q 250 888 271 914 q 203 834 229 863 q 153 782 178 806 q 118 758 129 758 q 110 758 115 758 q 99 762 104 758 q 89 772 93 765 q 88 794 85 779 z "},"":{"ha":417,"x_min":78,"x_max":365,"o":"m 204 839 q 190 783 204 806 q 147 761 175 761 q 102 775 126 761 q 78 817 78 789 q 94 868 78 843 q 133 893 111 893 q 181 878 157 893 q 204 839 204 863 m 365 839 q 351 783 365 806 q 308 761 336 761 q 263 775 288 761 q 239 817 239 789 q 255 868 239 843 q 294 893 271 893 q 341 878 317 893 q 365 839 365 863 z "},"":{"ha":574,"x_min":40,"x_max":513,"o":"m 46 338 q 44 361 40 343 q 56 397 49 379 q 74 430 64 415 q 92 444 85 444 q 123 444 94 444 q 193 445 151 444 q 285 446 235 446 q 379 447 335 446 q 456 447 424 447 q 499 447 489 447 q 513 428 513 447 q 504 388 513 410 q 483 347 496 365 q 457 328 469 328 q 424 328 454 328 q 348 328 393 328 q 251 330 303 329 q 153 331 199 331 q 78 333 108 332 q 46 338 47 335 m 414 574 q 388 508 408 533 q 335 482 368 482 q 309 486 322 482 q 284 499 296 490 q 265 519 272 507 q 261 547 258 532 q 270 578 263 563 q 289 608 278 594 q 313 629 300 621 q 340 638 326 638 q 367 633 353 638 q 392 619 381 628 q 409 599 403 611 q 414 574 415 588 m 290 224 q 264 158 285 183 q 210 132 243 132 q 184 136 197 132 q 160 149 171 140 q 142 169 149 157 q 138 197 135 182 q 165 258 142 229 q 215 288 188 288 q 242 283 228 288 q 268 269 257 278 q 285 249 279 261 q 290 224 292 238 z "},"":{"ha":550,"x_min":18,"x_max":496,"o":"m 233 610 q 260 570 239 607 q 307 481 281 533 q 403 558 363 525 q 446 596 443 590 q 456 591 446 601 q 475 563 465 581 q 490 525 485 546 q 490 490 496 504 q 449 452 488 485 q 357 375 411 419 q 402 271 385 317 q 417 219 419 225 q 400 203 414 214 q 369 180 386 192 q 338 160 353 168 q 318 156 322 153 q 294 196 314 157 q 247 289 275 235 q 188 244 217 265 q 138 208 160 224 q 101 183 115 192 q 83 175 86 175 q 67 185 78 175 q 44 208 56 196 q 26 233 33 221 q 21 253 18 246 q 35 266 21 254 q 74 297 50 278 q 130 341 99 317 q 196 393 161 365 q 165 455 181 425 q 138 508 150 485 q 118 544 126 531 q 108 558 110 558 q 117 570 103 560 q 153 591 132 581 q 198 608 175 601 q 233 610 221 615 z "},"":{"ha":574,"x_min":46,"x_max":510,"o":"m 53 338 q 48 361 46 343 q 56 397 50 379 q 69 430 61 415 q 85 444 78 444 q 116 444 88 444 q 186 445 144 444 q 278 446 228 446 q 372 447 328 446 q 449 447 417 447 q 492 447 482 447 q 508 428 506 447 q 505 388 510 410 q 489 347 500 365 q 465 328 478 328 q 432 328 463 328 q 356 328 401 328 q 259 330 311 329 q 162 331 207 331 q 85 333 117 332 q 53 338 54 335 z "},"":{"ha":504,"x_min":-15,"x_max":654,"o":"m -14 40 q 13 102 -12 53 q 78 225 38 151 q 169 388 118 299 q 274 567 221 476 q 379 744 328 658 q 471 898 431 831 q 537 1006 511 965 q 564 1046 563 1046 q 590 1043 574 1046 q 619 1034 606 1040 q 644 1019 633 1028 q 654 997 654 1010 q 630 950 654 993 q 566 838 606 907 q 475 682 526 769 q 370 503 424 594 q 265 322 317 411 q 172 162 213 233 q 105 43 131 90 q 76 -12 79 -4 q 71 -33 72 -26 q 64 -37 69 -39 q 50 -30 63 -37 q 23 -11 38 -22 q -3 14 8 0 q -14 40 -15 28 z "},"\\":{"ha":583,"x_min":121,"x_max":476,"o":"m 474 -21 q 457 -44 471 -33 q 426 -61 443 -54 q 397 -72 410 -68 q 382 -75 383 -75 q 375 -69 375 -75 q 376 -49 375 -62 q 365 9 376 -40 q 336 133 354 58 q 295 301 318 208 q 248 489 272 393 q 201 676 224 585 q 160 839 178 767 q 132 956 143 911 q 122 1006 121 1001 q 135 1021 124 1015 q 163 1029 147 1026 q 194 1031 178 1032 q 219 1029 210 1031 q 233 986 221 1029 q 265 873 246 943 q 307 713 283 803 q 355 528 331 624 q 401 339 379 432 q 441 170 424 246 q 467 43 458 94 q 474 -21 476 -8 z "},"|":{"ha":515,"x_min":51,"x_max":521,"o":"m 519 990 q 507 926 521 978 q 469 799 493 875 q 415 628 446 722 q 352 439 385 535 q 288 253 319 343 q 231 92 256 163 q 189 -22 206 21 q 171 -65 172 -65 q 142 -68 161 -68 q 103 -66 122 -68 q 69 -58 83 -64 q 53 -43 54 -53 q 66 6 51 -39 q 105 124 81 51 q 160 288 129 196 q 224 476 192 379 q 288 665 256 572 q 344 833 319 758 q 383 958 368 908 q 399 1015 399 1007 q 399 1035 399 1029 q 406 1042 399 1042 q 424 1038 407 1042 q 463 1028 442 1035 q 501 1013 483 1022 q 519 990 518 1003 z "},"$":{"ha":565,"x_min":-36,"x_max":582,"o":"m 483 996 q 477 960 485 988 q 454 890 469 932 q 525 868 499 890 q 564 815 551 846 q 579 753 576 785 q 579 704 582 722 q 547 619 574 667 q 486 530 519 572 q 422 458 453 488 q 378 429 390 429 q 336 443 358 429 q 301 474 314 457 l 263 371 q 325 351 293 361 q 381 326 357 340 q 419 294 406 313 q 429 253 433 276 q 397 193 425 228 q 326 124 369 158 q 228 59 282 89 q 119 15 174 29 q 94 -49 104 -25 q 82 -74 83 -72 q 37 -70 61 -78 q 11 -43 13 -62 q 28 8 10 -40 q -11 33 3 14 q -31 76 -25 51 q -34 127 -36 100 q -24 176 -32 154 q -5 213 -17 199 q 19 228 7 228 q 21 225 22 228 q 16 217 19 222 q 9 203 13 211 q 4 183 6 194 q 15 156 3 168 q 46 143 28 143 q 61 143 53 143 q 78 144 69 143 q 109 229 93 185 q 144 322 125 274 q 91 348 117 333 q 47 383 65 363 q 19 427 28 403 q 14 483 10 451 q 54 590 21 532 q 135 701 88 647 q 239 801 182 756 q 350 869 296 846 q 384 969 371 931 q 399 1015 397 1007 q 400 1035 400 1029 q 407 1042 400 1042 q 420 1039 408 1042 q 446 1031 432 1036 q 472 1017 460 1026 q 483 996 483 1008 m 506 772 q 468 777 496 785 q 404 749 440 769 q 363 637 385 696 q 317 515 340 578 q 351 540 331 521 q 395 584 372 558 q 440 640 418 610 q 479 697 463 669 q 503 744 496 724 q 506 772 511 764 m 139 449 q 147 423 136 433 q 174 403 157 413 l 264 640 q 181 544 217 594 q 139 449 146 493 m 310 265 q 288 278 311 272 q 232 293 265 283 q 207 231 219 261 q 183 172 194 200 q 272 221 236 193 q 310 265 307 249 z "},"%":{"ha":683,"x_min":38,"x_max":625,"o":"m 356 832 q 340 742 356 794 q 297 641 324 689 q 238 559 271 593 q 171 524 206 525 q 142 531 160 524 q 108 548 125 538 q 79 572 92 558 q 65 597 67 585 q 64 616 64 607 q 64 635 64 625 q 61 649 63 642 q 60 667 60 657 q 69 772 56 718 q 110 869 83 825 q 172 943 136 914 q 249 974 208 972 q 284 963 265 975 q 318 931 303 951 q 344 885 333 911 q 356 832 354 860 m 575 325 q 559 235 575 288 q 517 134 543 182 q 458 52 492 86 q 390 17 425 18 q 362 24 379 17 q 328 41 344 31 q 300 65 313 51 q 286 90 288 78 q 285 132 282 108 q 282 145 282 139 q 281 160 282 151 q 290 265 276 211 q 329 363 303 318 q 392 437 356 408 q 468 467 428 465 q 503 456 485 468 q 538 424 522 444 q 565 378 554 404 q 575 325 575 353 m 39 86 q 61 140 39 96 q 119 248 83 183 q 199 391 154 313 q 292 551 244 469 q 385 708 339 632 q 466 844 431 785 q 524 939 501 903 q 549 975 547 975 q 570 971 557 975 q 596 960 583 967 q 617 944 608 953 q 624 926 625 935 q 602 886 624 924 q 545 789 581 849 q 465 653 510 729 q 374 499 421 578 q 281 342 326 419 q 199 203 235 265 q 140 101 163 142 q 115 53 117 60 q 111 36 113 42 q 106 32 110 31 q 94 37 106 32 q 71 49 83 42 q 48 65 58 56 q 39 86 38 75 m 163 768 q 152 747 158 764 q 139 706 146 729 q 127 656 132 682 q 122 607 122 629 q 123 601 122 606 q 125 590 124 596 q 129 581 126 585 q 138 576 132 576 q 188 612 163 578 q 233 692 213 646 q 267 785 254 738 q 283 863 281 832 q 277 908 286 896 q 254 921 268 921 q 199 881 231 921 q 147 786 168 842 q 160 776 156 781 q 163 768 165 771 m 385 261 q 373 240 381 257 q 359 199 365 224 q 348 149 353 175 q 343 100 343 122 q 347 83 344 97 q 360 69 349 69 q 408 105 383 71 q 453 185 433 139 q 488 278 474 231 q 504 357 501 326 q 498 401 507 389 q 476 414 489 414 q 451 403 465 414 q 422 374 436 393 q 393 331 407 356 q 369 279 379 307 q 382 269 376 274 q 385 261 388 264 z "},"!":{"ha":442,"x_min":28,"x_max":515,"o":"m 364 1019 q 401 1026 374 1031 q 453 1012 428 1022 q 497 989 479 1001 q 510 971 515 976 q 467 903 494 957 q 407 774 439 849 q 341 613 375 699 q 278 451 307 528 q 231 315 250 374 q 211 238 213 257 q 190 218 208 221 q 151 222 172 215 q 115 244 131 229 q 101 276 99 258 q 121 358 104 299 q 163 496 138 418 q 217 660 188 574 q 274 821 246 746 q 326 951 301 896 q 364 1019 350 1006 m 183 93 q 159 27 179 53 q 106 1 139 1 q 79 6 93 1 q 53 18 65 10 q 35 39 42 26 q 29 67 28 51 q 56 128 33 99 q 107 157 79 157 q 160 139 133 157 q 183 93 186 121 z "},"?":{"ha":606,"x_min":74,"x_max":603,"o":"m 228 93 q 206 27 225 53 q 153 1 186 1 q 126 6 140 1 q 101 18 113 10 q 81 39 89 26 q 75 67 74 51 q 99 128 78 99 q 149 157 121 157 q 202 139 175 157 q 228 93 229 121 m 601 756 q 578 652 603 704 q 514 549 553 600 q 430 447 475 497 q 344 351 385 397 q 277 265 304 306 q 247 190 250 224 q 231 185 247 183 q 194 198 214 188 q 160 226 175 208 q 146 268 144 243 q 174 334 147 296 q 238 415 200 372 q 319 506 275 458 q 401 602 363 554 q 465 697 439 650 q 494 786 492 743 q 482 827 497 810 q 435 844 467 844 q 351 825 389 844 q 285 778 313 806 q 241 718 257 750 q 224 661 225 686 q 225 639 222 647 q 231 626 228 631 q 238 619 235 622 q 242 613 242 617 q 235 599 240 604 q 224 594 229 594 q 199 605 215 594 q 165 635 182 615 q 135 683 149 656 q 121 746 122 711 q 141 813 121 776 q 197 881 161 849 q 282 934 233 913 q 386 956 331 956 q 485 938 444 956 q 551 890 525 919 q 588 826 576 861 q 601 756 600 790 z "},"<":{"ha":457,"x_min":61,"x_max":407,"o":"m 349 236 q 350 215 353 229 q 340 187 347 201 q 322 161 332 172 q 300 150 311 150 q 280 160 297 150 q 237 184 263 169 q 182 216 211 199 q 128 249 153 233 q 85 275 103 264 q 67 288 68 286 q 62 308 63 294 q 65 338 61 322 q 75 369 68 354 q 92 390 82 383 q 152 430 111 404 q 237 483 193 456 q 318 536 281 511 q 369 575 356 561 q 383 576 375 581 q 396 561 390 572 q 404 534 401 550 q 403 500 407 518 q 365 458 399 483 q 292 410 332 433 q 219 369 253 386 q 178 350 185 351 q 208 331 182 347 q 263 296 233 315 q 319 258 293 276 q 349 236 344 240 z "},">":{"ha":501,"x_min":75,"x_max":425,"o":"m 135 493 q 133 513 131 499 q 144 541 136 526 q 162 567 151 556 q 183 579 172 579 q 203 569 186 579 q 247 542 221 558 q 301 506 272 525 q 355 469 331 486 q 397 440 379 453 q 415 426 414 428 q 418 383 425 413 q 390 339 411 354 q 330 299 371 324 q 245 246 289 274 q 164 193 201 218 q 113 154 126 168 q 99 153 106 149 q 86 168 92 157 q 78 195 81 179 q 79 229 75 211 q 99 256 82 240 q 141 289 117 272 q 193 322 165 306 q 244 351 221 338 q 285 372 268 364 q 304 379 303 379 q 224 432 260 408 q 165 469 192 451 q 135 493 138 488 z "},"":{"ha":735,"x_min":68,"x_max":663,"o":"m 369 236 q 365 215 369 229 q 354 187 360 201 q 342 161 349 172 q 333 150 336 150 q 311 160 331 150 q 265 184 292 169 q 206 216 238 199 q 146 249 174 233 q 99 274 118 264 q 79 288 81 285 q 71 308 74 294 q 69 338 68 322 q 76 369 71 354 q 89 390 81 383 q 144 430 107 404 q 220 483 181 456 q 293 536 260 511 q 339 575 326 561 q 352 576 344 581 q 367 561 360 572 q 380 534 375 550 q 383 500 385 518 q 368 474 382 489 q 333 442 354 458 q 288 409 313 425 q 240 381 263 393 q 202 360 218 368 q 182 350 186 351 q 199 341 185 349 q 235 322 214 333 q 280 297 256 310 q 324 271 304 283 q 356 249 343 258 q 369 236 369 240 m 647 236 q 642 215 647 229 q 632 187 638 201 q 620 161 626 172 q 611 150 614 150 q 589 160 608 150 q 542 184 569 169 q 483 216 515 199 q 424 249 451 233 q 377 274 396 264 q 357 288 358 285 q 349 308 351 294 q 347 338 346 322 q 353 369 349 354 q 367 390 358 383 q 422 430 385 404 q 498 483 458 456 q 571 536 538 511 q 617 575 604 561 q 630 576 622 581 q 645 561 638 572 q 658 534 653 550 q 661 500 663 518 q 646 474 660 489 q 611 442 632 458 q 565 409 590 425 q 518 381 540 393 q 480 360 496 368 q 460 350 464 351 q 477 341 463 349 q 513 322 492 333 q 558 297 533 310 q 601 271 582 283 q 634 249 621 258 q 647 236 647 240 z "},"":{"ha":779,"x_min":99,"x_max":693,"o":"m 392 493 q 397 514 392 500 q 407 542 401 528 q 419 568 413 557 q 428 579 425 579 q 450 569 431 579 q 497 545 469 560 q 556 513 524 531 q 615 481 588 496 q 662 454 643 465 q 682 442 681 443 q 690 421 688 435 q 692 391 693 407 q 685 360 690 375 q 672 339 681 346 q 617 299 654 324 q 541 246 581 274 q 468 193 501 218 q 422 154 435 168 q 409 153 417 149 q 394 168 401 157 q 381 195 386 179 q 378 229 376 211 q 408 271 379 246 q 473 319 438 296 q 540 360 508 343 q 578 379 571 376 q 545 397 575 381 q 481 432 515 413 q 419 469 447 451 q 392 493 392 486 m 114 493 q 119 514 114 500 q 129 542 124 528 q 141 568 135 557 q 150 579 147 579 q 172 569 153 579 q 219 545 192 560 q 278 513 246 531 q 338 481 310 496 q 384 454 365 465 q 404 442 403 443 q 413 421 410 435 q 414 391 415 407 q 408 360 413 375 q 394 339 403 346 q 340 299 376 324 q 263 246 303 274 q 190 193 224 218 q 144 154 157 168 q 131 153 139 149 q 116 168 124 157 q 103 195 108 179 q 100 229 99 211 q 131 271 101 246 q 195 319 160 296 q 262 360 231 343 q 300 379 293 376 q 267 397 297 381 q 203 432 238 413 q 142 469 169 451 q 114 493 114 486 z "},"":{"ha":299,"x_min":-4,"x_max":213,"o":"m 211 3 q 197 -31 204 -4 q 188 -90 190 -58 q 183 -123 186 -101 q 174 -165 181 -144 q 153 -201 167 -186 q 117 -217 139 -217 q 67 -206 90 -217 q 28 -181 44 -196 q 4 -148 13 -165 q -3 -117 -4 -131 q 8 -94 0 -96 q 17 -92 15 -92 q 22 -96 18 -92 q 22 -112 25 -100 q 34 -131 21 -124 q 58 -137 47 -137 q 90 -117 76 -137 q 110 -47 104 -97 q 117 -3 113 -25 q 125 37 121 19 q 134 65 129 54 q 142 75 139 75 q 165 66 151 75 q 188 44 178 57 q 206 20 199 32 q 211 3 213 8 z "},"":{"ha":296,"x_min":24,"x_max":250,"o":"m 149 35 q 167 41 153 39 q 197 44 181 43 q 226 42 213 44 q 246 32 240 39 q 230 1 250 22 q 184 -47 210 -21 q 136 -101 158 -74 q 113 -147 114 -128 q 127 -161 111 -158 q 154 -157 143 -164 q 168 -148 163 -149 q 172 -149 174 -147 q 177 -156 174 -149 q 163 -176 181 -162 q 128 -190 151 -185 q 82 -192 106 -194 q 41 -178 58 -189 q 25 -144 24 -167 q 44 -94 26 -118 q 83 -49 61 -71 q 123 -6 104 -26 q 149 35 142 15 z "},"":{"ha":281,"x_min":78,"x_max":228,"o":"m 228 861 q 210 795 228 821 q 160 769 193 769 q 133 774 147 769 q 107 786 119 778 q 86 807 94 794 q 78 835 78 819 q 97 896 78 867 q 144 925 117 925 q 172 920 157 925 q 199 907 186 915 q 219 887 211 899 q 228 861 228 875 z "},"":{"ha":383,"x_min":110,"x_max":301,"o":"m 301 883 q 294 834 301 860 q 274 787 288 808 q 241 751 260 765 q 200 736 222 736 q 133 758 156 736 q 110 813 110 779 q 115 854 110 831 q 133 900 121 878 q 163 938 144 922 q 206 953 181 953 q 281 933 261 953 q 301 883 301 913 m 185 786 q 207 798 194 782 q 228 836 219 814 q 241 878 238 858 q 236 901 244 899 q 205 892 219 907 q 182 854 190 876 q 173 811 174 832 q 185 786 172 790 z "},"":{"ha":383,"x_min":67,"x_max":367,"o":"m 361 867 q 363 819 367 849 q 346 760 360 790 q 310 702 332 729 q 260 661 289 675 q 212 658 240 653 q 156 675 183 663 q 106 705 128 688 q 76 740 83 722 q 67 789 68 758 q 76 851 67 819 q 104 910 85 882 q 156 951 124 938 q 219 961 185 965 q 283 943 253 957 q 335 908 314 929 q 361 867 357 888 m 193 731 q 224 748 207 725 q 256 801 242 771 q 274 860 269 832 q 269 892 279 888 q 240 889 254 897 q 214 864 226 881 q 192 826 201 847 q 180 785 183 804 q 179 750 176 765 q 193 731 182 735 z "},"":{"ha":442,"x_min":-49,"x_max":396,"o":"m 103 -315 q 69 -318 94 -322 q 17 -304 43 -314 q -29 -283 -10 -294 q -42 -267 -49 -272 q -3 -203 -28 -253 q 50 -84 22 -153 q 107 63 78 -15 q 160 213 136 142 q 201 338 185 283 q 218 411 217 392 q 237 428 219 428 q 275 421 254 429 q 313 399 296 413 q 328 372 329 385 q 313 294 326 350 q 280 167 300 239 q 235 15 260 94 q 185 -133 210 -64 q 139 -253 161 -203 q 103 -315 117 -303 m 242 551 q 265 617 246 592 q 318 643 285 643 q 344 639 331 643 q 370 626 358 635 q 389 606 382 618 q 394 578 396 593 q 369 517 392 546 q 319 488 347 488 q 292 492 307 488 q 267 506 278 497 q 248 526 256 514 q 242 551 240 538 z "},"":{"ha":606,"x_min":-24,"x_max":536,"o":"m 382 549 q 407 615 386 589 q 461 640 428 640 q 487 636 474 640 q 512 624 500 632 q 530 603 524 615 q 535 575 536 590 q 509 514 532 543 q 458 485 486 485 q 406 503 432 485 q 382 549 379 521 m -18 -68 q 15 19 -14 -26 q 83 110 43 64 q 170 203 124 157 q 257 294 217 250 q 326 378 297 338 q 358 451 354 418 q 375 456 358 458 q 410 444 392 454 q 444 416 429 433 q 456 374 458 399 q 426 307 453 344 q 359 226 399 269 q 274 135 319 183 q 188 40 228 88 q 119 -56 147 -8 q 86 -144 90 -103 q 97 -185 83 -168 q 143 -203 111 -203 q 228 -183 189 -203 q 296 -136 267 -164 q 342 -76 325 -108 q 361 -19 358 -44 q 360 3 363 -6 q 355 15 358 11 q 349 22 351 19 q 346 29 346 25 q 353 42 347 38 q 365 47 360 47 q 391 35 374 47 q 425 3 408 24 q 453 -44 442 -17 q 461 -104 465 -72 q 433 -171 457 -135 q 374 -239 410 -207 q 296 -292 339 -271 q 211 -314 253 -314 q 126 -293 169 -314 q 49 -237 83 -272 q -4 -158 15 -203 q -18 -68 -24 -114 z "},"":{"ha":383,"x_min":35,"x_max":363,"o":"m 363 929 q 347 896 363 922 q 306 840 331 869 q 253 784 282 810 q 199 754 225 758 q 143 756 172 749 q 90 775 114 763 q 51 804 67 788 q 35 835 35 821 q 36 869 35 849 q 40 910 38 890 q 45 944 42 929 q 54 960 49 958 q 72 957 60 961 q 97 946 85 953 q 119 929 110 939 q 128 910 128 919 q 127 886 128 900 q 128 858 126 872 q 132 831 129 843 q 143 814 135 819 q 174 822 151 807 q 219 858 196 836 q 262 901 243 879 q 281 933 281 924 q 294 947 281 942 q 322 953 307 953 q 350 949 338 954 q 363 929 363 943 z "},"[":{"ha":515,"x_min":50,"x_max":663,"o":"m 654 939 q 638 935 651 936 q 606 933 625 933 q 565 931 588 932 q 519 929 542 929 q 476 809 501 879 q 422 658 451 739 q 360 489 392 576 q 298 320 328 401 q 242 167 268 239 q 200 44 217 94 q 252 43 229 43 q 278 43 275 43 q 291 28 285 43 q 301 -4 297 14 q 303 -40 304 -22 q 294 -64 301 -58 q 259 -69 290 -67 q 190 -72 228 -71 q 122 -74 153 -74 q 86 -74 90 -74 q 64 -58 72 -74 q 53 -24 56 -43 q 53 15 50 -4 q 65 42 57 33 q 108 172 81 92 q 167 344 135 251 q 237 537 200 438 q 307 726 274 636 q 368 888 340 815 q 413 1000 396 960 q 418 1034 413 1019 q 436 1049 424 1049 q 482 1048 450 1049 q 547 1047 514 1047 q 607 1047 581 1047 q 638 1046 633 1046 q 651 1031 644 1046 q 660 999 657 1017 q 662 963 663 981 q 654 939 661 944 z "},"]":{"ha":463,"x_min":-57,"x_max":525,"o":"m -50 36 q -36 39 -49 38 q -5 41 -24 40 q 37 43 14 42 q 81 44 60 44 q 121 165 97 94 q 172 316 144 235 q 229 484 200 397 q 286 652 258 571 q 338 805 314 733 q 378 928 361 876 q 326 928 349 928 q 300 929 303 929 q 286 944 293 929 q 276 976 279 958 q 273 1012 272 994 q 281 1036 274 1029 q 315 1041 283 1039 q 383 1044 346 1043 q 452 1045 421 1044 q 488 1046 483 1046 q 509 1031 500 1046 q 522 996 518 1015 q 523 958 525 976 q 513 931 521 939 q 474 800 499 879 q 418 628 449 721 q 354 436 388 535 q 290 249 321 338 q 232 88 258 160 q 190 -25 206 15 q 171 -57 182 -44 q 149 -69 160 -69 q 106 -69 135 -69 q 49 -70 78 -69 q -2 -71 21 -71 q -29 -71 -25 -71 q -43 -56 -36 -71 q -53 -24 -50 -42 q -57 12 -57 -6 q -50 36 -57 29 z "},"{":{"ha":410,"x_min":25,"x_max":588,"o":"m 582 957 q 567 950 574 950 q 555 952 561 950 q 542 958 549 954 q 526 961 535 961 q 476 937 497 963 q 437 869 454 911 q 404 774 419 826 q 372 672 389 722 q 335 580 356 622 q 289 515 315 538 q 290 431 300 479 q 260 328 281 382 q 216 220 240 274 q 174 123 192 167 q 149 49 156 79 q 158 11 143 18 q 180 1 167 6 q 189 -19 193 -4 q 171 -29 186 -28 q 135 -28 156 -31 q 93 -22 114 -26 q 58 -12 72 -18 q 25 44 25 3 q 42 138 25 85 q 88 250 60 190 q 137 364 115 310 q 167 460 158 418 q 154 521 175 503 q 129 538 139 529 q 121 554 119 547 q 140 567 124 569 q 168 564 157 565 q 205 599 188 563 q 240 689 222 635 q 277 807 257 743 q 324 925 297 871 q 385 1014 350 979 q 469 1046 421 1049 q 513 1033 490 1044 q 552 1006 535 1021 q 578 976 569 990 q 582 957 588 963 z "},"}":{"ha":417,"x_min":-108,"x_max":450,"o":"m -103 13 q -88 19 -94 19 q -76 17 -82 19 q -62 12 -69 15 q -47 8 -56 8 q 2 35 -19 7 q 42 108 24 63 q 75 209 60 153 q 108 318 90 265 q 145 415 125 371 q 192 481 165 458 q 190 566 181 515 q 217 673 199 617 q 259 785 236 729 q 299 888 282 842 q 324 967 317 935 q 315 1006 331 999 q 293 1016 306 1011 q 283 1036 281 1021 q 301 1046 285 1044 q 338 1045 317 1047 q 380 1039 358 1043 q 415 1029 401 1035 q 449 971 449 1013 q 433 874 450 929 q 388 756 415 818 q 340 638 361 693 q 311 538 319 582 q 325 475 303 493 q 351 458 340 467 q 361 443 361 450 q 354 433 360 436 q 342 431 349 431 q 327 432 335 431 q 314 433 319 433 q 276 397 293 435 q 242 301 260 358 q 203 176 224 243 q 156 51 183 108 q 93 -42 129 -6 q 8 -76 57 -79 q -34 -63 -12 -75 q -73 -36 -56 -51 q -99 -7 -90 -21 q -103 13 -108 7 z "},"~":{"ha":628,"x_min":90,"x_max":556,"o":"m 121 313 q 107 324 114 310 q 96 358 100 338 q 91 400 92 378 q 97 439 90 422 q 149 490 113 478 q 229 499 185 501 q 322 483 274 496 q 413 460 371 471 q 485 447 456 450 q 521 461 514 444 q 528 483 524 469 q 544 493 533 496 q 553 478 550 490 q 556 449 556 465 q 552 413 556 432 q 543 379 549 394 q 497 340 529 347 q 424 340 465 333 q 336 360 382 346 q 250 381 290 374 q 179 386 210 389 q 138 357 149 383 q 134 331 132 342 q 121 313 136 319 z "},"":{"ha":533,"x_min":156,"x_max":414,"o":"m 175 769 q 167 777 171 768 q 160 800 163 786 q 156 830 157 814 q 160 857 156 846 q 190 892 169 883 q 234 899 210 900 q 284 889 258 897 q 332 874 310 881 q 370 865 354 867 q 390 875 386 864 q 396 891 393 882 q 407 897 399 900 q 414 867 414 893 q 407 818 414 840 q 381 791 399 796 q 340 790 363 786 q 294 803 318 794 q 249 817 271 813 q 211 820 228 822 q 188 800 194 818 q 185 781 183 789 q 175 769 186 774 z "},"":{"ha":501,"x_min":76,"x_max":417,"o":"m 133 493 q 138 515 133 500 q 150 544 143 529 q 166 569 157 558 q 182 579 175 579 q 202 569 185 579 q 244 543 219 558 q 297 510 268 528 q 349 476 325 492 q 391 448 374 460 q 410 435 408 436 q 415 415 414 428 q 415 387 417 401 q 406 359 413 372 q 390 339 400 346 q 330 299 371 324 q 245 246 289 274 q 164 193 201 218 q 113 154 126 168 q 99 153 107 149 q 86 168 92 157 q 78 195 81 179 q 81 229 76 211 q 119 273 85 247 q 193 322 153 299 q 267 363 233 346 q 304 379 301 379 q 218 429 256 406 q 160 467 186 449 q 133 493 133 486 z "},"":{"ha":457,"x_min":61,"x_max":407,"o":"m 349 236 q 346 208 349 224 q 337 180 343 193 q 322 158 331 167 q 300 150 313 150 q 280 160 297 150 q 237 184 263 169 q 182 216 211 199 q 128 249 153 233 q 85 275 103 264 q 67 288 68 286 q 62 308 63 294 q 65 338 61 322 q 75 369 68 354 q 92 390 82 383 q 152 430 111 404 q 237 483 193 456 q 318 536 281 511 q 369 575 356 561 q 383 576 375 581 q 396 561 390 572 q 404 534 401 550 q 403 500 407 518 q 365 458 399 483 q 292 410 332 433 q 219 369 253 386 q 178 350 185 351 q 209 332 182 347 q 267 297 236 317 q 324 260 299 278 q 349 236 349 242 z "},"":{"ha":321,"x_min":-512,"x_max":704,"o":"m 704 768 q 698 734 704 753 q 682 702 692 715 q 661 683 672 689 q 640 688 650 678 q 639 694 638 690 q 644 703 640 699 q 651 712 647 707 q 654 722 654 717 q 643 740 654 732 q 602 754 632 749 q 521 763 572 760 q 390 765 469 765 q 340 765 367 765 q 288 763 314 764 q 220 601 253 688 q 163 431 188 515 q 122 273 138 347 q 107 149 107 199 q 110 124 107 133 q 119 111 114 115 q 128 106 124 107 q 133 104 132 104 q 172 131 149 104 q 219 200 194 158 q 269 289 244 242 q 317 378 294 336 q 355 447 339 419 q 378 474 371 474 q 380 438 386 474 q 355 351 374 403 q 308 237 336 299 q 245 123 279 175 q 173 35 211 71 q 96 0 135 0 q -3 44 38 0 q -43 182 -43 89 q -31 290 -43 225 q 1 433 -19 356 q 47 592 21 510 q 103 751 74 675 q -103 738 0 744 q -306 732 -207 732 q -457 769 -401 732 q -512 863 -512 806 q -504 913 -512 890 q -485 950 -496 935 q -465 974 -475 965 q -451 982 -456 982 q -449 965 -451 976 q -433 938 -446 953 q -393 906 -419 922 q -319 876 -367 889 q -200 853 -272 863 q -25 844 -128 844 l 140 844 q 213 990 178 933 q 274 1047 249 1047 q 328 1038 301 1047 q 375 1017 354 1029 q 408 992 396 1004 q 421 975 421 981 q 416 968 421 968 q 407 964 411 968 q 369 915 389 946 q 326 843 349 883 q 495 841 442 842 q 560 840 549 840 q 610 838 585 840 q 657 826 636 835 q 691 804 678 818 q 704 768 704 790 z "},"":{"ha":321,"x_min":-632,"x_max":586,"o":"m 586 738 q 579 715 586 724 q 561 699 572 706 q 538 690 550 693 q 514 688 525 688 q 458 688 483 688 q 406 692 433 689 q 344 699 378 694 q 265 713 311 704 q 205 560 233 640 q 155 404 176 481 q 120 261 133 328 q 107 149 107 194 q 110 124 107 133 q 119 111 114 115 q 128 106 124 107 q 133 104 132 104 q 172 131 149 104 q 219 200 194 158 q 269 289 244 242 q 317 378 294 336 q 355 447 339 419 q 378 474 371 474 q 380 438 386 474 q 355 351 374 403 q 308 237 336 299 q 245 123 279 175 q 173 35 211 71 q 96 0 135 0 q -3 44 38 0 q -43 182 -43 89 q -32 288 -43 224 q -1 428 -21 353 q 44 585 18 504 q 99 742 69 667 l -143 782 q -318 801 -246 799 q -440 799 -390 804 q -517 781 -489 793 q -561 756 -546 769 q -581 732 -576 743 q -586 715 -586 721 q -599 726 -590 715 q -615 753 -607 736 q -627 792 -622 769 q -628 843 -632 815 q -558 926 -618 899 q -403 939 -499 954 q -276 913 -342 928 q -142 882 -210 899 q -7 848 -75 865 q 126 814 61 831 q 168 906 147 864 q 208 980 189 949 q 243 1029 226 1011 q 274 1047 260 1047 q 328 1038 301 1047 q 375 1017 354 1029 q 408 992 396 1004 q 421 975 421 981 q 416 968 421 968 q 407 964 411 968 q 353 890 382 939 q 293 776 324 842 q 402 759 351 765 q 493 754 453 753 q 522 758 513 754 q 535 767 531 763 q 545 776 540 772 q 560 781 550 781 q 581 769 575 781 q 586 738 586 757 z "},"":{"ha":321,"x_min":-181,"x_max":1039,"o":"m -178 824 q -168 853 -175 842 q -146 863 -161 865 q -132 856 -136 861 q -124 846 -128 851 q -111 835 -119 840 q -83 826 -103 829 q 13 819 -40 819 q 131 822 67 818 q 170 912 150 871 q 209 983 190 953 q 244 1031 228 1014 q 274 1047 261 1047 q 328 1038 301 1047 q 375 1017 354 1029 q 408 992 396 1004 q 421 975 421 981 q 416 968 421 968 q 407 964 411 968 q 367 913 388 944 q 325 839 347 882 q 583 868 451 853 q 829 886 714 883 q 981 851 925 888 q 1039 760 1036 815 q 1031 710 1039 732 q 1013 672 1024 688 q 993 647 1003 656 q 979 639 983 639 q 976 656 979 644 q 960 683 974 668 q 920 714 947 699 q 846 742 893 729 q 726 761 799 754 q 550 767 654 768 l 286 760 q 219 599 251 685 q 163 429 188 513 q 122 272 138 346 q 107 149 107 199 q 110 124 107 133 q 119 111 114 115 q 128 106 124 107 q 133 104 132 104 q 172 131 149 104 q 219 200 194 158 q 269 289 244 242 q 317 378 294 336 q 355 447 339 419 q 378 474 371 474 q 380 438 386 474 q 355 351 374 403 q 308 237 336 299 q 245 123 279 175 q 173 35 211 71 q 96 0 135 0 q -3 44 38 0 q -43 182 -43 89 q -31 291 -43 225 q 1 434 -19 357 q 47 594 21 511 q 103 754 74 678 q 37 753 65 753 q -16 753 8 753 q -64 757 -40 754 q -114 764 -87 760 q -137 770 -125 765 q -158 782 -149 775 q -174 799 -168 789 q -178 824 -181 810 z "},"":{"ha":596,"x_min":-40,"x_max":596,"o":"m 6 650 q -2 658 -1 650 q 3 674 -3 665 q 19 690 8 682 q 44 697 29 697 l 82 697 q 134 831 107 768 q 187 942 161 894 q 235 1019 213 990 q 274 1047 257 1047 q 329 1039 303 1047 q 376 1019 356 1031 q 408 995 396 1007 q 421 975 421 983 q 417 967 421 968 q 407 964 413 967 q 383 935 399 958 q 349 877 368 913 q 306 796 329 842 q 261 697 283 750 l 294 696 q 330 697 319 696 q 343 699 340 699 q 346 701 346 700 q 350 703 346 703 q 354 689 356 703 q 344 658 353 675 q 320 628 335 642 q 285 614 306 614 q 260 617 276 614 q 231 622 244 621 q 185 498 207 561 q 147 373 164 435 q 121 253 131 311 q 111 149 111 196 q 126 90 111 108 q 157 72 140 72 q 220 101 186 72 q 288 176 254 129 q 351 283 321 224 q 406 404 382 343 q 443 524 429 465 q 457 625 457 582 q 445 706 457 679 q 419 743 433 732 q 394 757 406 754 q 382 767 382 760 q 392 781 382 778 q 413 785 401 785 q 553 740 511 785 q 596 599 596 696 q 579 490 596 553 q 532 358 563 426 q 459 223 501 290 q 365 103 417 156 q 256 17 314 50 q 135 -15 197 -15 q 73 -3 104 -15 q 17 33 42 8 q -24 94 -8 57 q -40 181 -40 131 q -33 272 -40 219 q -11 385 -25 325 q 22 510 3 446 q 61 639 40 575 q 29 646 46 642 q 6 650 13 650 z "},"":{"ha":567,"x_min":-104,"x_max":653,"o":"m 569 558 q 537 503 554 542 q 501 413 519 465 q 467 297 483 361 q 436 164 450 233 q 399 -29 417 74 q 397 -37 397 -32 q 506 -29 449 -32 q 613 -58 574 -26 q 653 -140 651 -90 q 647 -185 653 -165 q 635 -217 642 -204 q 621 -238 628 -231 q 611 -246 614 -246 q 606 -223 611 -240 q 578 -187 601 -206 q 506 -152 554 -168 q 371 -133 458 -136 q 297 -258 342 -217 q 193 -301 251 -299 q 131 -287 156 -303 q 90 -249 106 -272 q 69 -199 75 -226 q 61 -147 63 -171 l 61 -144 q 23 -148 36 -147 q -1 -149 10 -149 q -23 -147 -11 -149 q -56 -142 -35 -146 q -87 -126 -71 -139 q -101 -89 -104 -112 q -94 -62 -99 -74 q -78 -54 -89 -51 q -69 -60 -71 -56 q -63 -69 -67 -64 q -54 -78 -60 -74 q -35 -87 -49 -83 q 92 -90 24 -99 q 239 -65 161 -81 q 266 55 250 -19 q 306 249 282 129 q 258 156 283 201 q 206 76 233 111 q 152 21 179 42 q 100 0 125 0 q 3 44 42 0 q -35 181 -35 88 q -26 271 -35 219 q -1 377 -18 322 q 40 485 15 432 q 99 579 65 538 q 174 647 132 621 q 268 672 217 672 q 358 653 324 672 q 415 603 393 635 q 447 622 431 619 q 499 619 475 624 q 542 606 524 614 q 570 587 560 597 q 581 569 581 576 q 577 563 581 563 q 569 558 574 563 m 131 104 q 161 128 142 104 q 204 190 181 151 q 254 276 228 228 q 304 372 281 324 q 347 462 328 419 q 378 533 367 504 q 359 576 372 557 q 331 594 346 594 q 284 572 308 594 q 235 511 260 549 q 190 426 211 474 q 151 328 168 378 q 124 233 133 279 q 114 153 114 186 q 117 120 114 136 q 131 104 119 104 m 154 -212 q 190 -190 174 -211 q 219 -136 207 -169 l 115 -140 q 123 -190 115 -167 q 154 -212 131 -214 z "},"":{"ha":567,"x_min":-35,"x_max":581,"o":"m 569 558 q 538 502 554 540 q 504 413 521 464 q 472 303 488 363 q 443 184 457 243 q 417 69 429 125 q 399 -29 406 14 q 322 -231 375 -164 q 193 -301 268 -299 q 131 -287 156 -303 q 90 -249 106 -272 q 69 -199 75 -226 q 61 -147 63 -171 q 68 -120 61 -133 q 85 -97 75 -107 q 106 -80 96 -86 q 122 -74 117 -74 q 117 -144 115 -114 q 125 -192 118 -171 q 154 -212 132 -214 q 203 -173 182 -211 q 236 -79 224 -135 q 264 44 247 -35 q 306 249 281 124 q 258 156 283 201 q 206 76 233 111 q 152 21 179 42 q 100 0 125 0 q 3 44 42 0 q -35 181 -35 88 q -26 271 -35 219 q -1 377 -18 322 q 40 485 15 432 q 99 579 65 538 q 174 647 132 621 q 268 672 217 672 q 358 653 324 672 q 415 603 393 635 q 447 622 431 619 q 499 619 475 624 q 542 606 524 614 q 570 587 560 597 q 581 569 581 576 q 577 563 581 563 q 569 558 574 563 m 131 104 q 161 128 142 104 q 204 190 181 151 q 254 276 228 228 q 304 372 281 324 q 347 462 328 419 q 378 533 367 504 q 359 576 372 557 q 331 594 346 594 q 284 572 308 594 q 235 511 260 549 q 190 426 211 474 q 151 328 168 378 q 124 233 133 279 q 114 153 114 186 q 117 120 114 136 q 131 104 119 104 z "},"":{"ha":249,"x_min":-447,"x_max":407,"o":"m 253 592 q 215 531 235 572 q 176 434 196 489 q 140 316 157 379 q 107 190 122 253 q 79 70 92 128 q 60 -31 67 13 q 58 -37 58 -32 q 163 -29 108 -32 q 269 -58 231 -26 q 310 -140 308 -90 q 304 -185 310 -165 q 292 -217 299 -204 q 278 -238 285 -231 q 268 -246 271 -246 q 263 -223 268 -240 q 235 -187 258 -206 q 165 -152 213 -168 q 31 -133 117 -136 q -46 -257 0 -217 q -151 -300 -92 -297 q -212 -285 -187 -300 q -252 -246 -237 -269 q -274 -195 -267 -222 q -282 -144 -281 -168 q -319 -148 -307 -147 q -342 -149 -332 -149 q -365 -147 -353 -149 q -399 -142 -376 -146 q -431 -126 -414 -139 q -444 -89 -447 -112 q -437 -62 -442 -74 q -421 -54 -432 -51 q -412 -60 -414 -56 q -406 -69 -410 -64 q -397 -78 -403 -74 q -378 -87 -392 -83 q -249 -89 -319 -99 q -100 -64 -179 -79 q -74 38 -89 -29 q -42 186 -60 106 q -5 351 -25 267 q 38 503 15 435 q 84 617 60 572 q 133 664 108 663 q 185 659 161 665 q 226 642 208 653 q 253 621 243 632 q 264 603 264 610 q 260 596 264 596 q 253 592 257 596 m 175 847 q 188 903 178 872 q 211 962 199 933 q 235 1011 224 990 q 254 1039 247 1032 q 292 1047 264 1049 q 347 1036 319 1044 q 390 1015 374 1028 q 393 989 407 1003 q 377 967 388 983 q 355 928 367 950 q 331 883 343 907 q 307 838 318 858 q 288 804 296 818 q 279 789 281 790 q 254 785 272 783 q 218 794 236 786 q 186 815 200 801 q 175 847 172 828 m -190 -210 q -154 -189 -171 -210 q -124 -136 -137 -168 l -228 -140 q -221 -187 -228 -165 q -190 -210 -214 -210 z "},"":{"ha":249,"x_min":-282,"x_max":407,"o":"m 253 592 q 215 531 235 572 q 176 434 196 489 q 140 316 157 379 q 107 190 122 253 q 79 70 92 128 q 60 -31 67 13 q -22 -231 32 -165 q -151 -300 -76 -297 q -214 -285 -189 -300 q -253 -245 -239 -269 q -275 -193 -268 -221 q -282 -142 -282 -165 q -274 -115 -282 -128 q -256 -92 -267 -101 q -235 -76 -246 -82 q -218 -69 -224 -69 q -225 -140 -225 -110 q -219 -189 -225 -167 q -190 -210 -212 -211 q -141 -171 -162 -210 q -104 -76 -119 -132 q -80 26 -94 -42 q -47 176 -65 94 q -8 342 -29 257 q 38 499 14 428 q 85 615 61 569 q 133 664 110 661 q 185 659 161 665 q 226 642 208 653 q 253 621 243 632 q 264 603 264 610 q 260 596 264 596 q 253 592 257 596 m 175 847 q 188 903 178 872 q 211 962 199 933 q 235 1011 224 990 q 254 1039 247 1032 q 292 1047 264 1049 q 347 1036 319 1044 q 390 1015 374 1028 q 393 989 407 1003 q 377 967 388 983 q 355 928 367 950 q 331 883 343 907 q 307 838 318 858 q 288 804 296 818 q 279 789 281 790 q 254 785 272 783 q 218 794 236 786 q 186 815 200 801 q 175 847 172 828 z "},"":{"ha":565,"x_min":-39,"x_max":581,"o":"m 569 592 q 532 531 551 572 q 493 434 513 489 q 456 316 474 379 q 424 190 439 253 q 396 70 408 128 q 376 -31 383 13 q 294 -231 349 -165 q 165 -300 240 -297 q 103 -285 128 -300 q 63 -245 78 -269 q 42 -193 49 -221 q 35 -142 35 -165 q 42 -115 35 -128 q 60 -92 50 -101 q 82 -76 71 -82 q 99 -69 93 -69 q 92 -140 92 -110 q 98 -189 92 -167 q 126 -210 104 -211 q 176 -171 154 -210 q 213 -76 197 -132 q 242 47 225 -29 q 281 208 260 122 q 238 131 261 168 q 192 64 215 93 q 144 17 168 35 q 96 0 119 0 q -1 44 38 0 q -39 181 -39 88 q -31 270 -39 219 q -8 374 -22 321 q 25 480 7 428 q 62 573 43 532 q 99 639 81 614 q 132 664 118 664 q 185 657 161 664 q 226 640 208 650 q 253 620 243 631 q 263 603 263 610 q 260 596 263 596 q 251 592 257 596 q 215 528 239 579 q 168 408 192 476 q 127 268 144 340 q 110 140 110 196 q 116 109 110 114 q 126 104 122 104 q 169 144 143 104 q 226 238 196 183 q 285 348 257 292 q 335 439 314 404 q 361 527 347 486 q 390 598 375 568 q 419 646 404 628 q 450 664 435 664 q 501 659 478 665 q 542 642 525 653 q 570 621 560 632 q 581 603 581 610 q 577 596 581 596 q 569 592 574 596 z "},"":{"ha":565,"x_min":-126,"x_max":631,"o":"m 569 592 q 532 531 551 572 q 493 434 513 489 q 456 316 474 379 q 424 190 439 253 q 396 70 408 128 q 376 -31 383 13 q 375 -37 375 -33 q 483 -29 426 -32 q 590 -58 551 -26 q 631 -140 629 -90 q 625 -185 631 -165 q 613 -217 619 -204 q 599 -238 606 -231 q 589 -246 592 -246 q 584 -222 589 -240 q 556 -185 579 -204 q 483 -151 532 -167 q 347 -133 435 -136 q 269 -257 315 -217 q 165 -300 224 -297 q 103 -285 128 -300 q 64 -246 79 -269 q 42 -195 49 -222 q 35 -144 35 -168 q -1 -148 11 -147 q -23 -149 -12 -149 q -45 -147 -33 -149 q -78 -142 -57 -146 q -110 -126 -93 -139 q -124 -89 -126 -112 q -116 -62 -121 -74 q -100 -54 -111 -51 q -91 -60 -93 -56 q -85 -69 -89 -64 q -76 -78 -82 -74 q -57 -87 -71 -83 q 69 -90 1 -99 q 215 -65 138 -81 q 244 54 228 -18 q 281 208 261 126 q 238 131 261 168 q 192 64 215 93 q 144 17 168 35 q 96 0 119 0 q -1 44 38 0 q -39 181 -39 88 q -31 270 -39 219 q -8 374 -22 321 q 25 480 7 428 q 62 573 43 532 q 99 639 81 614 q 132 664 118 664 q 185 657 161 664 q 226 640 208 650 q 253 620 243 631 q 263 603 263 610 q 260 596 263 596 q 251 592 257 596 q 215 528 239 579 q 168 408 192 476 q 127 268 144 340 q 110 140 110 196 q 116 109 110 114 q 126 104 122 104 q 169 144 143 104 q 226 238 196 183 q 285 348 257 292 q 335 439 314 404 q 361 527 347 486 q 390 598 375 568 q 419 646 404 628 q 450 664 435 664 q 501 659 478 665 q 542 642 525 653 q 570 621 560 632 q 581 603 581 610 q 577 596 581 596 q 569 592 574 596 m 126 -210 q 163 -189 146 -210 q 193 -136 179 -168 l 90 -140 q 96 -187 89 -165 q 126 -210 103 -210 z "},"":{"ha":942,"x_min":-35,"x_max":926,"o":"m 461 617 q 514 610 490 617 q 555 594 538 603 q 582 574 572 585 q 592 556 592 564 q 588 549 592 549 q 581 544 585 550 q 547 492 569 533 q 500 394 524 451 q 459 272 476 338 q 442 149 442 207 q 456 90 442 108 q 488 72 471 72 q 551 101 517 72 q 618 176 585 129 q 682 283 651 224 q 736 404 713 343 q 774 524 760 465 q 788 625 788 582 q 776 706 788 679 q 750 743 764 732 q 724 757 736 754 q 713 767 713 760 q 722 781 713 778 q 743 785 732 785 q 884 740 842 785 q 926 599 926 696 q 910 490 926 553 q 863 358 893 426 q 790 223 832 290 q 696 103 747 156 q 586 17 644 50 q 465 -15 528 -15 q 403 -3 435 -15 q 347 33 372 8 q 306 94 322 57 q 290 181 290 131 q 290 200 290 190 q 292 221 290 210 q 247 138 271 178 q 198 67 222 97 q 149 18 174 36 q 100 0 124 0 q 3 44 42 0 q -35 181 -35 88 q -26 271 -35 219 q -1 377 -18 322 q 40 485 15 432 q 99 579 65 538 q 174 647 132 621 q 268 672 217 672 q 366 651 331 672 q 424 589 401 629 q 461 617 444 617 m 131 104 q 159 126 142 104 q 198 181 176 147 q 244 260 219 215 q 292 350 268 304 q 339 440 317 396 q 381 518 361 483 q 363 570 378 546 q 331 594 347 594 q 284 572 308 594 q 235 511 260 549 q 190 426 211 474 q 151 328 168 378 q 124 233 133 279 q 114 153 114 186 q 117 120 114 136 q 131 104 119 104 z "},"":{"ha":758,"x_min":-54,"x_max":750,"o":"m 274 1047 q 328 1038 301 1047 q 375 1017 354 1029 q 408 992 396 1004 q 421 975 421 981 q 416 968 421 968 q 407 964 411 968 q 337 860 378 933 q 255 694 296 786 q 178 503 214 601 q 122 328 143 406 q 134 361 124 333 q 161 427 144 389 q 200 508 178 465 q 248 588 222 551 q 301 649 274 625 q 357 672 329 672 q 453 628 415 672 q 492 492 492 585 q 474 356 492 435 q 422 200 457 276 q 511 213 467 207 q 603 221 556 218 q 710 192 671 224 q 750 110 749 160 q 744 65 750 85 q 732 33 739 46 q 718 12 725 19 q 708 4 711 4 q 702 31 708 11 q 667 70 696 50 q 576 105 638 90 q 406 117 515 119 q 390 116 397 117 q 375 115 382 115 q 293 32 339 64 q 189 0 247 0 q 116 12 144 0 q 65 46 88 24 q 55 19 58 31 q 47 4 51 8 q 22 0 39 -4 q -12 19 4 4 q -42 56 -29 33 q -54 108 -54 79 q -36 269 -54 174 q 11 468 -18 364 q 76 676 40 572 q 149 862 113 779 q 219 996 186 944 q 274 1047 251 1047 m 326 568 q 294 547 313 568 q 256 490 276 525 q 214 409 235 454 q 173 318 193 364 q 136 230 153 272 q 107 157 119 188 q 163 157 135 154 q 224 164 192 160 q 269 249 247 201 q 307 346 290 297 q 333 440 324 394 q 343 519 343 486 q 340 552 343 536 q 326 568 338 568 m 126 78 q 179 107 150 76 q 131 103 147 104 q 103 100 114 101 q 126 78 111 78 z "},"":{"ha":606,"x_min":-42,"x_max":632,"o":"m 292 417 q 288 428 285 417 q 299 455 292 439 q 314 490 306 471 q 327 526 322 510 q 329 553 332 542 q 313 564 326 564 q 258 540 283 564 q 209 479 232 517 q 168 396 186 442 q 138 303 150 350 q 118 216 125 257 q 111 149 111 175 q 126 90 111 108 q 157 72 140 72 q 233 97 193 72 q 310 164 272 122 q 381 259 347 206 q 439 369 414 313 q 478 480 464 425 q 493 578 493 535 q 481 658 493 632 q 456 696 469 685 q 430 710 442 707 q 418 719 418 713 q 428 734 418 731 q 449 738 438 738 q 590 693 547 738 q 632 551 632 649 q 613 446 632 506 q 558 323 593 386 q 477 199 524 260 q 375 91 431 139 q 258 14 319 43 q 135 -15 197 -15 q 52 6 86 -15 q -3 60 18 26 q -33 133 -24 93 q -42 213 -42 174 q -17 366 -42 285 q 49 515 8 447 q 143 628 90 583 q 253 672 196 672 q 310 658 283 672 q 356 622 336 644 q 385 569 375 599 q 396 510 396 540 q 383 476 396 493 q 352 447 369 460 q 317 425 335 433 q 292 417 300 417 z "},"":{"ha":931,"x_min":-35,"x_max":929,"o":"m 607 1047 q 663 1039 636 1047 q 709 1019 689 1031 q 742 995 729 1007 q 754 975 754 983 q 750 967 754 968 q 740 964 746 967 q 700 910 726 956 q 640 797 674 865 q 572 644 607 729 q 509 471 538 558 q 463 299 481 383 q 444 149 444 215 q 459 90 444 108 q 490 72 474 72 q 553 101 519 72 q 621 176 588 129 q 685 283 654 224 q 739 404 715 343 q 776 524 763 465 q 790 625 790 582 q 778 706 790 679 q 753 743 767 732 q 727 757 739 754 q 715 767 715 760 q 725 781 715 778 q 746 785 735 785 q 887 740 844 785 q 929 599 929 696 q 913 490 929 553 q 865 358 896 426 q 792 223 835 290 q 699 103 750 156 q 589 17 647 50 q 468 -15 531 -15 q 406 -3 438 -15 q 350 33 375 8 q 309 94 325 57 q 293 181 293 131 q 294 217 293 197 q 299 257 296 236 q 253 163 278 208 q 203 81 229 117 q 151 22 178 44 q 100 0 125 0 q 3 44 42 0 q -35 181 -35 88 q -26 271 -35 219 q -1 377 -18 322 q 40 485 15 432 q 99 579 65 538 q 174 647 132 621 q 268 672 217 672 q 341 661 311 672 q 392 631 371 650 q 449 787 418 711 q 508 920 479 863 q 563 1013 538 978 q 607 1047 589 1047 m 131 104 q 160 130 142 104 q 203 197 179 156 q 251 288 226 238 q 299 390 276 339 q 340 485 322 440 q 368 558 358 529 q 331 594 360 594 q 284 572 308 594 q 235 511 260 549 q 190 426 211 474 q 151 328 168 378 q 124 233 133 279 q 114 153 114 186 q 117 120 114 136 q 131 104 119 104 z "},"":{"ha":633,"x_min":-42,"x_max":632,"o":"m 125 279 q 111 217 114 243 q 108 164 108 190 q 129 92 108 113 q 169 72 150 72 q 242 97 204 72 q 315 164 279 122 q 383 259 350 206 q 440 369 415 313 q 478 479 464 425 q 493 578 493 533 q 481 658 493 632 q 456 696 469 685 q 430 710 442 707 q 418 719 418 713 q 428 734 418 731 q 449 738 438 738 q 590 693 547 738 q 632 551 632 649 q 612 446 632 506 q 557 323 592 386 q 475 199 522 260 q 373 91 428 139 q 258 14 318 43 q 139 -15 199 -15 q 56 6 90 -15 q -1 60 21 26 q -32 133 -22 93 q -42 213 -42 174 q -31 307 -42 256 q -2 410 -21 358 q 44 508 17 461 q 103 592 71 556 q 174 650 136 628 q 253 672 211 672 q 320 653 292 672 q 367 606 349 635 q 392 542 385 576 q 396 474 400 507 q 372 391 390 429 q 325 326 354 353 q 257 283 296 299 q 172 268 218 268 q 125 279 150 268 m 326 524 q 326 552 329 540 q 313 564 322 564 q 276 548 297 564 q 231 501 254 532 q 182 425 207 471 q 135 321 157 379 q 183 340 153 321 q 244 389 214 360 q 299 454 275 418 q 326 524 322 490 z "},"":{"ha":844,"x_min":-42,"x_max":838,"o":"m 481 474 q 481 440 486 474 q 460 357 475 407 q 572 376 514 368 q 690 386 629 383 q 797 357 758 389 q 838 275 836 325 q 832 231 838 250 q 819 198 826 211 q 806 177 813 185 q 796 169 799 169 q 790 196 796 176 q 754 235 783 215 q 664 270 725 256 q 493 282 603 285 q 462 281 476 281 q 433 281 447 281 q 387 179 414 231 q 326 87 360 128 q 253 19 293 46 q 168 -7 214 -7 q 13 54 68 -7 q -42 213 -42 115 q -31 304 -42 254 q -2 406 -21 354 q 43 505 17 457 q 102 590 69 553 q 173 650 135 628 q 253 672 211 672 q 320 653 292 672 q 367 606 349 635 q 392 542 385 576 q 396 474 400 507 q 331 332 385 386 q 366 338 349 335 q 403 346 383 342 q 449 436 429 399 q 481 474 468 474 m 117 224 q 127 127 110 165 q 176 89 144 89 q 232 105 206 89 q 282 147 258 121 q 327 208 306 174 q 368 278 349 242 q 258 272 293 274 q 203 271 222 271 q 171 272 185 271 q 124 274 157 272 q 119 249 121 261 q 117 224 118 236 m 326 524 q 326 552 329 540 q 313 564 322 564 q 276 549 297 564 q 232 506 254 533 q 188 442 210 479 q 149 363 165 406 l 138 332 l 135 324 q 144 324 135 322 q 156 326 154 326 q 206 356 178 335 q 259 404 233 376 q 303 463 285 432 q 326 524 322 494 z "},"":{"ha":596,"x_min":-108,"x_max":594,"o":"m -57 222 q -51 248 -56 238 q -37 256 -47 258 l -36 256 q 13 443 -14 349 q 69 626 40 538 q 128 790 99 714 q 185 924 157 867 q 238 1015 213 982 q 281 1047 263 1047 q 328 1039 303 1047 q 376 1019 354 1031 q 413 996 399 1008 q 428 975 428 983 q 422 968 428 968 q 414 964 417 968 q 358 896 389 944 q 296 781 328 847 q 233 637 264 714 q 176 483 203 560 q 128 338 149 407 q 99 219 108 268 q 181 233 138 224 q 272 251 225 242 q 367 269 318 261 q 468 279 417 276 q 560 251 526 282 q 594 172 593 221 q 590 130 594 149 q 580 98 586 111 q 567 78 574 85 q 558 71 561 71 q 553 97 558 78 q 522 135 547 115 q 444 168 497 154 q 297 179 392 182 q 199 175 239 176 q 131 171 158 174 q 149 94 143 142 q 153 -8 156 47 q 141 -119 151 -62 q 111 -220 131 -175 q 63 -294 92 -265 q -6 -322 33 -322 q -38 -316 -21 -322 q -72 -294 -56 -310 q -98 -253 -87 -278 q -108 -190 -108 -228 q -93 -21 -108 -121 q -51 194 -78 79 q -57 222 -57 204 m 83 122 q 72 97 81 122 q 54 32 64 71 q 35 -53 44 -7 q 19 -137 25 -99 q 13 -202 13 -176 q 21 -228 13 -228 q 44 -202 32 -228 q 67 -137 57 -176 q 85 -53 78 -99 q 96 32 93 -7 q 96 97 99 71 q 83 122 93 122 z "},"":{"ha":890,"x_min":-61,"x_max":888,"o":"m 424 664 q 476 657 453 664 q 517 641 500 650 q 544 622 535 632 q 554 603 554 611 q 551 597 554 596 q 543 592 547 597 q 509 532 532 581 q 463 417 486 483 q 421 279 439 351 q 403 149 403 207 q 417 90 403 108 q 449 72 432 72 q 512 101 478 72 q 579 176 546 129 q 643 283 613 224 q 697 404 674 343 q 735 524 721 465 q 749 625 749 582 q 737 706 749 679 q 711 743 725 732 q 685 757 697 754 q 674 767 674 760 q 683 781 674 778 q 704 785 693 785 q 845 740 803 785 q 888 599 888 696 q 871 490 888 553 q 824 358 854 426 q 751 223 793 290 q 657 103 708 156 q 547 17 606 50 q 426 -15 489 -15 q 365 -3 396 -15 q 308 33 333 8 q 267 94 283 57 q 251 181 251 131 q 268 310 251 235 q 308 460 285 386 q 215 313 258 393 q 138 163 172 233 q 78 46 104 93 q 33 -1 51 -1 q -2 8 15 -1 q -33 32 -19 17 q -53 67 -46 47 q -61 110 -61 88 q -51 206 -61 146 q -23 338 -40 265 q 18 492 -6 411 q 68 651 42 572 q 123 802 94 731 q 178 928 151 874 q 230 1015 206 982 q 274 1047 254 1047 q 328 1038 301 1047 q 375 1017 354 1029 q 408 992 396 1004 q 421 975 421 981 q 416 968 421 968 q 407 964 411 968 q 358 897 385 943 q 301 788 331 851 q 242 651 272 725 q 184 500 211 576 q 135 351 157 424 q 100 219 114 279 l 101 221 q 150 313 122 264 q 208 412 178 363 q 268 506 238 461 q 328 587 299 551 q 381 643 357 622 q 424 664 406 664 z "},"":{"ha":596,"x_min":-40,"x_max":596,"o":"m 201 847 q 215 903 204 872 q 238 962 225 933 q 262 1011 250 990 q 281 1039 274 1032 q 318 1047 290 1049 q 373 1036 346 1044 q 417 1015 400 1028 q 419 989 433 1003 q 403 967 414 983 q 381 928 393 950 q 357 883 369 907 q 333 838 344 858 q 315 804 322 818 q 306 789 307 790 q 281 785 299 783 q 244 794 263 786 q 213 815 226 801 q 201 847 199 828 m 132 664 q 185 657 161 664 q 226 641 208 650 q 253 622 243 632 q 263 603 263 611 q 259 597 263 596 q 251 592 256 597 q 217 532 240 581 q 171 417 194 483 q 129 279 147 351 q 111 149 111 207 q 126 90 111 108 q 157 72 140 72 q 220 101 186 72 q 288 176 254 129 q 351 283 321 224 q 406 404 382 343 q 443 524 429 465 q 457 625 457 582 q 445 706 457 679 q 419 743 433 732 q 394 757 406 754 q 382 767 382 760 q 392 781 382 778 q 413 785 401 785 q 553 740 511 785 q 596 599 596 696 q 579 490 596 553 q 532 358 563 426 q 459 223 501 290 q 365 103 417 156 q 256 17 314 50 q 135 -15 197 -15 q 73 -3 104 -15 q 17 33 42 8 q -24 94 -8 57 q -40 181 -40 131 q -31 270 -40 219 q -8 374 -22 321 q 24 480 6 428 q 61 573 42 532 q 99 639 81 614 q 132 664 118 664 z "},"":{"ha":835,"x_min":-61,"x_max":832,"o":"m 274 1047 q 328 1038 301 1047 q 375 1017 354 1029 q 408 992 396 1004 q 421 975 421 981 q 416 968 421 968 q 407 964 411 968 q 343 872 379 936 q 269 725 307 808 q 198 548 232 642 q 140 369 164 454 q 160 417 147 388 q 190 479 172 446 q 231 547 208 513 q 282 609 254 582 q 342 653 310 636 q 413 671 375 671 q 492 633 465 671 q 517 542 518 594 q 499 458 515 503 q 455 374 483 413 q 387 311 426 336 q 301 286 347 286 q 310 235 303 271 q 330 164 318 200 q 359 100 342 128 q 399 72 376 72 q 461 106 428 75 q 527 183 494 136 q 590 289 560 231 q 642 408 619 347 q 679 525 665 468 q 693 625 693 582 q 681 706 693 679 q 656 743 669 732 q 630 757 642 754 q 618 767 618 760 q 628 781 618 778 q 649 785 638 785 q 790 740 747 785 q 832 599 832 696 q 815 490 832 553 q 768 358 799 426 q 695 223 738 290 q 601 103 653 156 q 492 17 550 50 q 371 -15 433 -15 q 277 20 319 -15 q 205 103 235 56 q 160 198 175 151 q 147 268 144 244 q 121 199 135 244 q 92 110 107 154 q 63 32 78 65 q 33 -1 47 -1 q -2 8 15 -1 q -33 32 -19 17 q -53 67 -46 47 q -61 110 -61 88 q -43 251 -61 161 q 4 444 -25 340 q 70 656 33 549 q 144 850 107 763 q 215 992 181 938 q 274 1047 249 1047 m 197 339 q 256 362 224 339 q 317 418 289 385 q 363 489 344 451 q 382 556 382 526 q 368 583 382 583 q 317 551 347 583 q 258 478 288 519 q 206 397 229 436 q 178 342 183 357 q 197 339 192 339 z "},"":{"ha":596,"x_min":-40,"x_max":596,"o":"m 274 1047 q 329 1039 303 1047 q 376 1019 356 1031 q 408 995 396 1007 q 421 975 421 983 q 417 967 421 968 q 407 964 413 967 q 367 910 393 956 q 307 797 340 865 q 239 644 274 729 q 176 471 204 558 q 129 299 147 383 q 111 149 111 215 q 126 90 111 108 q 157 72 140 72 q 220 101 186 72 q 288 176 254 129 q 351 283 321 224 q 406 404 382 343 q 443 524 429 465 q 457 625 457 582 q 445 706 457 679 q 419 743 433 732 q 394 757 406 754 q 382 767 382 760 q 392 781 382 778 q 413 785 401 785 q 553 740 511 785 q 596 599 596 696 q 579 490 596 553 q 532 358 563 426 q 459 223 501 290 q 365 103 417 156 q 256 17 314 50 q 135 -15 197 -15 q 73 -3 104 -15 q 17 33 42 8 q -24 94 -8 57 q -40 181 -40 131 q -23 328 -40 240 q 22 512 -6 415 q 85 704 50 608 q 154 876 119 800 q 221 1000 189 953 q 274 1047 253 1047 z "},"":{"ha":1186,"x_min":-64,"x_max":1183,"o":"m 719 664 q 772 657 749 664 q 813 641 796 650 q 840 622 831 632 q 850 603 850 611 q 847 597 850 596 q 839 592 843 597 q 805 532 828 581 q 758 417 782 483 q 717 279 735 351 q 699 149 699 207 q 713 90 699 108 q 744 72 728 72 q 808 101 774 72 q 875 176 842 129 q 939 283 908 224 q 993 404 969 343 q 1031 524 1017 465 q 1044 625 1044 582 q 1033 706 1044 679 q 1007 743 1021 732 q 981 757 993 754 q 969 767 969 760 q 979 781 969 778 q 1000 785 989 785 q 1141 740 1099 785 q 1183 599 1183 696 q 1167 490 1183 553 q 1119 358 1150 426 q 1047 223 1089 290 q 953 103 1004 156 q 843 17 901 50 q 722 -15 785 -15 q 660 -3 692 -15 q 604 33 629 8 q 563 94 579 57 q 547 181 547 131 q 560 294 547 229 q 593 426 574 360 q 514 294 550 364 q 450 163 478 224 q 403 58 422 101 q 375 6 383 14 q 346 1 367 -3 q 303 22 325 6 q 266 63 282 38 q 250 122 250 89 q 267 293 250 210 q 307 454 285 376 q 218 317 258 392 q 146 175 178 242 q 93 61 114 108 q 64 6 72 14 q 34 1 56 -3 q -9 18 13 4 q -47 55 -31 32 q -64 107 -64 78 q -55 181 -64 136 q -33 277 -46 225 q -3 383 -19 329 q 26 485 13 438 q 48 569 39 532 q 57 622 57 606 q 60 655 57 646 q 86 664 63 664 q 120 660 97 664 q 166 647 143 656 q 206 625 189 639 q 224 593 224 611 q 209 541 224 582 q 174 444 194 500 q 130 322 153 388 q 92 196 107 257 q 138 289 111 238 q 194 392 164 340 q 255 493 224 444 q 315 580 286 542 q 370 641 344 618 q 415 664 396 664 q 468 657 444 664 q 509 640 492 650 q 536 620 526 631 q 546 603 546 610 q 542 596 546 596 q 535 592 539 596 q 503 538 524 581 q 461 435 482 494 q 422 310 440 376 q 396 188 403 244 q 440 269 414 221 q 494 369 465 317 q 555 475 524 422 q 616 569 586 528 q 672 638 646 611 q 719 664 699 664 z "},"":{"ha":903,"x_min":-64,"x_max":903,"o":"m 439 664 q 492 657 468 664 q 533 641 515 650 q 560 622 550 632 q 569 603 569 611 q 566 597 569 596 q 558 592 563 597 q 524 532 547 581 q 478 417 501 483 q 436 279 454 351 q 418 149 418 207 q 433 90 418 108 q 464 72 447 72 q 527 101 493 72 q 594 176 561 129 q 658 283 628 224 q 713 404 689 343 q 750 524 736 465 q 764 625 764 582 q 752 706 764 679 q 726 743 740 732 q 701 757 713 754 q 689 767 689 760 q 699 781 689 778 q 719 785 708 785 q 860 740 818 785 q 903 599 903 696 q 886 490 903 553 q 839 358 869 426 q 766 223 808 290 q 672 103 724 156 q 563 17 621 50 q 442 -15 504 -15 q 380 -3 411 -15 q 324 33 349 8 q 283 94 299 57 q 267 181 267 131 q 284 315 267 236 q 326 469 301 394 q 234 331 276 407 q 158 188 192 256 q 102 69 125 119 q 68 7 79 18 q 38 2 60 -1 q -7 20 15 6 q -47 58 -29 35 q -64 110 -64 81 q -55 183 -64 139 q -33 279 -46 228 q -3 384 -19 331 q 26 485 13 438 q 48 569 39 533 q 57 622 57 606 q 64 655 57 646 q 94 664 71 664 q 127 660 106 664 q 170 647 149 656 q 208 626 192 639 q 224 593 224 613 q 209 540 224 582 q 175 439 194 497 q 134 313 156 381 q 99 183 113 246 q 146 277 118 225 q 205 382 174 329 q 269 486 236 435 q 334 576 303 538 q 392 640 365 615 q 439 664 419 664 z "},"":{"ha":594,"x_min":-31,"x_max":586,"o":"m 386 224 q 338 134 365 176 q 278 60 310 92 q 210 11 246 29 q 140 -7 175 -7 q 18 47 67 -7 q -31 203 -31 101 q -8 365 -31 282 q 53 517 14 449 q 144 628 92 585 q 257 672 196 672 q 352 644 317 672 q 406 574 388 617 q 427 481 424 532 q 426 383 431 431 q 470 425 450 404 q 503 465 490 446 q 521 501 515 485 q 521 531 526 518 q 517 556 514 546 q 528 568 521 565 q 545 567 536 571 q 558 554 554 564 q 583 440 586 493 q 553 345 579 388 q 482 272 526 303 q 386 224 438 240 m 274 292 q 300 386 289 338 q 315 474 311 435 q 313 540 318 514 q 292 565 308 565 q 253 545 274 565 q 212 492 232 525 q 173 416 192 458 q 139 329 154 374 q 193 284 157 290 q 274 292 229 278 m 138 89 q 187 120 161 89 q 236 200 213 151 q 239 206 239 203 q 111 229 165 206 q 104 129 100 169 q 138 89 108 89 z "},"":{"ha":771,"x_min":-132,"x_max":763,"o":"m 232 593 q 221 556 232 586 q 192 479 210 525 q 152 374 175 433 q 106 251 129 315 q 158 370 131 313 q 213 478 185 428 q 241 528 224 499 q 280 587 258 558 q 326 635 301 615 q 378 654 351 654 q 474 610 436 654 q 513 474 513 567 q 500 363 513 426 q 464 233 488 299 q 538 243 500 239 q 615 249 576 247 q 722 219 683 251 q 763 138 761 188 q 757 93 763 113 q 744 60 751 74 q 731 40 738 47 q 721 32 724 32 q 715 58 721 39 q 680 97 708 78 q 592 131 651 117 q 424 144 532 146 q 333 28 386 75 q 210 -18 281 -18 q 123 -2 157 -18 q 67 44 89 14 q 28 -69 46 -14 q -2 -171 11 -124 q -24 -255 -15 -218 q -37 -312 -33 -292 q -56 -322 -40 -325 q -87 -305 -71 -319 q -118 -267 -104 -290 q -132 -214 -132 -243 q -117 -78 -132 -157 q -81 89 -103 1 q -33 265 -58 176 q 14 426 -8 353 q 51 553 36 500 q 65 622 65 606 q 72 655 65 646 q 103 664 79 664 q 135 660 114 664 q 178 647 157 656 q 216 626 200 639 q 232 593 232 613 m 347 550 q 304 514 332 550 q 244 423 276 478 q 178 304 211 368 q 121 185 146 240 q 194 186 157 182 q 274 197 232 190 q 308 276 292 235 q 338 358 325 318 q 357 435 350 399 q 364 501 364 472 q 361 534 364 518 q 347 550 358 550 m 147 60 q 192 80 168 58 q 239 138 215 101 q 179 133 201 135 q 142 131 157 132 q 119 128 128 129 q 100 129 110 128 q 115 80 100 100 q 147 60 129 60 z "},"":{"ha":736,"x_min":-90,"x_max":738,"o":"m 276 -15 q 205 1 238 -15 q 149 44 172 17 q 114 109 126 72 q 101 189 101 146 q 112 275 103 232 q 135 361 121 318 q 162 436 149 400 q 185 500 175 472 q 201 546 196 528 q 204 567 206 564 q 176 583 197 576 q 132 593 154 590 q 83 463 103 514 q 47 372 64 411 q 15 299 31 333 q -22 218 -1 264 l -90 218 q -45 308 -68 257 q -1 412 -22 358 q 38 518 19 465 q 71 615 56 571 q 51 667 47 631 q 59 701 53 683 q 76 733 65 718 q 103 756 88 747 q 142 765 119 765 q 166 741 161 765 q 160 660 171 717 q 233 653 194 657 q 303 640 272 649 q 354 615 335 631 q 369 571 374 599 q 342 494 361 543 q 302 388 322 446 q 267 268 282 329 q 251 156 251 207 q 261 96 251 119 q 299 72 271 72 q 362 101 328 72 q 429 176 396 129 q 493 283 463 224 q 547 404 524 343 q 585 523 571 465 q 599 625 599 581 q 587 706 599 679 q 561 743 575 732 q 535 757 547 754 q 524 767 524 760 q 533 781 524 778 q 554 785 543 785 q 695 740 653 785 q 738 599 738 696 q 721 490 738 553 q 674 358 704 426 q 601 223 643 290 q 507 103 558 156 q 397 17 456 50 q 276 -15 339 -15 z "},"":{"ha":614,"x_min":-97,"x_max":613,"o":"m 335 610 q 315 538 325 581 q 299 446 307 501 q 288 313 290 390 q 279 225 285 267 q 376 242 326 235 q 476 251 425 249 q 575 222 539 254 q 613 142 611 190 q 608 99 613 118 q 596 65 603 79 q 583 44 589 51 q 574 38 576 38 q 568 63 574 44 q 535 102 563 82 q 453 137 508 122 q 296 149 397 151 q 279 149 288 149 q 263 147 271 149 q 204 38 243 81 q 96 -4 165 -4 q 2 12 40 -4 q -58 53 -36 28 q -89 110 -81 78 q -93 174 -97 142 q -84 215 -90 197 q -71 236 -78 232 q -44 297 -60 260 q -9 379 -29 335 q 35 470 11 424 q 88 557 58 517 q 151 628 117 597 q 224 674 185 660 q 260 668 240 674 q 297 653 281 663 q 325 633 314 644 q 335 610 336 621 m 157 503 q 106 425 129 467 q 60 342 82 383 q 20 262 39 300 q -14 193 1 224 q 53 188 18 186 q 129 196 89 189 q 138 279 135 235 q 142 366 140 324 q 147 444 144 408 q 157 503 150 481 m 54 86 q 90 101 76 86 q 114 140 104 115 q 61 136 81 138 q 29 133 42 135 q 8 132 17 132 q -11 135 0 132 q 14 101 -1 115 q 54 86 29 86 z "},"":{"ha":911,"x_min":-39,"x_max":911,"o":"m 447 664 q 500 657 476 664 q 541 641 524 650 q 568 622 558 632 q 578 603 578 611 q 574 597 578 596 q 567 592 571 597 q 533 532 556 581 q 486 417 510 483 q 444 279 463 351 q 426 149 426 207 q 441 90 426 108 q 472 72 456 72 q 535 101 501 72 q 603 176 569 129 q 667 283 636 224 q 721 404 697 343 q 758 524 744 465 q 772 625 772 582 q 760 706 772 679 q 735 743 749 732 q 709 757 721 754 q 697 767 697 760 q 707 781 697 778 q 728 785 717 785 q 869 740 826 785 q 911 599 911 696 q 894 490 911 553 q 847 358 878 426 q 774 223 817 290 q 681 103 732 156 q 571 17 629 50 q 450 -15 513 -15 q 388 -3 419 -15 q 332 33 357 8 q 291 94 307 57 q 275 181 275 131 l 275 197 q 233 122 256 158 q 188 59 211 86 q 142 16 165 32 q 96 0 118 0 q -1 44 38 0 q -39 181 -39 88 q -31 270 -39 219 q -8 374 -22 321 q 25 480 7 428 q 62 573 43 532 q 99 639 81 614 q 132 664 118 664 q 185 657 161 664 q 226 640 208 650 q 253 620 243 631 q 263 603 263 610 q 260 596 263 596 q 251 592 257 596 q 215 528 239 579 q 168 408 192 476 q 127 268 144 340 q 110 140 110 196 q 116 109 110 114 q 126 104 122 104 q 164 136 140 104 q 214 214 188 168 q 267 312 240 260 q 315 404 293 364 q 347 501 329 454 q 382 584 364 547 q 417 642 400 621 q 447 664 433 664 z "},"":{"ha":606,"x_min":-3,"x_max":574,"o":"m 53 338 q 51 360 47 343 q 63 395 56 378 q 81 426 71 413 q 99 440 92 440 q 114 440 100 440 q 149 440 128 440 q 200 441 171 440 q 261 442 229 442 q 285 506 274 475 q 305 560 296 536 q 319 601 314 585 q 325 621 325 617 q 328 641 328 635 q 333 647 328 647 q 351 643 335 647 q 387 632 368 639 q 421 614 406 625 q 435 590 436 603 q 419 538 433 579 q 385 442 406 497 q 499 443 449 443 q 560 443 549 443 q 574 425 574 443 q 565 385 574 407 q 544 346 557 364 q 518 328 531 328 l 342 328 q 315 259 328 292 q 293 201 303 226 q 277 160 283 175 q 269 143 271 144 q 249 141 267 140 q 212 146 232 142 q 176 156 192 150 q 161 169 160 161 q 179 222 163 176 q 219 331 196 268 q 156 331 186 331 q 103 333 126 332 q 67 335 81 333 q 53 338 54 336 m 1 24 q 1 47 -3 29 q 13 83 4 65 q 31 116 21 101 q 47 131 40 131 q 78 131 50 131 q 149 131 107 131 q 241 132 192 132 q 335 133 290 132 q 413 133 379 133 q 456 133 446 133 q 469 115 469 133 q 461 74 469 96 q 439 33 453 51 q 413 14 425 14 q 379 14 410 14 q 303 15 349 14 q 206 16 258 15 q 110 17 154 17 q 34 19 65 18 q 1 24 3 21 z "},"":{"ha":692,"x_min":-43,"x_max":729,"o":"m 383 71 q 435 99 415 71 q 465 172 454 128 q 481 268 476 215 q 485 369 485 321 q 485 453 486 417 q 483 504 483 490 q 507 578 483 544 q 560 645 531 613 q 615 711 589 678 q 649 783 642 744 q 644 831 654 813 q 611 849 633 849 q 499 798 553 849 q 397 663 444 747 q 307 472 349 579 q 231 251 265 364 q 171 26 197 138 q 128 -174 144 -85 q 103 -324 111 -264 q 99 -397 96 -385 q 85 -419 104 -421 q 38 -401 65 -417 q -12 -365 11 -386 q -37 -331 -36 -344 q -37 -227 -43 -286 q -18 -100 -32 -168 q 26 106 -1 -8 q 93 339 54 221 q 182 569 132 457 q 292 768 232 681 q 422 908 351 856 q 572 961 492 961 q 649 944 618 961 q 697 901 679 926 q 722 846 714 875 q 729 793 729 817 q 717 697 729 738 q 688 624 704 656 q 656 566 672 592 q 632 517 640 540 q 619 437 621 489 q 628 285 618 385 q 622 166 633 224 q 583 64 610 108 q 515 -8 556 19 q 419 -35 474 -35 q 326 -19 363 -35 q 267 23 289 -3 q 239 81 246 49 q 238 144 232 113 q 257 190 243 175 q 284 203 271 204 q 306 185 297 201 q 310 138 315 168 q 331 92 317 113 q 383 71 346 71 z "},"":{"ha":740,"x_min":-35,"x_max":739,"o":"m 569 558 q 500 406 539 524 q 424 106 461 289 q 481 140 451 124 q 543 172 511 157 q 653 188 606 201 q 722 131 701 175 q 735 88 732 108 q 738 52 739 68 q 733 27 736 36 q 726 17 729 18 q 710 38 724 22 q 663 60 697 54 q 566 56 628 67 q 404 -3 504 44 l 403 -3 l 399 -29 q 322 -231 375 -164 q 193 -301 268 -299 q 133 -290 157 -303 q 94 -254 110 -276 q 70 -206 78 -232 q 61 -157 63 -181 q 32 -151 46 -158 q 11 -126 18 -144 q 8 -99 7 -111 q 19 -85 8 -87 q 30 -86 26 -83 q 38 -92 33 -89 q 51 -99 43 -96 q 72 -99 58 -101 q 160 -65 115 -87 q 251 -10 204 -42 l 306 249 q 258 156 283 201 q 206 76 233 111 q 152 21 179 42 q 100 0 125 0 q 3 44 42 0 q -35 181 -35 88 q -26 271 -35 219 q -1 377 -18 322 q 40 485 15 432 q 99 579 65 538 q 174 647 132 621 q 268 672 217 672 q 358 653 324 672 q 415 603 393 635 q 447 622 431 619 q 499 619 475 624 q 542 606 524 614 q 570 587 560 597 q 581 569 581 576 q 577 563 581 563 q 569 558 574 563 m 131 104 q 161 128 142 104 q 204 190 181 151 q 254 276 228 228 q 304 372 281 324 q 347 462 328 419 q 378 533 367 504 q 359 576 372 557 q 331 594 346 594 q 284 572 308 594 q 235 511 260 549 q 190 426 211 474 q 151 328 168 378 q 124 233 133 279 q 114 153 114 186 q 117 120 114 136 q 131 104 119 104 m 154 -212 q 202 -174 182 -211 q 235 -85 222 -137 q 184 -110 203 -100 q 153 -127 165 -121 q 133 -137 140 -133 q 115 -144 125 -142 q 123 -192 115 -169 q 154 -212 131 -214 z "},"":{"ha":407,"x_min":-335,"x_max":407,"o":"m 253 592 q 179 435 224 560 q 89 110 135 310 q 201 172 140 143 q 312 188 264 201 q 381 131 360 175 q 394 88 390 108 q 396 52 397 68 q 391 27 394 36 q 385 17 388 18 q 369 38 382 22 q 321 60 356 53 q 225 56 286 67 q 65 -1 164 44 q 62 -16 63 -8 q 60 -31 61 -24 q -22 -231 32 -165 q -151 -300 -76 -297 q -210 -287 -186 -300 q -249 -253 -233 -274 q -272 -206 -264 -232 q -281 -157 -279 -181 q -310 -151 -296 -158 q -331 -126 -324 -144 q -334 -99 -335 -111 q -322 -85 -333 -87 q -312 -86 -315 -83 q -303 -92 -308 -89 q -291 -99 -299 -96 q -269 -99 -283 -101 q -180 -64 -225 -87 q -86 -8 -135 -40 q -61 95 -75 31 q -31 235 -47 160 q 5 386 -14 310 q 44 524 24 463 q 88 625 65 586 q 133 664 110 664 q 185 659 161 665 q 226 642 208 653 q 253 621 243 632 q 264 603 264 610 q 260 596 264 596 q 253 592 257 596 m 175 847 q 188 903 178 872 q 211 962 199 933 q 235 1011 224 990 q 254 1039 247 1032 q 292 1047 264 1049 q 347 1036 319 1044 q 390 1015 374 1028 q 393 989 407 1003 q 377 967 388 983 q 355 928 367 950 q 331 883 343 907 q 307 838 318 858 q 288 804 296 818 q 279 789 281 790 q 254 785 272 783 q 218 794 236 786 q 186 815 200 801 q 175 847 172 828 m -190 -210 q -142 -173 -162 -210 q -106 -83 -121 -136 q -157 -110 -137 -100 q -189 -128 -176 -121 q -210 -139 -201 -135 q -228 -146 -218 -143 q -220 -190 -228 -169 q -190 -210 -212 -210 z "},"":{"ha":714,"x_min":-39,"x_max":714,"o":"m 569 592 q 496 435 540 560 q 406 110 451 310 q 518 172 457 143 q 628 188 581 201 q 697 131 676 175 q 710 88 707 108 q 713 52 714 68 q 708 27 711 36 q 701 17 704 18 q 685 38 699 22 q 638 60 672 53 q 542 56 603 67 q 382 -1 481 44 q 378 -16 379 -8 q 376 -31 378 -24 q 294 -231 349 -165 q 165 -300 240 -297 q 107 -287 131 -300 q 68 -253 83 -274 q 44 -206 53 -232 q 35 -157 36 -181 q 7 -151 21 -158 q -14 -126 -7 -144 q -17 -99 -18 -111 q -6 -85 -17 -87 q 5 -86 1 -83 q 13 -92 8 -89 q 26 -99 18 -96 q 47 -99 33 -101 q 136 -64 92 -87 q 229 -8 181 -40 q 253 92 240 36 q 281 208 265 149 q 238 131 261 168 q 192 64 215 93 q 144 17 168 35 q 96 0 119 0 q -1 44 38 0 q -39 181 -39 88 q -31 270 -39 219 q -8 374 -22 321 q 25 480 7 428 q 62 573 43 532 q 99 639 81 614 q 132 664 118 664 q 185 657 161 664 q 226 640 208 650 q 253 620 243 631 q 263 603 263 610 q 260 596 263 596 q 251 592 257 596 q 215 528 239 579 q 168 408 192 476 q 127 268 144 340 q 110 140 110 196 q 116 109 110 114 q 126 104 122 104 q 169 144 143 104 q 226 238 196 183 q 285 348 257 292 q 335 439 314 404 q 361 527 347 486 q 390 598 375 568 q 419 646 404 628 q 450 664 435 664 q 501 659 478 665 q 542 642 525 653 q 570 621 560 632 q 581 603 581 610 q 577 596 581 596 q 569 592 574 596 m 126 -210 q 174 -173 154 -210 q 210 -83 194 -136 q 159 -110 178 -100 q 128 -127 140 -121 q 108 -137 115 -133 q 90 -144 100 -142 q 96 -189 89 -168 q 126 -210 103 -210 z "},"":{"ha":1481,"x_min":17,"x_max":1457,"o":"m 31 167 q 126 207 53 189 q 309 238 200 225 q 555 258 418 250 q 841 268 692 265 q 1144 267 990 271 q 1440 256 1297 264 q 1456 244 1454 256 q 1452 220 1457 233 q 1438 196 1447 207 q 1424 185 1429 185 q 903 186 1142 199 q 486 151 664 174 q 203 107 308 129 q 83 78 97 85 q 63 81 76 71 q 37 108 49 92 q 21 142 25 125 q 31 167 17 160 z "},"":{"ha":1231,"x_min":8,"x_max":1228,"o":"m 11 163 q 21 192 14 181 q 43 201 28 204 q 57 195 53 200 q 65 185 61 190 q 78 174 69 179 q 106 165 86 168 q 289 159 179 153 q 523 179 399 165 q 776 208 647 193 q 1018 225 906 222 q 1169 190 1114 226 q 1228 99 1225 154 q 1220 49 1228 71 q 1202 10 1213 26 q 1182 -14 1192 -6 q 1168 -22 1172 -22 q 1165 -5 1168 -17 q 1149 22 1163 7 q 1109 53 1136 38 q 1035 81 1082 68 q 915 100 988 93 q 739 106 843 107 q 527 100 615 103 q 376 95 439 97 q 272 92 314 93 q 197 92 229 92 q 136 95 164 93 q 75 103 108 97 q 52 109 64 104 q 31 121 40 114 q 15 138 21 128 q 11 163 8 149 z "},"":{"ha":306,"x_min":-40,"x_max":369,"o":"m 132 664 q 184 657 160 664 q 226 640 208 650 q 253 620 243 631 q 263 603 263 610 q 259 596 263 596 q 251 592 256 596 q 215 528 239 579 q 167 408 192 476 q 126 268 143 340 q 108 140 108 196 q 115 108 108 113 q 125 104 121 104 q 160 131 139 104 q 204 200 181 158 q 253 289 228 242 q 299 378 278 336 q 338 447 321 419 q 360 474 354 474 q 363 438 369 474 q 339 351 357 403 q 293 237 321 299 q 233 123 265 175 q 165 35 200 71 q 94 0 129 0 q -2 44 36 0 q -40 181 -40 88 q -32 270 -40 219 q -9 374 -24 321 q 24 480 6 428 q 61 573 42 532 q 99 639 81 614 q 132 664 117 664 z "},"\"":{"ha":326,"x_min":53,"x_max":314,"o":"m 313 903 q 297 861 310 888 q 266 809 283 835 q 233 764 249 783 q 210 744 217 744 q 181 756 190 744 q 174 776 172 768 q 183 799 174 781 q 203 842 192 818 q 223 889 214 865 q 235 928 232 913 q 235 951 238 944 q 235 958 233 957 q 238 963 235 960 q 249 965 242 965 q 268 959 257 965 q 290 943 279 953 q 307 923 300 933 q 313 903 314 913 m 193 903 q 177 861 190 888 q 147 809 164 835 q 113 764 129 783 q 90 744 97 744 q 62 756 71 744 q 54 776 53 768 q 63 799 54 781 q 83 842 72 818 q 103 889 94 865 q 115 928 113 913 q 117 951 118 944 q 117 958 115 957 q 119 963 117 960 q 129 965 122 965 q 149 959 138 965 q 170 943 160 953 q 188 923 181 933 q 193 903 194 913 z "},"/":{"ha":504,"x_min":-15,"x_max":654,"o":"m -14 40 q 13 102 -12 53 q 78 225 38 151 q 169 388 118 299 q 274 567 221 476 q 379 744 328 658 q 471 898 431 831 q 537 1006 511 965 q 564 1046 563 1046 q 590 1043 574 1046 q 619 1034 606 1040 q 644 1019 633 1028 q 654 997 654 1010 q 630 950 654 993 q 566 838 606 907 q 475 682 526 769 q 370 503 424 594 q 265 322 317 411 q 172 162 213 233 q 105 43 131 90 q 76 -12 79 -4 q 71 -33 72 -26 q 64 -37 69 -39 q 50 -30 63 -37 q 23 -11 38 -22 q -3 14 8 0 q -14 40 -15 28 z "},"":{"ha":999,"x_min":-19,"x_max":1063,"o":"m 653 182 q 661 265 653 218 q 686 361 669 313 q 713 436 700 400 q 737 500 726 472 q 752 546 747 528 q 756 567 757 564 q 727 583 749 576 q 683 593 706 590 q 641 462 665 533 q 585 317 617 390 q 515 176 554 244 q 426 54 475 107 q 319 -31 378 1 q 189 -62 260 -62 q 101 -41 140 -62 q 35 19 63 -19 q -6 111 8 57 q -19 231 -19 165 q -1 392 -19 308 q 49 556 17 475 q 125 708 81 636 q 221 835 169 781 q 330 922 272 890 q 446 954 388 954 q 529 935 496 954 q 582 888 563 915 q 609 830 601 861 q 617 776 617 799 q 596 690 617 733 q 544 608 575 647 q 477 534 514 568 q 409 474 440 500 q 356 434 378 449 q 331 419 333 419 q 336 439 325 419 q 367 490 347 458 q 413 561 388 521 q 463 644 439 601 q 503 727 486 686 q 525 800 521 768 q 507 824 529 824 q 431 794 472 824 q 350 715 390 765 q 272 599 310 665 q 204 460 233 533 q 158 312 175 388 q 140 168 140 236 q 163 83 140 114 q 229 53 185 53 q 327 83 282 53 q 411 160 372 113 q 482 269 450 208 q 540 393 514 331 q 587 514 567 456 q 622 615 607 572 q 603 667 599 631 q 610 701 604 683 q 628 733 617 718 q 655 756 639 747 q 693 765 671 765 q 717 741 713 765 q 711 660 722 717 q 785 653 746 657 q 855 640 824 649 q 906 615 886 631 q 921 571 925 599 q 911 538 919 560 q 890 487 903 517 q 864 419 878 457 q 838 339 850 382 q 812 233 822 286 q 801 140 801 181 q 808 109 801 114 q 818 104 814 104 q 853 131 832 104 q 897 200 874 158 q 946 289 921 242 q 992 378 971 336 q 1030 447 1014 419 q 1053 474 1046 474 q 1056 438 1063 474 q 1031 351 1049 403 q 986 237 1014 299 q 926 123 958 175 q 858 35 893 71 q 788 0 822 0 q 691 44 729 0 q 653 182 653 89 z "},"":{"ha":1035,"x_min":-35,"x_max":1099,"o":"m 689 182 q 697 265 689 218 q 722 361 706 313 q 749 436 736 400 q 773 500 763 472 q 788 546 783 528 q 792 567 793 564 q 763 583 785 576 q 719 593 742 590 q 676 451 706 525 q 605 306 646 378 q 513 171 564 235 q 404 58 461 107 q 287 -20 347 8 q 167 -49 226 -49 q 97 -38 133 -49 q 32 -3 61 -28 q -16 65 3 22 q -35 172 -35 107 q -4 308 -35 236 q 73 443 26 379 q 177 556 119 507 q 289 625 235 606 q 240 689 258 654 q 226 763 222 724 q 254 828 229 789 q 318 905 279 868 q 406 967 357 942 q 507 993 454 993 q 561 976 538 994 q 600 934 585 958 q 623 885 615 910 q 629 846 631 860 q 602 798 626 822 q 549 754 578 774 q 499 724 521 735 q 476 718 476 713 q 494 744 476 721 q 531 797 511 768 q 565 851 550 825 q 574 882 579 876 q 535 880 567 890 q 467 842 503 869 q 399 773 431 815 q 363 675 368 731 q 368 635 360 653 q 423 618 394 631 q 474 592 451 606 q 512 565 497 578 q 526 546 526 551 q 520 521 524 526 q 510 517 517 515 q 492 523 503 518 q 468 528 482 528 q 396 508 435 528 q 319 456 357 489 q 245 383 281 424 q 182 299 210 342 q 138 214 154 256 q 122 140 122 172 q 142 82 122 103 q 200 61 161 61 q 313 88 258 61 q 414 160 367 115 q 501 263 461 204 q 573 382 542 321 q 626 504 604 443 q 658 615 647 565 q 639 667 635 631 q 647 701 640 683 q 664 733 653 718 q 691 756 675 747 q 729 765 707 765 q 753 741 749 765 q 747 660 758 717 q 821 653 782 657 q 891 640 860 649 q 942 615 922 631 q 957 571 961 599 q 947 538 956 560 q 926 487 939 517 q 900 419 914 457 q 874 339 886 382 q 848 233 858 286 q 838 140 838 181 q 844 109 838 114 q 854 104 850 104 q 889 131 868 104 q 933 200 910 158 q 982 289 957 242 q 1028 378 1007 336 q 1066 447 1050 419 q 1089 474 1082 474 q 1092 438 1099 474 q 1067 351 1085 403 q 1022 237 1050 299 q 962 123 994 175 q 894 35 929 71 q 824 0 858 0 q 727 44 765 0 q 689 182 689 89 z "},"":{"ha":942,"x_min":-31,"x_max":1006,"o":"m 596 182 q 604 265 596 218 q 629 361 613 313 q 656 436 643 400 q 680 500 669 472 q 695 546 690 528 q 699 567 700 564 q 670 583 692 576 q 626 593 649 590 q 593 483 611 547 q 549 362 575 419 q 483 264 522 304 q 386 224 444 224 q 338 134 365 176 q 278 60 310 92 q 210 11 246 29 q 140 -7 175 -7 q 18 47 67 -7 q -31 203 -31 101 q -8 365 -31 282 q 53 517 14 449 q 144 628 92 585 q 257 672 196 672 q 337 654 304 672 q 390 606 369 636 q 419 538 410 576 q 430 459 428 499 q 427 381 432 419 q 415 311 422 342 q 475 374 451 335 q 515 456 499 413 q 543 543 532 500 q 565 615 554 586 q 546 667 542 631 q 553 701 547 683 q 571 733 560 718 q 598 756 582 747 q 636 765 614 765 q 660 741 656 765 q 654 660 665 717 q 728 653 689 657 q 798 640 767 649 q 849 615 829 631 q 864 571 868 599 q 854 538 863 560 q 833 487 846 517 q 807 419 821 457 q 781 339 793 382 q 755 233 765 286 q 744 140 744 181 q 751 109 744 114 q 761 104 757 104 q 796 131 775 104 q 840 200 817 158 q 889 289 864 242 q 935 378 914 336 q 973 447 957 419 q 996 474 989 474 q 999 438 1006 474 q 974 351 992 403 q 929 237 957 299 q 869 123 901 175 q 801 35 836 71 q 731 0 765 0 q 634 44 672 0 q 596 182 596 89 m 138 89 q 187 120 161 89 q 236 200 213 151 q 208 214 215 200 q 203 244 200 228 q 217 274 206 260 q 247 288 229 288 l 272 288 q 300 383 289 333 q 315 473 311 432 q 314 540 319 514 q 292 565 308 565 q 240 530 268 565 q 185 442 211 494 q 139 327 160 389 q 109 213 118 265 q 106 124 100 160 q 138 89 111 89 z "},"":{"ha":988,"x_min":-31,"x_max":1051,"o":"m 776 0 q 690 1 733 1 q 611 1 647 1 q 551 1 575 1 q 524 1 528 0 q 503 12 515 3 q 481 35 492 21 q 462 65 469 49 q 457 100 454 82 q 501 192 461 133 q 597 317 540 250 q 716 449 653 383 q 832 565 779 515 q 757 561 796 561 q 676 563 711 561 q 624 572 640 564 q 583 453 604 510 q 535 349 563 396 q 471 269 507 301 q 386 224 435 236 q 338 134 365 176 q 278 60 310 92 q 210 11 246 29 q 140 -7 175 -7 q 18 47 67 -7 q -31 203 -31 101 q -8 365 -31 282 q 53 517 14 449 q 144 628 92 585 q 257 672 196 672 q 337 654 304 672 q 390 606 369 636 q 419 538 410 576 q 430 459 428 499 q 427 381 432 419 q 415 311 422 342 q 477 378 453 338 q 518 463 501 418 q 547 555 535 508 q 574 639 560 601 q 592 670 581 664 q 617 671 604 676 q 672 658 633 665 q 760 650 711 650 q 883 657 832 650 q 938 664 933 664 q 960 656 946 664 q 990 635 975 647 q 1014 610 1004 624 q 1022 585 1024 596 q 992 529 1019 565 q 924 447 965 493 q 831 348 882 400 q 731 246 781 296 q 701 214 724 239 q 658 162 678 189 q 629 113 638 135 q 646 92 621 92 q 688 92 660 92 q 746 94 715 92 q 815 126 781 97 q 879 197 849 156 q 936 288 910 239 q 983 378 963 336 q 1019 447 1004 419 q 1042 474 1035 474 q 1044 438 1051 474 q 1019 351 1038 403 q 974 237 1001 299 q 915 123 947 175 q 846 35 882 71 q 776 0 810 0 m 138 89 q 187 120 161 89 q 236 200 213 151 q 208 214 215 200 q 203 244 200 228 q 217 274 206 260 q 247 288 229 288 l 272 288 q 300 383 289 333 q 315 473 311 432 q 314 540 319 514 q 292 565 308 565 q 240 530 268 565 q 185 442 211 494 q 139 327 160 389 q 109 213 118 265 q 106 124 100 160 q 138 89 111 89 z "},"":{"ha":993,"x_min":-54,"x_max":1057,"o":"m 396 146 q 308 40 358 79 q 189 0 258 0 q 116 12 144 0 q 65 46 88 24 q 55 19 58 31 q 47 4 51 8 q 22 0 39 -4 q -12 19 4 4 q -42 56 -29 33 q -54 108 -54 79 q -36 269 -54 174 q 11 468 -18 364 q 76 676 40 572 q 149 862 113 779 q 219 996 186 944 q 274 1047 251 1047 q 328 1038 301 1047 q 375 1017 354 1029 q 408 992 396 1004 q 421 975 421 981 q 416 968 421 968 q 407 964 411 968 q 337 860 378 933 q 255 694 296 786 q 178 503 214 601 q 122 328 143 406 q 134 361 124 333 q 161 427 144 389 q 200 508 178 465 q 248 588 222 551 q 301 649 274 625 q 357 672 329 672 q 453 628 415 672 q 492 492 492 585 q 476 365 492 439 q 431 218 461 290 q 492 269 464 224 q 542 377 519 315 q 583 505 565 439 q 617 615 601 571 q 597 667 593 631 q 605 701 599 683 q 622 733 611 718 q 649 756 633 747 q 688 765 665 765 q 712 741 707 765 q 706 660 717 717 q 779 653 740 657 q 849 640 818 649 q 900 615 881 631 q 915 571 919 599 q 906 538 914 560 q 885 487 897 517 q 858 419 872 457 q 832 339 844 382 q 806 233 817 286 q 796 140 796 181 q 802 109 796 114 q 813 104 808 104 q 847 131 826 104 q 892 200 868 158 q 940 289 915 242 q 987 378 965 336 q 1024 447 1008 419 q 1047 474 1040 474 q 1050 438 1057 474 q 1026 351 1043 403 q 981 237 1008 299 q 920 123 953 175 q 852 35 888 71 q 782 0 817 0 q 685 44 724 0 q 647 182 647 89 q 656 265 647 218 q 681 361 664 313 q 708 436 694 400 q 731 500 721 472 q 747 546 742 528 q 750 567 751 564 q 722 583 743 576 q 678 593 700 590 q 650 503 664 554 q 619 398 636 451 q 582 294 603 344 q 535 206 561 243 q 474 151 508 169 q 396 146 439 133 m 326 568 q 292 543 313 568 q 250 478 272 518 q 206 390 228 439 q 163 293 183 342 q 124 202 142 244 q 97 133 107 160 q 106 94 100 110 q 126 78 113 78 q 181 108 153 76 q 238 190 210 140 q 219 209 226 197 q 218 236 211 221 q 241 256 228 257 q 269 251 254 254 q 299 323 285 286 q 322 395 313 360 q 338 463 332 431 q 343 519 343 494 q 340 552 343 536 q 326 568 338 568 z "},"":{"ha":1014,"x_min":-132,"x_max":1078,"o":"m 232 593 q 221 556 232 586 q 192 479 210 525 q 152 374 175 433 q 106 251 129 315 q 158 370 131 313 q 213 478 185 428 q 241 528 224 499 q 280 587 258 558 q 326 635 301 615 q 378 654 351 654 q 474 610 436 654 q 513 474 513 567 q 497 347 513 421 q 451 201 482 274 q 490 226 471 204 q 526 284 508 249 q 560 364 543 319 q 590 453 576 408 q 616 541 604 499 q 638 615 628 583 q 618 667 614 631 q 626 701 619 683 q 643 733 632 718 q 670 756 654 747 q 708 765 686 765 q 733 741 728 765 q 726 660 738 717 q 800 653 761 657 q 870 640 839 649 q 921 615 901 631 q 936 571 940 599 q 926 538 935 560 q 906 487 918 517 q 879 419 893 457 q 853 339 865 382 q 827 233 838 286 q 817 140 817 181 q 823 109 817 114 q 833 104 829 104 q 868 131 847 104 q 913 200 889 158 q 961 289 936 242 q 1008 378 986 336 q 1045 447 1029 419 q 1068 474 1061 474 q 1071 438 1078 474 q 1047 351 1064 403 q 1001 237 1029 299 q 941 123 974 175 q 873 35 908 71 q 803 0 838 0 q 706 44 744 0 q 668 182 668 89 q 676 265 668 218 q 701 361 685 313 q 728 436 715 400 q 752 500 742 472 q 767 546 763 528 q 771 567 772 564 q 742 583 764 576 q 699 593 721 590 q 674 514 688 563 q 643 410 660 465 q 606 299 626 354 q 558 204 585 244 q 497 144 531 164 q 421 138 463 124 q 331 26 383 71 q 210 -18 279 -18 q 123 -2 157 -18 q 67 44 89 14 q 28 -69 46 -14 q -2 -171 11 -124 q -24 -255 -15 -218 q -37 -312 -33 -292 q -56 -322 -40 -325 q -87 -305 -71 -319 q -118 -267 -104 -290 q -132 -214 -132 -243 q -117 -78 -132 -157 q -81 89 -103 1 q -33 265 -58 176 q 14 426 -8 353 q 51 553 36 500 q 65 622 65 606 q 72 655 65 646 q 103 664 79 664 q 135 660 114 664 q 178 647 157 656 q 216 626 200 639 q 232 593 232 613 m 233 157 q 221 175 224 164 q 222 197 218 186 q 235 215 226 207 q 257 221 244 222 q 269 217 264 219 q 282 214 275 215 q 341 367 318 289 q 364 501 364 444 q 361 534 364 518 q 347 550 358 550 q 317 528 336 550 q 274 472 297 507 q 226 393 251 438 q 178 302 201 349 q 134 211 154 256 q 100 132 114 167 q 115 81 100 101 q 147 60 129 60 q 197 84 171 58 q 247 151 222 110 q 240 154 243 153 q 233 157 236 156 z "},"":{"ha":817,"x_min":-97,"x_max":881,"o":"m 335 610 q 315 538 325 581 q 299 446 307 501 q 288 313 290 390 q 282 249 285 281 q 274 190 279 218 q 301 213 286 190 q 332 274 317 236 q 363 358 347 311 q 392 451 378 404 q 418 542 406 499 q 440 615 431 585 q 421 667 417 631 q 428 701 422 683 q 446 733 435 718 q 473 756 457 747 q 511 765 489 765 q 535 741 531 765 q 529 660 540 717 q 603 653 564 657 q 673 640 642 649 q 724 615 704 631 q 739 571 743 599 q 729 538 738 560 q 708 487 721 517 q 682 419 696 457 q 656 339 668 382 q 630 233 640 286 q 619 140 619 181 q 626 109 619 114 q 636 104 632 104 q 671 131 650 104 q 715 200 692 158 q 764 289 739 242 q 810 378 789 336 q 848 447 832 419 q 871 474 864 474 q 874 438 881 474 q 849 351 867 403 q 804 237 832 299 q 744 123 776 175 q 676 35 711 71 q 606 0 640 0 q 509 44 547 0 q 471 182 471 89 q 479 265 471 218 q 504 361 488 313 q 531 436 518 400 q 555 500 544 472 q 570 546 565 528 q 574 567 575 564 q 545 583 567 576 q 501 593 524 590 q 471 497 486 556 q 435 371 456 438 q 388 238 415 304 q 323 117 361 171 q 232 30 285 64 q 107 -4 179 -4 q 12 12 51 -4 q -52 53 -28 28 q -87 110 -76 78 q -93 174 -97 142 q -84 215 -90 197 q -71 236 -78 232 q -44 297 -60 260 q -9 379 -29 335 q 35 470 11 424 q 88 557 58 517 q 151 628 117 597 q 224 674 185 660 q 260 668 240 674 q 297 653 281 663 q 325 633 314 644 q 335 610 336 621 m 157 503 q 101 417 128 463 q 52 327 75 372 q 10 242 29 282 q -25 172 -8 201 q -15 144 -21 160 q -1 117 -10 129 q 22 95 8 104 q 54 86 35 86 q 99 110 82 86 q 124 173 115 135 q 137 259 133 211 q 142 353 140 307 q 147 439 144 399 q 157 503 149 479 z "},"":{"ha":642,"x_min":-43,"x_max":742,"o":"m 594 1047 q 649 1038 622 1047 q 696 1017 675 1029 q 729 992 717 1004 q 742 975 742 981 q 737 968 742 968 q 728 964 732 968 q 656 859 696 932 q 578 693 617 786 l 615 693 q 651 694 640 693 q 664 698 661 696 q 667 701 667 700 q 671 703 667 703 q 676 690 676 703 q 667 660 675 676 q 644 630 658 643 q 608 617 629 617 q 592 618 600 617 q 551 622 585 619 l 549 619 q 501 488 524 554 q 463 358 479 421 q 438 242 447 296 q 428 149 428 188 q 431 124 428 133 q 440 111 435 115 q 449 106 444 107 q 454 104 453 104 q 492 131 469 104 q 540 200 515 158 q 590 289 565 242 q 638 378 615 336 q 676 447 660 419 q 699 474 692 474 q 701 438 707 474 q 676 351 694 403 q 628 237 657 299 q 566 123 600 175 q 494 35 532 71 q 417 0 456 0 q 319 43 358 0 q 278 176 279 86 q 236 108 258 140 q 191 53 214 76 q 144 15 168 29 q 96 0 119 0 q -3 44 38 0 q -43 182 -43 89 q -35 270 -43 218 q -12 384 -26 322 q 22 514 3 446 q 65 649 42 582 q 37 650 50 650 q 13 650 24 650 q 5 658 6 650 q 10 674 4 665 q 26 690 15 682 q 51 697 36 697 l 82 697 q 134 831 107 768 q 186 942 161 894 q 234 1019 211 990 q 274 1047 257 1047 q 328 1038 301 1047 q 375 1017 354 1029 q 408 992 396 1004 q 421 975 421 981 q 416 968 421 968 q 407 964 411 968 q 336 860 375 932 q 258 697 297 788 q 338 697 300 697 q 403 696 375 697 q 455 831 428 767 q 507 942 482 894 q 555 1019 532 990 q 594 1047 578 1047 m 107 149 q 110 124 107 133 q 119 111 114 115 q 128 106 124 107 q 133 104 132 104 q 167 127 147 104 q 210 186 188 150 q 257 265 233 222 q 301 349 281 308 q 336 485 315 413 q 381 632 357 557 l 236 640 q 186 503 210 574 q 145 368 163 433 q 117 246 128 303 q 107 149 107 189 z "},"":{"ha":1081,"x_min":-35,"x_max":1144,"o":"m 869 0 q 783 1 826 1 q 704 1 740 1 q 644 1 668 1 q 617 1 621 0 q 597 12 608 3 q 574 35 585 21 q 555 65 563 49 q 550 100 547 82 q 594 192 554 133 q 690 317 633 250 q 809 449 746 383 q 925 565 872 515 q 850 561 889 561 q 769 563 804 561 q 717 572 733 564 q 674 438 701 508 q 608 298 646 367 q 521 166 569 229 q 417 56 472 103 q 298 -20 361 8 q 167 -49 235 -49 q 97 -38 133 -49 q 32 -3 61 -28 q -16 65 3 22 q -35 172 -35 107 q -4 308 -35 236 q 73 443 26 379 q 177 556 119 507 q 289 625 235 606 q 240 689 258 654 q 226 763 222 724 q 254 828 229 789 q 318 905 279 868 q 406 967 357 942 q 507 993 454 993 q 561 976 538 994 q 600 934 585 958 q 623 885 615 910 q 629 846 631 860 q 602 798 626 822 q 549 754 578 774 q 499 724 521 735 q 476 718 476 713 q 494 744 476 721 q 531 797 511 768 q 565 851 550 825 q 574 882 579 876 q 535 880 567 890 q 467 842 503 869 q 399 773 431 815 q 363 675 368 731 q 368 635 360 653 q 423 618 394 631 q 474 592 451 606 q 512 565 497 578 q 526 546 526 551 q 520 521 524 526 q 510 517 517 515 q 492 523 503 518 q 468 528 482 528 q 396 508 435 528 q 319 456 357 489 q 245 383 281 424 q 182 299 210 342 q 138 214 154 256 q 122 140 122 172 q 142 82 122 103 q 200 61 161 61 q 320 90 264 61 q 424 165 376 118 q 511 274 472 213 q 581 399 550 335 q 633 525 611 463 q 667 639 654 588 q 685 670 674 664 q 710 671 697 676 q 765 658 726 665 q 853 650 804 650 q 976 657 925 650 q 1031 664 1026 664 q 1053 656 1039 664 q 1083 635 1068 647 q 1107 610 1097 624 q 1115 585 1117 596 q 1085 529 1113 565 q 1017 447 1058 493 q 924 348 975 400 q 824 246 874 296 q 794 214 817 239 q 751 162 771 189 q 722 113 731 135 q 739 92 714 92 q 781 92 753 92 q 839 94 808 92 q 908 126 874 97 q 972 197 942 156 q 1029 288 1003 239 q 1076 378 1056 336 q 1113 447 1097 419 q 1135 474 1128 474 q 1138 438 1144 474 q 1113 351 1131 403 q 1067 237 1094 299 q 1008 123 1040 175 q 939 35 975 71 q 869 0 903 0 z "},"":{"ha":567,"x_min":4,"x_max":685,"o":"m 121 -8 l 136 -8 q 172 103 146 28 q 231 271 197 178 q 133 251 174 260 q 89 246 92 243 q 78 269 81 250 q 78 308 76 288 q 84 344 79 328 q 97 364 89 361 l 279 407 q 338 577 310 493 q 386 730 367 661 q 413 845 406 799 q 411 903 421 892 q 365 889 404 910 q 280 824 326 868 q 193 715 233 779 q 143 569 153 650 q 145 515 139 533 q 158 489 151 497 q 169 476 165 481 q 165 465 174 472 q 131 469 157 458 q 79 507 106 481 q 33 572 53 533 q 19 656 14 610 q 48 748 25 704 q 106 829 71 792 q 182 897 140 867 q 267 949 224 928 q 350 981 310 969 q 422 993 390 993 q 521 951 485 993 q 557 844 557 910 q 549 769 557 813 q 529 676 542 726 q 500 567 517 625 q 465 451 483 510 l 571 476 q 595 461 588 479 q 603 419 603 443 q 596 372 603 394 q 575 346 589 350 l 419 311 q 356 132 386 215 q 307 -4 326 49 q 397 -6 344 -4 q 522 -14 449 -8 q 651 -73 617 -22 q 671 -242 685 -124 q 662 -258 669 -254 q 647 -261 654 -262 q 633 -254 639 -260 q 628 -240 626 -249 q 596 -187 631 -210 q 506 -151 561 -165 q 385 -128 451 -136 q 259 -115 318 -119 q 156 -110 200 -111 q 103 -110 113 -110 q 24 -84 44 -110 q 11 -8 4 -58 q 21 22 14 13 q 36 31 28 31 q 51 26 47 31 q 59 14 54 21 q 77 1 64 7 q 121 -8 90 -6 z "},"":{"ha":431,"x_min":0,"x_max":547,"o":"m 10 424 q 1 447 3 429 q 3 483 0 464 q 11 518 6 503 q 24 535 17 533 q 67 542 26 535 q 163 558 107 549 q 223 736 190 649 q 288 893 256 824 q 349 1005 319 963 q 400 1047 379 1047 q 454 1038 428 1047 q 501 1017 481 1029 q 535 992 522 1004 q 547 975 547 981 q 542 968 547 968 q 533 964 538 968 q 490 906 513 943 q 442 819 467 868 q 392 711 417 769 q 344 590 367 653 q 419 603 388 597 q 460 610 450 608 q 478 594 474 613 q 482 553 483 576 q 473 510 481 531 q 453 488 465 489 q 406 479 450 486 q 300 463 361 472 q 251 282 269 367 q 233 140 233 197 q 240 109 233 114 q 249 104 246 104 q 283 131 263 104 q 328 200 304 158 q 378 289 353 242 q 424 378 403 336 q 462 447 446 419 q 485 474 478 474 q 487 438 493 474 q 463 351 481 403 q 417 237 444 299 q 356 123 389 175 q 288 35 324 71 q 218 0 253 0 q 122 44 160 0 q 83 182 83 89 q 96 291 83 225 q 128 436 108 357 q 46 425 79 429 q 10 424 13 421 z "},"":{"ha":713,"x_min":-43,"x_max":793,"o":"m 554 992 q 736 936 679 992 q 793 781 793 881 q 759 649 793 724 q 672 498 725 574 q 554 355 618 422 q 431 247 490 288 q 468 204 451 226 q 488 211 474 206 q 517 223 501 217 q 545 234 532 229 q 561 239 558 239 q 588 228 575 239 q 610 203 601 217 q 621 178 619 189 q 611 167 622 167 q 592 162 607 167 q 560 151 578 157 q 527 138 543 144 q 504 129 511 132 q 516 87 514 101 q 518 47 518 72 q 476 -76 518 -15 q 372 -187 435 -137 q 236 -266 310 -236 q 97 -296 163 -296 q 47 -290 72 -296 q 1 -272 21 -285 q -31 -242 -18 -260 q -43 -199 -43 -224 q 3 -88 -43 -143 q 116 16 49 -33 q 260 106 183 65 q 396 175 336 147 q 344 196 376 190 q 283 169 311 178 q 233 161 254 161 q 194 181 208 161 q 173 225 179 201 q 167 269 167 249 q 175 289 168 289 q 240 309 201 289 q 324 363 279 329 q 417 441 369 397 q 510 532 465 485 q 592 626 554 579 q 655 715 629 674 q 690 786 681 756 q 686 831 699 817 q 612 853 664 856 q 495 829 560 851 q 360 771 431 807 q 231 692 290 735 q 133 604 172 649 q 89 524 93 560 q 74 513 88 510 q 46 535 61 517 q 18 584 31 553 q 6 658 6 615 q 30 728 6 690 q 96 803 54 765 q 192 874 138 840 q 308 935 247 908 q 433 976 369 961 q 554 992 496 992 m 406 89 q 278 23 346 61 q 154 -54 211 -15 q 58 -129 97 -93 q 17 -187 19 -165 q 39 -194 15 -199 q 100 -172 63 -189 q 184 -126 138 -154 q 274 -65 231 -99 q 354 9 318 -31 q 406 89 390 49 m 435 1061 q 435 1078 435 1063 q 437 1115 436 1094 q 438 1156 438 1136 q 438 1185 439 1176 q 435 1198 438 1196 q 436 1203 433 1200 q 449 1210 439 1208 q 462 1210 453 1211 q 481 1207 471 1210 q 498 1199 490 1204 q 507 1185 506 1193 q 508 1166 508 1176 q 508 1144 508 1156 l 508 1121 q 543 1164 528 1144 q 569 1194 557 1181 q 583 1208 581 1208 q 610 1202 594 1208 q 622 1185 625 1196 q 597 1155 618 1181 q 551 1101 576 1129 q 501 1049 525 1072 q 465 1025 476 1025 q 457 1025 463 1025 q 446 1028 451 1025 q 436 1039 440 1032 q 435 1061 432 1046 z "},"":{"ha":493,"x_min":-90,"x_max":557,"o":"m 282 0 q 196 1 239 1 q 117 1 153 1 q 57 1 81 1 q 29 1 33 0 q 9 12 21 3 q -14 35 -3 21 q -33 65 -25 49 q -37 100 -40 82 q 6 192 -33 133 q 102 317 46 250 q 222 449 158 383 q 338 565 285 515 q 263 561 301 561 q 181 563 217 561 q 129 572 146 564 q 88 467 110 522 q 43 363 65 413 q 3 275 21 314 q -22 218 -14 236 l -90 218 q -44 311 -68 257 q 2 423 -21 365 q 44 538 25 481 q 79 639 64 594 q 98 670 86 664 q 122 671 110 676 q 178 658 139 665 q 265 650 217 650 q 388 657 338 650 q 443 664 439 664 q 466 656 451 664 q 495 635 481 647 q 519 610 510 624 q 528 585 529 596 q 498 529 525 565 q 429 447 471 493 q 337 348 388 400 q 236 246 286 296 q 206 214 229 239 q 163 162 183 189 q 135 113 143 135 q 151 92 126 92 q 193 92 165 92 q 251 94 221 92 q 320 126 286 97 q 385 197 354 156 q 442 288 415 239 q 489 378 468 336 q 525 447 510 419 q 547 474 540 474 q 550 438 557 474 q 525 351 543 403 q 480 237 507 299 q 420 123 453 175 q 351 35 388 71 q 282 0 315 0 m 283 764 q 284 781 283 765 q 285 818 285 797 q 287 859 286 839 q 286 888 288 879 q 284 901 286 899 q 285 906 282 903 q 297 913 288 911 q 310 913 301 914 q 329 910 319 913 q 347 901 339 907 q 356 888 354 896 q 357 869 357 879 q 357 847 357 858 l 357 824 q 392 867 376 847 q 417 897 406 883 q 432 911 429 911 q 458 905 443 911 q 471 888 474 899 q 446 858 467 883 q 399 803 425 832 q 349 751 374 775 q 314 728 325 728 q 306 728 311 728 q 294 731 300 728 q 285 742 289 735 q 283 764 281 749 z "},"":{"ha":785,"x_min":-3,"x_max":746,"o":"m 58 460 q 56 481 53 465 q 65 514 58 497 q 79 544 71 531 q 94 557 88 557 l 179 557 q 255 710 211 638 q 350 836 299 782 q 459 922 401 890 q 575 954 517 954 q 658 935 625 954 q 711 888 692 915 q 738 830 731 861 q 746 776 746 799 q 725 690 746 733 q 674 608 704 647 q 606 534 643 568 q 538 474 569 500 q 485 434 507 449 q 460 419 463 419 q 465 439 454 419 q 497 490 476 458 q 542 561 517 521 q 592 644 568 601 q 633 727 615 686 q 654 800 650 768 q 636 824 658 824 q 574 803 607 824 q 508 748 542 783 q 442 664 475 713 q 379 560 408 615 l 469 560 q 483 542 482 560 q 477 505 483 525 q 460 467 471 485 q 438 450 449 450 l 329 450 q 313 404 321 426 q 299 358 306 382 q 371 360 339 360 q 413 360 403 360 q 426 342 425 360 q 422 305 428 325 q 404 267 415 285 q 382 250 393 250 l 275 250 q 271 208 272 229 q 269 168 269 188 q 292 83 269 114 q 358 53 314 53 q 434 73 396 53 q 508 125 472 93 q 576 196 544 157 q 633 272 608 235 q 672 341 657 310 q 688 389 686 372 q 700 382 694 389 q 708 368 706 375 q 715 349 713 360 q 701 287 715 326 q 662 201 688 247 q 600 109 636 156 q 519 24 564 63 q 424 -38 475 -14 q 318 -62 374 -62 q 231 -41 269 -62 q 165 19 192 -19 q 124 111 138 57 q 110 231 110 165 q 110 241 110 236 q 111 253 111 246 q 37 255 67 254 q 4 258 7 256 q 0 280 -3 264 q 9 313 3 296 q 24 344 15 331 q 39 357 32 357 l 122 357 q 143 453 131 404 q 84 456 107 454 q 58 460 61 457 z "},"":{"ha":613,"x_min":-3,"x_max":686,"o":"m 454 458 q 408 474 433 458 q 367 508 383 489 q 349 542 350 526 q 372 557 347 557 q 409 577 385 557 q 461 628 433 597 q 517 697 489 660 q 567 769 546 735 q 599 831 588 804 q 601 867 610 857 q 555 870 589 882 q 477 828 521 858 q 385 754 433 799 q 294 660 336 710 q 224 560 253 611 q 189 465 194 508 q 212 424 186 440 q 278 393 238 407 q 365 365 318 379 q 451 334 411 351 q 515 293 490 317 q 536 236 540 269 q 490 153 532 203 q 386 58 449 104 q 248 -20 324 13 q 101 -53 172 -53 q 41 -33 64 -53 q 8 15 18 -14 q -2 77 -3 43 q 6 140 -1 111 q 27 188 14 168 q 57 207 40 207 q 54 194 64 207 q 42 154 44 181 q 56 122 40 136 q 90 108 71 108 q 203 125 149 108 q 299 165 257 142 q 367 212 340 188 q 394 251 393 236 q 367 266 394 258 q 299 285 340 274 q 210 314 258 297 q 123 356 163 331 q 60 419 83 382 q 42 506 36 456 q 73 607 47 553 q 138 715 99 661 q 226 820 176 769 q 328 910 275 871 q 433 972 381 949 q 531 994 485 994 q 644 949 601 994 q 686 833 686 904 q 660 717 686 782 q 599 595 635 653 q 523 498 563 538 q 454 458 483 458 m 467 1088 q 467 1105 467 1089 q 469 1142 468 1121 q 470 1183 469 1163 q 469 1211 471 1203 q 467 1224 469 1222 q 468 1229 465 1226 q 481 1236 471 1235 q 494 1237 485 1238 q 513 1233 503 1236 q 530 1225 522 1231 q 539 1211 538 1219 q 540 1192 540 1203 q 540 1171 540 1182 l 540 1147 q 575 1190 560 1171 q 601 1221 589 1207 q 615 1235 613 1235 q 642 1228 626 1235 q 654 1211 657 1222 q 629 1181 650 1207 q 583 1127 608 1156 q 533 1075 557 1099 q 497 1051 508 1051 q 489 1051 494 1051 q 478 1055 483 1051 q 468 1065 472 1058 q 467 1088 464 1072 z "},"":{"ha":369,"x_min":-97,"x_max":413,"o":"m 335 610 q 315 538 325 581 q 299 446 307 501 q 288 313 290 390 q 274 192 285 250 q 242 91 264 135 q 184 22 219 47 q 96 -4 149 -4 q 2 12 40 -4 q -58 53 -36 28 q -89 110 -81 78 q -93 174 -97 142 q -84 215 -90 197 q -71 236 -78 232 q -44 297 -60 260 q -9 379 -29 335 q 35 470 11 424 q 88 557 58 517 q 151 628 117 597 q 224 674 185 660 q 260 668 240 674 q 297 653 281 663 q 325 633 314 644 q 335 610 336 621 m 157 503 q 101 417 128 463 q 52 327 75 372 q 10 242 29 282 q -25 172 -8 201 q -15 144 -21 160 q -1 117 -10 129 q 22 95 8 104 q 54 86 35 86 q 99 110 82 86 q 124 173 115 135 q 137 259 133 211 q 142 353 140 307 q 147 439 144 399 q 157 503 149 479 m 222 772 q 223 790 222 774 q 224 826 224 806 q 226 867 225 847 q 225 896 226 888 q 223 909 225 907 q 224 914 221 911 q 236 921 226 919 q 249 922 240 922 q 268 918 258 921 q 285 910 278 915 q 294 896 293 904 q 296 877 296 888 q 296 856 296 867 l 296 832 q 331 875 315 856 q 356 906 344 892 q 371 919 368 919 q 397 913 382 919 q 410 896 413 907 q 385 866 406 892 q 338 812 364 840 q 288 760 313 783 q 253 736 264 736 q 244 736 250 736 q 233 740 239 736 q 224 750 228 743 q 222 772 219 757 z "},"":{"ha":871,"x_min":-1,"x_max":975,"o":"m 969 907 q 942 844 967 904 q 881 689 918 785 q 802 473 844 593 q 721 232 760 353 q 653 -1 682 111 q 615 -193 625 -114 q 615 -302 608 -262 q 633 -364 622 -342 q 653 -395 643 -386 q 663 -412 664 -404 q 644 -419 661 -417 q 603 -417 628 -422 q 551 -395 578 -412 q 502 -343 524 -378 q 470 -252 481 -308 q 469 -111 460 -196 q 487 -6 475 -65 q 516 119 499 53 q 555 258 533 186 q 600 401 576 329 q 450 106 513 208 q 328 3 388 3 q 228 49 267 3 q 192 169 190 94 q 210 294 192 222 q 253 444 228 367 q 308 599 279 522 q 360 740 338 676 q 395 847 383 804 q 399 900 407 890 q 373 899 393 906 q 325 873 353 892 q 265 825 297 854 q 205 758 233 796 q 155 673 176 719 q 128 572 133 626 q 129 518 124 536 q 142 491 135 500 q 154 478 150 482 q 151 468 158 475 q 114 469 140 458 q 61 507 88 481 q 17 573 35 533 q 4 658 -1 613 q 33 751 10 707 q 92 831 57 794 q 168 898 126 868 q 253 949 210 928 q 337 981 296 969 q 410 992 378 992 q 510 948 475 992 q 546 844 546 904 q 531 758 546 810 q 494 646 517 707 q 447 518 472 585 q 399 387 421 451 q 362 263 376 322 q 347 160 347 204 q 348 145 347 154 q 351 128 349 136 q 358 114 354 119 q 368 108 361 108 q 403 142 379 108 q 458 233 426 176 q 526 363 489 290 q 599 513 563 436 q 672 665 636 590 q 735 801 707 740 q 781 903 763 863 q 804 953 800 944 q 829 997 824 997 q 885 985 857 997 q 933 957 913 972 q 965 927 954 942 q 969 907 975 913 m 643 1110 q 628 1054 643 1076 q 586 1032 614 1032 q 541 1046 565 1032 q 517 1088 517 1060 q 533 1139 517 1114 q 572 1164 550 1164 q 619 1149 596 1164 q 643 1110 643 1133 m 804 1110 q 790 1054 804 1076 q 747 1032 775 1032 q 702 1046 726 1032 q 678 1088 678 1060 q 694 1139 678 1114 q 733 1164 710 1164 q 780 1149 756 1164 q 804 1110 804 1133 z "},"":{"ha":426,"x_min":-42,"x_max":486,"o":"m 458 888 q 453 853 460 879 q 436 789 447 828 q 409 699 425 750 q 375 592 393 649 q 396 510 396 554 q 389 485 396 497 q 371 461 382 472 q 347 441 360 450 q 321 426 333 432 l 207 93 q 273 137 242 104 q 331 212 304 169 q 381 301 358 254 q 423 385 404 347 q 456 449 442 424 q 481 474 471 474 q 480 438 486 474 q 458 350 474 403 q 415 235 442 297 q 351 119 388 172 q 269 31 315 67 q 171 -7 224 -6 q 128 -123 144 -79 q 110 -168 113 -167 q 88 -172 100 -171 q 67 -174 76 -174 q 50 -170 57 -174 q 42 -157 43 -167 q 53 -109 40 -153 q 88 6 65 -65 q -8 83 25 28 q -42 213 -42 138 q -17 366 -42 285 q 49 515 8 447 q 143 628 90 583 q 253 672 196 672 q 272 671 263 672 q 289 667 281 669 q 337 829 318 764 q 357 906 356 894 q 357 926 357 919 q 364 932 357 932 q 380 930 365 932 q 411 922 394 928 q 442 908 428 917 q 458 888 457 900 m 117 224 q 125 131 110 167 q 185 324 153 222 q 246 524 217 425 q 205 470 225 501 q 167 400 185 439 q 135 316 149 361 q 117 224 122 271 z "},"":{"ha":567,"x_min":4,"x_max":685,"o":"m 136 293 q 132 314 131 299 q 138 345 133 329 q 150 374 143 361 q 164 386 157 386 q 198 386 167 386 q 272 388 229 386 q 333 563 303 475 q 383 722 363 650 q 413 843 404 794 q 411 903 422 892 q 365 889 404 910 q 280 824 326 868 q 193 715 233 779 q 143 569 153 650 q 145 515 139 533 q 158 489 151 497 q 169 476 165 481 q 165 465 174 472 q 131 469 157 458 q 79 507 106 481 q 33 572 53 533 q 19 656 14 610 q 48 748 25 704 q 106 829 71 792 q 182 897 140 867 q 267 949 224 928 q 350 981 310 969 q 422 993 390 993 q 521 951 485 993 q 557 844 557 910 q 548 758 557 808 q 523 648 539 708 q 487 522 507 588 q 444 389 467 456 l 519 389 q 533 372 532 389 q 531 336 535 356 q 517 300 526 317 q 496 283 507 283 q 469 283 493 283 q 410 283 444 282 q 352 120 379 196 q 307 -4 325 44 q 397 -6 344 -4 q 522 -14 449 -8 q 651 -73 617 -22 q 671 -242 685 -124 q 662 -258 669 -254 q 647 -261 654 -262 q 633 -254 639 -260 q 628 -240 626 -249 q 596 -187 631 -210 q 506 -151 561 -165 q 385 -128 451 -136 q 259 -115 318 -119 q 156 -110 200 -111 q 103 -110 113 -110 q 24 -84 44 -110 q 11 -8 4 -58 q 21 22 14 13 q 36 31 28 31 q 51 26 47 31 q 59 14 54 21 q 77 1 64 7 q 121 -8 90 -6 l 136 -8 q 174 108 146 29 q 236 286 201 188 q 166 289 194 288 q 136 293 138 290 z "},"":{"ha":871,"x_min":-1,"x_max":975,"o":"m 299 -258 q 294 -240 292 -254 q 303 -212 297 -226 q 318 -186 310 -197 q 333 -175 326 -175 q 374 -174 336 -175 q 465 -174 413 -174 q 469 -111 465 -144 q 470 -103 469 -107 q 471 -94 471 -99 q 389 -92 422 -93 q 353 -89 356 -92 q 350 -71 347 -85 q 359 -43 353 -57 q 374 -18 365 -29 q 389 -7 382 -7 q 419 -7 392 -7 q 486 -6 447 -7 q 535 187 506 82 q 600 401 564 292 q 450 106 513 208 q 328 3 388 3 q 228 49 267 3 q 192 169 190 94 q 210 294 192 222 q 253 444 228 367 q 308 599 279 522 q 360 740 338 676 q 395 847 383 804 q 399 900 407 890 q 373 899 393 906 q 325 873 353 892 q 265 825 297 854 q 205 758 233 796 q 155 673 176 719 q 128 572 133 626 q 129 518 124 536 q 142 491 135 500 q 154 478 150 482 q 151 468 158 475 q 114 469 140 458 q 61 507 88 481 q 17 573 35 533 q 4 658 -1 613 q 33 751 10 707 q 92 831 57 794 q 168 898 126 868 q 253 949 210 928 q 337 981 296 969 q 410 992 378 992 q 510 948 475 992 q 546 844 546 904 q 531 758 546 810 q 494 646 517 707 q 447 518 472 585 q 399 387 421 451 q 362 263 376 322 q 347 160 347 204 q 348 145 347 154 q 351 128 349 136 q 358 114 354 119 q 368 108 361 108 q 403 142 379 108 q 458 233 426 176 q 526 363 489 290 q 599 513 563 436 q 672 665 636 590 q 735 801 707 740 q 781 903 763 863 q 804 953 800 944 q 829 997 824 997 q 885 985 857 997 q 933 957 913 972 q 965 927 954 942 q 969 907 975 913 q 949 861 967 904 q 904 747 932 818 q 842 584 876 676 q 774 391 808 492 q 708 188 739 290 q 653 -4 676 86 l 764 -4 q 777 -19 776 -4 q 772 -51 778 -33 q 754 -83 765 -68 q 732 -97 743 -97 q 701 -97 729 -97 q 631 -96 672 -97 q 618 -172 622 -139 l 707 -172 q 721 -187 719 -172 q 716 -219 722 -201 q 699 -251 710 -236 q 676 -265 688 -265 l 611 -265 q 621 -334 613 -308 q 639 -375 629 -360 q 656 -398 649 -390 q 663 -412 663 -406 q 637 -420 661 -418 q 580 -410 613 -422 q 517 -364 547 -397 q 472 -264 486 -331 q 408 -263 439 -264 q 353 -262 378 -262 q 315 -260 329 -261 q 299 -258 300 -260 z "},"":{"ha":881,"x_min":-115,"x_max":958,"o":"m 378 418 q 502 598 440 507 q 619 767 564 689 q 722 906 675 846 q 801 996 768 967 q 838 997 811 1006 q 892 974 865 989 q 939 943 919 960 q 951 921 958 926 q 926 869 947 918 q 874 744 904 821 q 810 569 844 667 q 750 371 776 472 q 754 369 751 369 q 769 346 765 364 q 770 309 772 328 q 763 277 768 290 q 753 271 758 264 q 744 276 750 274 q 731 282 739 279 q 716 210 722 246 q 706 140 710 174 q 702 37 697 72 q 716 -15 707 1 q 733 -35 725 -31 q 740 -49 742 -40 q 722 -61 739 -56 q 681 -64 706 -67 q 628 -48 656 -61 q 581 -3 601 -35 q 549 84 560 29 q 549 222 539 139 q 555 267 551 244 q 563 314 558 290 q 506 319 535 317 q 446 324 476 322 q 326 156 385 236 q 211 15 267 75 q 105 -82 156 -46 q 13 -118 54 -118 q -54 -101 -26 -118 q -97 -64 -82 -85 q -114 -26 -112 -43 q -103 -10 -115 -10 q -96 -14 -99 -10 q -89 -22 -93 -18 q -78 -31 -85 -26 q -58 -35 -71 -35 q 17 -6 -25 -35 q 106 71 58 22 q 206 185 154 119 q 313 325 258 250 q 206 313 250 322 q 133 292 163 304 q 85 267 103 279 q 58 244 68 254 q 43 226 47 233 q 37 213 39 218 q 33 204 35 207 q 25 201 32 201 q 4 213 13 201 q -1 251 -4 225 q 98 376 8 336 q 378 418 188 415 m 507 414 q 583 406 549 411 q 653 635 613 522 q 580 526 617 582 q 507 414 543 471 m 750 1133 q 745 1155 744 1142 q 750 1183 746 1168 q 760 1209 754 1197 q 774 1225 767 1221 q 783 1228 779 1229 q 789 1226 788 1228 q 792 1219 790 1224 q 803 1200 794 1210 q 830 1172 811 1188 q 869 1140 849 1156 q 904 1114 889 1125 q 922 1099 919 1103 q 924 1076 926 1092 q 907 1049 922 1060 q 879 1053 901 1044 q 831 1075 857 1061 q 782 1105 806 1089 q 750 1133 758 1121 z "},"":{"ha":881,"x_min":-115,"x_max":997,"o":"m 378 418 q 502 598 440 507 q 619 767 564 689 q 722 906 675 846 q 801 996 768 967 q 838 997 811 1006 q 892 974 865 989 q 939 943 919 960 q 951 921 958 926 q 926 869 947 918 q 874 744 904 821 q 810 569 844 667 q 750 371 776 472 q 754 369 751 369 q 769 346 765 364 q 770 309 772 328 q 763 277 768 290 q 753 271 758 264 q 744 276 750 274 q 731 282 739 279 q 716 210 722 246 q 706 140 710 174 q 702 37 697 72 q 716 -15 707 1 q 733 -35 725 -31 q 740 -49 742 -40 q 722 -61 739 -56 q 681 -64 706 -67 q 628 -48 656 -61 q 581 -3 601 -35 q 549 84 560 29 q 549 222 539 139 q 555 267 551 244 q 563 314 558 290 q 506 319 535 317 q 446 324 476 322 q 326 156 385 236 q 211 15 267 75 q 105 -82 156 -46 q 13 -118 54 -118 q -54 -101 -26 -118 q -97 -64 -82 -85 q -114 -26 -112 -43 q -103 -10 -115 -10 q -96 -14 -99 -10 q -89 -22 -93 -18 q -78 -31 -85 -26 q -58 -35 -71 -35 q 17 -6 -25 -35 q 106 71 58 22 q 206 185 154 119 q 313 325 258 250 q 206 313 250 322 q 133 292 163 304 q 85 267 103 279 q 58 244 68 254 q 43 226 47 233 q 37 213 39 218 q 33 204 35 207 q 25 201 32 201 q 4 213 13 201 q -1 251 -4 225 q 98 376 8 336 q 378 418 188 415 m 507 414 q 583 406 549 411 q 653 635 613 522 q 580 526 617 582 q 507 414 543 471 m 992 1140 q 960 1112 983 1128 q 910 1082 936 1096 q 863 1060 885 1068 q 835 1056 840 1051 q 817 1083 819 1067 q 819 1106 815 1099 q 838 1121 822 1110 q 873 1147 853 1132 q 912 1178 893 1163 q 939 1207 931 1194 q 950 1226 949 1221 q 953 1233 951 1231 q 958 1235 954 1235 q 968 1232 963 1236 q 981 1216 974 1228 q 992 1190 988 1204 q 997 1162 996 1175 q 992 1140 997 1149 z "},"":{"ha":881,"x_min":-115,"x_max":967,"o":"m 378 418 q 502 598 440 507 q 619 767 564 689 q 722 906 675 846 q 801 996 768 967 q 838 997 811 1006 q 892 974 865 989 q 939 943 919 960 q 951 921 958 926 q 926 869 947 918 q 874 744 904 821 q 810 569 844 667 q 750 371 776 472 q 754 369 751 369 q 769 346 765 364 q 770 309 772 328 q 763 277 768 290 q 753 271 758 264 q 744 276 750 274 q 731 282 739 279 q 716 210 722 246 q 706 140 710 174 q 702 37 697 72 q 716 -15 707 1 q 733 -35 725 -31 q 740 -49 742 -40 q 722 -61 739 -56 q 681 -64 706 -67 q 628 -48 656 -61 q 581 -3 601 -35 q 549 84 560 29 q 549 222 539 139 q 555 267 551 244 q 563 314 558 290 q 506 319 535 317 q 446 324 476 322 q 326 156 385 236 q 211 15 267 75 q 105 -82 156 -46 q 13 -118 54 -118 q -54 -101 -26 -118 q -97 -64 -82 -85 q -114 -26 -112 -43 q -103 -10 -115 -10 q -96 -14 -99 -10 q -89 -22 -93 -18 q -78 -31 -85 -26 q -58 -35 -71 -35 q 17 -6 -25 -35 q 106 71 58 22 q 206 185 154 119 q 313 325 258 250 q 206 313 250 322 q 133 292 163 304 q 85 267 103 279 q 58 244 68 254 q 43 226 47 233 q 37 213 39 218 q 33 204 35 207 q 25 201 32 201 q 4 213 13 201 q -1 251 -4 225 q 98 376 8 336 q 378 418 188 415 m 507 414 q 583 406 549 411 q 653 635 613 522 q 580 526 617 582 q 507 414 543 471 m 967 1254 q 965 1230 967 1253 q 959 1178 963 1207 q 953 1124 956 1150 q 953 1089 951 1097 q 956 1075 954 1076 q 954 1069 957 1074 q 943 1063 949 1064 q 930 1063 939 1063 q 911 1067 921 1064 q 893 1076 901 1071 q 885 1090 885 1082 q 884 1108 883 1097 q 885 1129 885 1119 q 887 1147 886 1139 q 888 1154 888 1154 q 878 1139 886 1151 q 860 1112 869 1126 q 843 1085 851 1097 q 833 1071 835 1072 q 817 1065 829 1067 q 793 1066 804 1064 q 775 1072 782 1068 q 772 1083 768 1076 q 798 1118 776 1088 q 844 1185 819 1149 q 889 1252 868 1222 q 911 1285 910 1282 q 921 1285 913 1286 q 939 1282 929 1285 q 957 1272 949 1279 q 967 1254 965 1265 z "},"":{"ha":881,"x_min":-115,"x_max":1021,"o":"m 378 418 q 502 598 440 507 q 619 767 564 689 q 722 906 675 846 q 801 996 768 967 q 838 997 811 1006 q 892 974 865 989 q 939 943 919 960 q 951 921 958 926 q 926 869 947 918 q 874 744 904 821 q 810 569 844 667 q 750 371 776 472 q 754 369 751 369 q 769 346 765 364 q 770 309 772 328 q 763 277 768 290 q 753 271 758 264 q 744 276 750 274 q 731 282 739 279 q 716 210 722 246 q 706 140 710 174 q 702 37 697 72 q 716 -15 707 1 q 733 -35 725 -31 q 740 -49 742 -40 q 722 -61 739 -56 q 681 -64 706 -67 q 628 -48 656 -61 q 581 -3 601 -35 q 549 84 560 29 q 549 222 539 139 q 555 267 551 244 q 563 314 558 290 q 506 319 535 317 q 446 324 476 322 q 326 156 385 236 q 211 15 267 75 q 105 -82 156 -46 q 13 -118 54 -118 q -54 -101 -26 -118 q -97 -64 -82 -85 q -114 -26 -112 -43 q -103 -10 -115 -10 q -96 -14 -99 -10 q -89 -22 -93 -18 q -78 -31 -85 -26 q -58 -35 -71 -35 q 17 -6 -25 -35 q 106 71 58 22 q 206 185 154 119 q 313 325 258 250 q 206 313 250 322 q 133 292 163 304 q 85 267 103 279 q 58 244 68 254 q 43 226 47 233 q 37 213 39 218 q 33 204 35 207 q 25 201 32 201 q 4 213 13 201 q -1 251 -4 225 q 98 376 8 336 q 378 418 188 415 m 507 414 q 583 406 549 411 q 653 635 613 522 q 580 526 617 582 q 507 414 543 471 m 782 1056 q 774 1063 778 1054 q 767 1086 769 1072 q 763 1116 764 1100 q 767 1143 763 1132 q 797 1178 776 1169 q 841 1185 817 1186 q 891 1175 865 1183 q 939 1160 917 1167 q 977 1151 961 1153 q 997 1161 993 1150 q 1003 1177 1000 1168 q 1014 1183 1006 1186 q 1021 1153 1021 1179 q 1014 1104 1021 1126 q 988 1077 1006 1082 q 947 1076 969 1072 q 901 1090 925 1081 q 856 1103 878 1099 q 818 1106 835 1108 q 794 1086 801 1104 q 792 1067 790 1075 q 782 1056 793 1060 z "},"":{"ha":881,"x_min":-115,"x_max":1049,"o":"m 378 418 q 502 598 440 507 q 619 767 564 689 q 722 906 675 846 q 801 996 768 967 q 838 997 811 1006 q 892 974 865 989 q 939 943 919 960 q 951 921 958 926 q 926 869 947 918 q 874 744 904 821 q 810 569 844 667 q 750 371 776 472 q 754 369 751 369 q 769 346 765 364 q 770 309 772 328 q 763 277 768 290 q 753 271 758 264 q 744 276 750 274 q 731 282 739 279 q 716 210 722 246 q 706 140 710 174 q 702 37 697 72 q 716 -15 707 1 q 733 -35 725 -31 q 740 -49 742 -40 q 722 -61 739 -56 q 681 -64 706 -67 q 628 -48 656 -61 q 581 -3 601 -35 q 549 84 560 29 q 549 222 539 139 q 555 267 551 244 q 563 314 558 290 q 506 319 535 317 q 446 324 476 322 q 326 156 385 236 q 211 15 267 75 q 105 -82 156 -46 q 13 -118 54 -118 q -54 -101 -26 -118 q -97 -64 -82 -85 q -114 -26 -112 -43 q -103 -10 -115 -10 q -96 -14 -99 -10 q -89 -22 -93 -18 q -78 -31 -85 -26 q -58 -35 -71 -35 q 17 -6 -25 -35 q 106 71 58 22 q 206 185 154 119 q 313 325 258 250 q 206 313 250 322 q 133 292 163 304 q 85 267 103 279 q 58 244 68 254 q 43 226 47 233 q 37 213 39 218 q 33 204 35 207 q 25 201 32 201 q 4 213 13 201 q -1 251 -4 225 q 98 376 8 336 q 378 418 188 415 m 507 414 q 583 406 549 411 q 653 635 613 522 q 580 526 617 582 q 507 414 543 471 m 888 1117 q 873 1061 888 1083 q 831 1039 858 1039 q 785 1053 810 1039 q 761 1094 761 1067 q 778 1146 761 1121 q 817 1171 794 1171 q 864 1156 840 1171 q 888 1117 888 1140 m 1049 1117 q 1034 1061 1049 1083 q 992 1039 1019 1039 q 947 1053 971 1039 q 922 1094 922 1067 q 938 1146 922 1121 q 978 1171 954 1171 q 1024 1156 1000 1171 q 1049 1117 1049 1140 z "},"":{"ha":881,"x_min":-115,"x_max":1021,"o":"m 378 418 q 502 598 440 507 q 619 767 564 689 q 722 906 675 846 q 801 996 768 967 q 838 997 811 1006 q 892 974 865 989 q 939 943 919 960 q 951 921 958 926 q 926 869 947 918 q 874 744 904 821 q 810 569 844 667 q 750 371 776 472 q 754 369 751 369 q 769 346 765 364 q 770 309 772 328 q 763 277 768 290 q 753 271 758 264 q 744 276 750 274 q 731 282 739 279 q 716 210 722 246 q 706 140 710 174 q 702 37 697 72 q 716 -15 707 1 q 733 -35 725 -31 q 740 -49 742 -40 q 722 -61 739 -56 q 681 -64 706 -67 q 628 -48 656 -61 q 581 -3 601 -35 q 549 84 560 29 q 549 222 539 139 q 555 267 551 244 q 563 314 558 290 q 506 319 535 317 q 446 324 476 322 q 326 156 385 236 q 211 15 267 75 q 105 -82 156 -46 q 13 -118 54 -118 q -54 -101 -26 -118 q -97 -64 -82 -85 q -114 -26 -112 -43 q -103 -10 -115 -10 q -96 -14 -99 -10 q -89 -22 -93 -18 q -78 -31 -85 -26 q -58 -35 -71 -35 q 17 -6 -25 -35 q 106 71 58 22 q 206 185 154 119 q 313 325 258 250 q 206 313 250 322 q 133 292 163 304 q 85 267 103 279 q 58 244 68 254 q 43 226 47 233 q 37 213 39 218 q 33 204 35 207 q 25 201 32 201 q 4 213 13 201 q -1 251 -4 225 q 98 376 8 336 q 378 418 188 415 m 507 414 q 583 406 549 411 q 653 635 613 522 q 580 526 617 582 q 507 414 543 471 m 1021 1217 q 1014 1167 1021 1193 q 993 1120 1007 1142 q 960 1084 979 1099 q 919 1069 942 1069 q 852 1091 875 1069 q 829 1146 829 1113 q 835 1188 829 1164 q 852 1233 840 1211 q 882 1271 864 1256 q 925 1286 900 1286 q 1001 1266 981 1286 q 1021 1217 1021 1246 m 904 1119 q 926 1131 914 1115 q 948 1169 939 1147 q 960 1212 957 1192 q 956 1235 964 1232 q 924 1225 939 1240 q 901 1188 910 1210 q 892 1144 893 1165 q 904 1119 892 1124 z "},"":{"ha":551,"x_min":-19,"x_max":617,"o":"m 331 419 q 336 439 325 419 q 367 490 347 458 q 413 561 388 521 q 463 644 439 601 q 503 727 486 686 q 525 800 521 768 q 507 824 529 824 q 431 794 472 824 q 350 715 390 765 q 272 599 310 665 q 204 460 233 533 q 158 312 175 388 q 140 168 140 236 q 163 83 140 114 q 229 53 185 53 q 305 73 267 53 q 379 125 343 93 q 447 196 415 157 q 503 272 479 235 q 542 341 528 310 q 558 389 557 372 q 571 382 565 389 q 579 368 576 375 q 586 349 583 360 q 574 292 586 328 q 539 214 561 256 q 484 128 517 172 q 413 45 451 83 q 328 -21 374 7 q 232 -58 282 -49 q 224 -91 228 -72 q 218 -131 221 -110 q 214 -163 217 -142 q 204 -206 211 -185 q 183 -242 197 -226 q 147 -257 169 -257 q 98 -247 121 -257 q 59 -221 75 -236 q 35 -188 43 -206 q 28 -157 26 -171 q 38 -134 31 -136 q 47 -132 46 -132 q 52 -136 49 -132 q 53 -153 56 -140 q 65 -171 51 -164 q 89 -178 78 -178 q 121 -158 107 -178 q 140 -87 135 -137 l 144 -57 q 23 38 65 -39 q -19 231 -19 115 q -1 392 -19 308 q 49 556 17 475 q 125 708 81 636 q 221 835 169 781 q 330 922 272 890 q 446 954 388 954 q 529 935 496 954 q 582 888 563 915 q 609 830 601 861 q 617 776 617 799 q 596 690 617 733 q 544 608 575 647 q 477 534 514 568 q 409 474 440 500 q 356 434 378 449 q 331 419 333 419 z "},"":{"ha":588,"x_min":-35,"x_max":631,"o":"m 507 993 q 561 976 538 994 q 600 934 585 958 q 623 885 615 910 q 629 846 631 860 q 602 798 626 822 q 549 754 578 774 q 499 724 521 735 q 476 718 476 713 q 494 744 476 721 q 531 797 511 768 q 565 851 550 825 q 574 882 579 876 q 535 880 567 890 q 467 842 503 869 q 399 773 431 815 q 363 675 368 731 q 368 635 360 653 q 423 618 394 631 q 474 592 451 606 q 512 565 497 578 q 526 546 526 551 q 520 521 524 526 q 510 517 517 515 q 492 523 503 518 q 468 528 482 528 q 396 508 435 528 q 319 456 357 489 q 245 383 281 424 q 182 299 210 342 q 138 214 154 256 q 122 140 122 172 q 142 82 122 103 q 200 61 161 61 q 283 81 239 61 q 372 133 328 101 q 455 204 415 165 q 526 281 494 243 q 576 349 557 318 q 597 397 594 381 q 610 390 604 397 q 618 376 615 383 q 624 357 622 368 q 603 299 624 336 q 549 216 583 261 q 468 124 514 171 q 372 38 422 76 q 268 -24 321 0 q 167 -49 215 -49 q 97 -38 133 -49 q 32 -3 61 -28 q -16 65 3 22 q -35 172 -35 107 q -4 308 -35 236 q 73 443 26 379 q 177 556 119 507 q 289 625 235 606 q 240 689 258 654 q 226 763 222 724 q 254 828 229 789 q 318 905 279 868 q 406 967 357 942 q 507 993 454 993 m 404 1136 q 399 1158 399 1144 q 404 1185 400 1171 q 415 1212 408 1200 q 428 1228 421 1224 q 438 1231 433 1232 q 443 1229 442 1231 q 446 1222 444 1226 q 457 1203 449 1213 q 484 1174 465 1190 q 523 1143 503 1158 q 558 1117 543 1128 q 576 1101 574 1106 q 578 1078 581 1094 q 561 1051 576 1063 q 533 1056 556 1047 q 485 1078 511 1064 q 436 1108 460 1092 q 404 1136 413 1124 z "},"":{"ha":588,"x_min":-35,"x_max":647,"o":"m 507 993 q 561 976 538 994 q 600 934 585 958 q 623 885 615 910 q 629 846 631 860 q 602 798 626 822 q 549 754 578 774 q 499 724 521 735 q 476 718 476 713 q 494 744 476 721 q 531 797 511 768 q 565 851 550 825 q 574 882 579 876 q 535 880 567 890 q 467 842 503 869 q 399 773 431 815 q 363 675 368 731 q 368 635 360 653 q 423 618 394 631 q 474 592 451 606 q 512 565 497 578 q 526 546 526 551 q 520 521 524 526 q 510 517 517 515 q 492 523 503 518 q 468 528 482 528 q 396 508 435 528 q 319 456 357 489 q 245 383 281 424 q 182 299 210 342 q 138 214 154 256 q 122 140 122 172 q 142 82 122 103 q 200 61 161 61 q 283 81 239 61 q 372 133 328 101 q 455 204 415 165 q 526 281 494 243 q 576 349 557 318 q 597 397 594 381 q 610 390 604 397 q 618 376 615 383 q 624 357 622 368 q 603 299 624 336 q 549 216 583 261 q 468 124 514 171 q 372 38 422 76 q 268 -24 321 0 q 167 -49 215 -49 q 97 -38 133 -49 q 32 -3 61 -28 q -16 65 3 22 q -35 172 -35 107 q -4 308 -35 236 q 73 443 26 379 q 177 556 119 507 q 289 625 235 606 q 240 689 258 654 q 226 763 222 724 q 254 828 229 789 q 318 905 279 868 q 406 967 357 942 q 507 993 454 993 m 642 1138 q 610 1109 633 1125 q 560 1079 586 1093 q 513 1057 535 1065 q 485 1053 490 1049 q 467 1080 469 1064 q 469 1103 465 1096 q 488 1118 472 1107 q 523 1144 503 1129 q 562 1176 543 1160 q 589 1204 581 1192 q 600 1224 599 1218 q 603 1231 601 1228 q 608 1233 604 1232 q 618 1229 613 1233 q 631 1213 624 1225 q 642 1187 638 1201 q 647 1159 646 1172 q 642 1138 647 1146 z "}}}
